<svg version="1.1" xmlns="http://www.w3.org/2000/svg" viewBox="0 0 371.5 230" width="371.5" height="230" class="excalidraw-svg">
  <!-- svg-source:excalidraw -->
  
  <defs>
    <style class="style-fonts">
      @font-face {
        font-family: "Virgil";
        src: url("https://excalidraw.com/Virgil.woff2");
      }
      @font-face {
        font-family: "Cascadia";
        src: url("https://excalidraw.com/Cascadia.woff2");
      }
      @font-face {
        font-family: "Assistant";
        src: url("https://excalidraw.com/Assistant-Regular.woff2");
      }
    </style>
    
  </defs>
  <rect x="0" y="0" width="371.5" height="230" fill="#ffffff"/><g transform="translate(90 85.5) rotate(0 73.5 -22)" stroke="none"><path fill="#2f9e44" d="M 0.27,-2.98 Q 0.27,-2.98 1.92,-3.62 3.57,-4.25 5.83,-4.29 8.09,-4.32 11.03,-5.01 13.96,-5.69 16.22,-5.87 18.48,-6.05 20.78,-6.33 23.07,-6.61 25.58,-6.67 28.08,-6.72 30.73,-6.97 33.38,-7.21 36.11,-7.44 38.83,-7.68 40.43,-9.46 42.02,-11.24 43.65,-13.20 45.27,-15.17 46.81,-17.43 48.34,-19.70 49.59,-22.55 50.84,-25.41 51.75,-27.40 52.66,-29.40 53.65,-31.66 54.65,-33.92 55.99,-36.22 57.34,-38.51 58.77,-40.35 60.20,-42.19 62.47,-44.12 64.73,-46.05 67.68,-47.87 70.62,-49.69 72.77,-50.00 74.92,-50.32 77.39,-49.77 79.86,-49.22 82.07,-47.77 84.28,-46.32 85.96,-44.14 87.65,-41.96 88.64,-39.55 89.64,-37.14 90.17,-34.84 90.71,-32.53 91.47,-29.29 92.23,-26.05 92.88,-23.96 93.53,-21.87 94.50,-19.49 95.48,-17.11 96.93,-15.17 98.39,-13.24 100.97,-12.61 103.55,-11.99 106.09,-12.00 108.62,-12.01 111.03,-11.78 113.43,-11.55 115.71,-11.39 117.99,-11.22 120.40,-10.82 122.81,-10.43 125.79,-10.13 128.76,-9.83 131.07,-9.57 133.37,-9.31 135.66,-9.30 137.96,-9.28 141.22,-9.09 144.49,-8.91 146.81,-5.23 149.13,-1.56 149.03,-1.15 148.93,-0.74 148.71,-0.38 148.48,-0.02 148.15,0.24 147.82,0.50 147.42,0.65 147.02,0.80 146.60,0.81 146.17,0.83 145.76,0.70 145.36,0.58 145.01,0.33 144.67,0.09 144.42,-0.25 144.17,-0.59 144.04,-1.00 143.91,-1.40 143.92,-1.83 143.93,-2.25 144.08,-2.65 144.22,-3.05 144.49,-3.38 144.75,-3.71 145.11,-3.95 145.47,-4.18 145.88,-4.28 146.29,-4.38 146.72,-4.35 147.14,-4.32 147.53,-4.15 147.92,-3.98 148.24,-3.70 148.56,-3.42 148.77,-3.05 148.98,-2.68 149.06,-2.26 149.14,-1.85 149.09,-1.43 149.03,-1.00 148.84,-0.62 148.66,-0.24 148.36,0.05 148.06,0.35 147.68,0.54 147.30,0.73 146.88,0.79 146.45,0.85 146.04,0.77 145.62,0.69 145.25,0.48 144.88,0.28 144.59,-0.03 144.31,-0.34 144.14,-0.73 143.97,-1.12 143.93,-1.55 143.90,-1.97 143.90,-1.97 143.90,-1.97 143.72,0.38 143.54,2.75 141.31,2.52 139.09,2.29 136.61,2.25 134.13,2.21 131.66,1.89 129.18,1.57 126.31,1.28 123.43,0.99 120.67,0.59 117.90,0.18 115.12,-0.14 112.33,-0.47 109.88,-0.73 107.43,-0.98 104.80,-1.01 102.17,-1.03 99.74,-1.45 97.31,-1.86 94.60,-3.20 91.90,-4.53 90.33,-6.15 88.77,-7.76 87.27,-10.11 85.76,-12.45 84.86,-14.52 83.95,-16.59 83.00,-19.31 82.06,-22.03 81.61,-24.23 81.16,-26.44 80.61,-28.98 80.06,-31.52 79.34,-33.94 78.61,-36.36 76.77,-38.00 74.93,-39.64 73.10,-38.54 71.27,-37.43 69.23,-35.69 67.18,-33.94 65.73,-31.45 64.27,-28.97 63.32,-26.81 62.37,-24.65 61.06,-22.15 59.75,-19.66 58.72,-17.13 57.69,-14.59 56.26,-12.57 54.83,-10.55 53.14,-8.20 51.45,-5.85 49.65,-3.84 47.85,-1.83 45.46,-0.13 43.07,1.56 40.80,2.13 38.54,2.69 35.69,3.01 32.84,3.32 30.48,3.53 28.12,3.73 25.77,3.71 23.42,3.70 21.17,3.93 18.91,4.16 16.04,4.41 13.17,4.66 10.58,4.98 7.99,5.29 5.37,5.06 2.74,4.82 1.23,3.90 -0.27,2.98 -0.62,2.90 -0.97,2.83 -1.30,2.67 -1.62,2.51 -1.90,2.28 -2.18,2.05 -2.39,1.76 -2.61,1.47 -2.74,1.13 -2.88,0.80 -2.94,0.44 -2.99,0.09 -2.96,-0.26 -2.93,-0.62 -2.81,-0.97 -2.69,-1.31 -2.49,-1.61 -2.30,-1.91 -2.03,-2.16 -1.77,-2.41 -1.46,-2.59 -1.14,-2.76 -0.79,-2.86 -0.45,-2.96 -0.08,-2.97 0.27,-2.98 0.27,-2.98 L 0.27,-2.98 Z"/></g><g transform="translate(231.5 79) rotate(0 45.25 1.75)" stroke="none"><path fill="#1971c2" d="M 0,-2.84 Q 0,-2.84 2.15,-4.19 4.31,-5.54 6.60,-5.57 8.89,-5.60 11.11,-5.73 13.32,-5.85 16.50,-5.74 19.67,-5.62 22.39,-5.48 25.10,-5.34 27.50,-5.11 29.89,-4.88 32.01,-4.65 34.14,-4.42 36.96,-4.20 39.78,-3.97 42.09,-4.09 44.41,-4.22 46.91,-4.32 49.40,-4.43 51.87,-4.45 54.35,-4.48 56.84,-4.48 59.33,-4.49 61.83,-4.49 64.34,-4.50 66.76,-4.50 69.19,-4.51 72.38,-3.84 75.57,-3.18 78.22,-2.58 80.87,-1.98 83.26,-1.82 85.64,-1.66 87.62,-0.14 89.61,1.37 89.92,1.41 90.24,1.45 90.53,1.56 90.83,1.67 91.09,1.86 91.35,2.04 91.56,2.27 91.76,2.51 91.91,2.79 92.06,3.07 92.13,3.38 92.21,3.69 92.20,4.01 92.20,4.32 92.13,4.63 92.05,4.94 91.90,5.22 91.75,5.50 91.54,5.73 91.33,5.97 91.07,6.15 90.81,6.33 90.51,6.44 90.21,6.55 89.90,6.58 89.59,6.62 89.17,6.55 88.76,6.48 88.38,6.29 88.01,6.09 87.71,5.78 87.42,5.47 87.24,5.08 87.07,4.70 87.02,4.28 86.97,3.85 87.06,3.44 87.16,3.02 87.38,2.66 87.59,2.29 87.92,2.02 88.24,1.74 88.64,1.59 89.03,1.43 89.46,1.41 89.88,1.38 90.29,1.50 90.70,1.61 91.05,1.85 91.40,2.09 91.66,2.43 91.92,2.76 92.05,3.17 92.19,3.57 92.19,3.99 92.19,4.42 92.05,4.82 91.92,5.23 91.66,5.56 91.40,5.90 91.05,6.14 90.70,6.38 90.29,6.49 89.88,6.61 89.46,6.58 89.03,6.56 88.64,6.40 88.24,6.25 87.92,5.97 87.59,5.70 87.38,5.33 87.16,4.97 87.06,4.55 86.97,4.14 87.02,3.71 87.07,3.29 87.24,2.91 87.42,2.52 87.71,2.21 88.01,1.90 88.38,1.70 88.76,1.51 89.18,1.44 89.60,1.37 89.60,1.37 89.61,1.37 89.92,1.41 90.24,1.45 90.53,1.56 90.83,1.67 91.09,1.86 91.35,2.04 91.56,2.27 91.76,2.51 91.91,2.79 92.06,3.07 92.13,3.38 92.21,3.69 92.20,4.01 92.20,4.32 92.13,4.63 92.05,4.94 91.90,5.22 91.75,5.50 91.54,5.73 91.33,5.97 91.07,6.15 90.81,6.33 90.51,6.44 90.21,6.55 89.90,6.58 89.59,6.62 87.15,8.32 84.71,10.02 82.55,9.51 80.38,9.01 78.22,8.87 76.07,8.72 73.95,8.33 71.84,7.93 69.70,7.73 67.56,7.52 65.17,7.51 62.77,7.50 60.60,7.49 58.43,7.49 55.64,7.49 52.86,7.49 50.37,7.52 47.89,7.55 45.13,7.74 42.38,7.93 39.78,7.85 37.18,7.77 34.08,7.39 30.98,7.01 28.17,6.64 25.36,6.26 23.19,6.01 21.01,5.76 18.27,5.52 15.53,5.28 12.21,5.44 8.89,5.60 6.60,5.57 4.31,5.54 2.15,4.19 0,2.84 -0.34,2.80 -0.68,2.76 -1.00,2.64 -1.32,2.52 -1.60,2.32 -1.88,2.13 -2.11,1.87 -2.34,1.61 -2.50,1.31 -2.66,1.01 -2.74,0.67 -2.82,0.34 -2.82,-0.00 -2.82,-0.34 -2.74,-0.67 -2.66,-1.01 -2.50,-1.31 -2.34,-1.61 -2.11,-1.87 -1.88,-2.13 -1.60,-2.32 -1.32,-2.52 -1.00,-2.64 -0.68,-2.76 -0.34,-2.80 0.00,-2.84 0.00,-2.84 L 0,-2.84 Z"/></g><g transform="translate(313.5 80) rotate(0 17.5 0)" stroke="none"><path fill="#1971c2" d="M -0.18,-3.28 Q -0.18,-3.28 2.33,-4.62 4.85,-5.96 7.03,-6.05 9.22,-6.15 12.32,-6.05 15.42,-5.95 18.71,-6.06 21.99,-6.17 24.58,-6.28 27.16,-6.39 30.06,-6.22 32.96,-6.06 34.52,-3.98 36.08,-1.90 36.41,-1.63 36.75,-1.37 36.98,-1.02 37.22,-0.67 37.33,-0.25 37.44,0.15 37.41,0.57 37.38,0.99 37.22,1.39 37.06,1.78 36.78,2.10 36.50,2.42 36.14,2.64 35.77,2.85 35.35,2.94 34.94,3.03 34.52,2.98 34.09,2.92 33.71,2.74 33.33,2.56 33.02,2.26 32.72,1.97 32.52,1.59 32.33,1.21 32.26,0.79 32.20,0.37 32.27,-0.04 32.34,-0.45 32.55,-0.83 32.75,-1.20 33.06,-1.49 33.37,-1.78 33.76,-1.95 34.15,-2.13 34.57,-2.17 34.99,-2.21 35.41,-2.11 35.82,-2.02 36.18,-1.79 36.55,-1.57 36.82,-1.24 37.09,-0.92 37.24,-0.52 37.39,-0.12 37.41,0.29 37.43,0.71 37.31,1.12 37.20,1.53 36.95,1.88 36.71,2.23 36.37,2.48 36.03,2.74 35.62,2.87 35.22,3.00 34.79,2.99 34.37,2.99 33.97,2.85 33.57,2.71 33.57,2.71 33.57,2.71 30.49,4.06 27.42,5.42 25.16,5.49 22.90,5.56 19.77,5.66 16.64,5.75 14.39,5.52 12.14,5.28 8.81,5.33 5.49,5.38 2.83,4.33 0.18,3.28 -0.21,3.25 -0.60,3.22 -0.98,3.11 -1.36,2.99 -1.70,2.78 -2.03,2.57 -2.31,2.29 -2.59,2.01 -2.80,1.67 -3.00,1.33 -3.11,0.95 -3.23,0.57 -3.25,0.18 -3.27,-0.21 -3.20,-0.60 -3.13,-0.99 -2.96,-1.35 -2.80,-1.71 -2.55,-2.02 -2.31,-2.33 -1.99,-2.57 -1.68,-2.82 -1.32,-2.98 -0.96,-3.14 -0.57,-3.21 -0.18,-3.28 -0.18,-3.28 L -0.18,-3.28 Z"/></g><g transform="translate(93 142.5) rotate(0 69 -2.25)" stroke="none"><path fill="#2f9e44" d="M 0.39,-2.98 Q 0.39,-2.98 2.67,-3.59 4.94,-4.20 8.17,-4.13 11.39,-4.07 13.72,-4.08 16.05,-4.09 18.32,-3.91 20.58,-3.74 23.78,-3.73 26.98,-3.72 29.28,-3.51 31.58,-3.31 33.76,-3.08 35.95,-2.85 38.31,-2.40 40.68,-1.96 44.21,-1.48 47.74,-1.00 50.11,-0.74 52.48,-0.49 55.44,-0.07 58.40,0.34 61.94,0.40 65.49,0.46 68.67,0.62 71.85,0.78 74.30,1.03 76.74,1.28 79.05,1.34 81.36,1.40 83.54,1.40 85.71,1.41 88.73,1.64 91.75,1.87 94.13,1.86 96.51,1.85 99.61,2.21 102.72,2.58 105.06,2.45 107.41,2.33 109.91,2.33 112.41,2.33 114.71,2.08 117.01,1.84 119.14,1.47 121.27,1.10 123.13,0.00 124.99,-1.09 125.91,-3.03 126.83,-4.97 127.97,-7.15 129.11,-9.32 132.31,-11.35 135.52,-13.38 135.74,-13.74 135.97,-14.10 136.30,-14.37 136.62,-14.64 137.02,-14.80 137.42,-14.95 137.84,-14.96 138.27,-14.98 138.68,-14.86 139.08,-14.74 139.43,-14.50 139.78,-14.25 140.03,-13.91 140.28,-13.57 140.41,-13.16 140.54,-12.76 140.54,-12.33 140.53,-11.91 140.39,-11.51 140.25,-11.11 139.98,-10.77 139.72,-10.44 139.37,-10.21 139.01,-9.97 138.60,-9.87 138.19,-9.76 137.77,-9.79 137.34,-9.82 136.95,-9.98 136.56,-10.14 136.24,-10.42 135.92,-10.70 135.70,-11.07 135.49,-11.44 135.41,-11.85 135.32,-12.27 135.37,-12.69 135.42,-13.11 135.61,-13.50 135.79,-13.88 136.09,-14.18 136.39,-14.49 136.77,-14.68 137.14,-14.88 137.56,-14.94 137.98,-15.00 138.40,-14.93 138.82,-14.85 139.19,-14.65 139.57,-14.44 139.85,-14.13 140.14,-13.81 140.31,-13.43 140.49,-13.04 140.53,-12.61 140.56,-12.19 140.47,-11.78 140.37,-11.36 140.37,-11.36 140.37,-11.37 140.18,-8.33 139.99,-5.28 138.65,-2.90 137.31,-0.51 135.76,1.72 134.21,3.96 132.40,6.06 130.60,8.16 128.12,9.80 125.64,11.44 123.39,12.06 121.14,12.67 118.98,12.85 116.81,13.02 113.71,13.34 110.62,13.66 108.36,13.66 106.10,13.66 103.81,13.63 101.53,13.60 99.30,13.37 97.06,13.14 94.85,13.11 92.64,13.08 90.40,12.83 88.15,12.59 85.77,12.58 83.40,12.57 81.07,12.54 78.75,12.51 76.08,12.21 73.41,11.92 70.83,11.69 68.24,11.47 64.90,11.38 61.55,11.28 59.05,11.12 56.56,10.95 53.75,10.46 50.94,9.96 48.62,9.70 46.29,9.44 43.72,9.14 41.15,8.83 38.24,8.23 35.33,7.63 33.17,7.38 31.00,7.12 27.54,6.89 24.08,6.66 20.01,6.36 15.94,6.06 13.50,5.99 11.06,5.92 7.36,5.63 3.67,5.35 1.63,4.17 -0.39,2.98 -0.75,2.89 -1.10,2.80 -1.42,2.63 -1.74,2.46 -2.01,2.21 -2.28,1.97 -2.48,1.67 -2.68,1.37 -2.81,1.02 -2.93,0.68 -2.97,0.32 -3.01,-0.03 -2.96,-0.39 -2.91,-0.75 -2.78,-1.09 -2.65,-1.43 -2.44,-1.72 -2.23,-2.02 -1.95,-2.26 -1.68,-2.50 -1.35,-2.66 -1.03,-2.83 -0.68,-2.91 -0.32,-2.99 0.03,-2.99 0.39,-2.98 0.39,-2.98 L 0.39,-2.98 Z"/></g><g transform="translate(225 133) rotate(0 64.75 1)" stroke="none"><path fill="#1971c2" d="M -1.57,-2.35 Q -1.57,-2.35 -0.87,-4.10 -0.17,-5.86 1.66,-7.01 3.50,-8.16 5.43,-9.22 7.36,-10.29 9.53,-12.00 11.69,-13.72 13.55,-14.82 15.41,-15.93 17.61,-16.78 19.80,-17.64 21.83,-18.41 23.87,-19.19 26.34,-19.73 28.82,-20.27 30.97,-20.37 33.12,-20.46 36.46,-19.72 39.80,-18.98 42.00,-17.89 44.20,-16.79 46.14,-15.21 48.08,-13.64 49.92,-11.21 51.77,-8.79 53.12,-6.65 54.48,-4.52 55.95,-2.53 57.42,-0.54 59.38,0.32 61.35,1.19 63.50,2.14 65.66,3.08 68.24,3.93 70.81,4.79 73.12,6.42 75.43,8.04 78.28,8.52 81.14,9.01 83.97,9.59 86.81,10.17 89.10,10.27 91.38,10.36 93.84,10.35 96.30,10.35 99.70,10.33 103.10,10.31 105.39,10.31 107.69,10.31 109.83,10.50 111.98,10.68 114.93,10.32 117.88,9.95 120.21,9.44 122.54,8.93 126.87,10.99 131.19,13.05 131.35,13.44 131.51,13.84 131.54,14.26 131.56,14.68 131.45,15.09 131.34,15.50 131.11,15.86 130.87,16.21 130.54,16.47 130.20,16.73 129.80,16.87 129.40,17.01 128.97,17.01 128.55,17.02 128.14,16.89 127.74,16.75 127.40,16.50 127.06,16.25 126.82,15.90 126.58,15.55 126.46,15.14 126.34,14.73 126.36,14.31 126.38,13.88 126.53,13.48 126.69,13.09 126.96,12.76 127.23,12.44 127.60,12.21 127.96,11.99 128.37,11.90 128.79,11.80 129.21,11.84 129.63,11.89 130.02,12.06 130.41,12.24 130.72,12.53 131.03,12.82 131.23,13.19 131.43,13.56 131.50,13.98 131.58,14.40 131.51,14.82 131.45,15.24 131.25,15.62 131.06,15.99 130.75,16.29 130.44,16.58 130.06,16.77 129.68,16.95 129.25,17.00 128.83,17.05 128.42,16.96 128.00,16.87 127.63,16.66 127.27,16.44 126.99,16.12 126.71,15.80 126.71,15.80 126.71,15.80 124.65,18.73 122.58,21.66 119.91,22.21 117.24,22.76 115.07,22.95 112.89,23.15 110.29,22.92 107.69,22.68 105.39,22.68 103.10,22.68 99.70,22.66 96.29,22.64 93.82,22.63 91.35,22.62 89.15,22.53 86.95,22.44 84.46,21.93 81.96,21.42 79.49,20.95 77.01,20.49 74.61,20.03 72.22,19.57 70.04,18.21 67.86,16.86 65.18,15.42 62.51,13.98 59.87,12.93 57.24,11.87 55.07,10.92 52.91,9.96 50.67,8.15 48.43,6.33 47.03,4.10 45.64,1.86 44.10,-0.66 42.57,-3.19 41.27,-5.04 39.97,-6.88 38.03,-8.00 36.09,-9.12 33.80,-9.31 31.52,-9.51 29.28,-9.37 27.04,-9.23 24.81,-8.37 22.59,-7.52 20.49,-6.66 18.40,-5.80 15.95,-3.83 13.49,-1.87 11.37,-0.91 9.25,0.03 7.30,1.22 5.34,2.41 3.45,2.38 1.57,2.35 1.26,2.51 0.96,2.66 0.62,2.74 0.29,2.81 -0.04,2.81 -0.38,2.80 -0.71,2.71 -1.04,2.63 -1.34,2.46 -1.64,2.30 -1.89,2.07 -2.15,1.84 -2.33,1.55 -2.52,1.27 -2.64,0.95 -2.76,0.63 -2.79,0.29 -2.83,-0.04 -2.78,-0.38 -2.73,-0.72 -2.61,-1.03 -2.48,-1.35 -2.28,-1.63 -2.08,-1.91 -1.82,-2.13 -1.57,-2.35 -1.57,-2.35 L -1.57,-2.35 Z"/></g><g transform="translate(92 220) rotate(0 65 -11.5)" stroke="none"><path fill="#2f9e44" d="M -0.19,-3.30 Q -0.19,-3.30 2.20,-4.17 4.60,-5.04 7.51,-5.22 10.41,-5.40 13.09,-5.87 15.77,-6.33 18.94,-6.87 22.10,-7.40 24.94,-7.83 27.77,-8.25 30.16,-8.60 32.55,-8.95 35.18,-9.55 37.82,-10.16 41.04,-10.70 44.26,-11.24 46.59,-11.62 48.92,-12.01 51.18,-12.57 53.44,-13.13 55.55,-13.78 57.67,-14.43 59.91,-15.75 62.14,-17.08 63.61,-19.04 65.08,-21.00 66.46,-22.66 67.84,-24.32 70.35,-25.84 72.85,-27.36 75.17,-27.80 77.48,-28.25 80.06,-27.42 82.65,-26.58 84.60,-25.07 86.55,-23.56 88.01,-21.76 89.47,-19.96 90.88,-17.92 92.29,-15.89 94.24,-14.87 96.20,-13.85 98.34,-13.85 100.48,-13.85 103.12,-13.30 105.76,-12.75 108.07,-12.81 110.37,-12.86 113.82,-12.48 117.26,-12.09 119.44,-12.23 121.62,-12.36 124.01,-12.36 126.40,-12.36 128.21,-10.83 130.02,-9.30 130.33,-9.26 130.65,-9.22 130.94,-9.11 131.24,-9.00 131.50,-8.82 131.76,-8.64 131.97,-8.40 132.18,-8.16 132.33,-7.88 132.48,-7.60 132.55,-7.30 132.63,-6.99 132.63,-6.67 132.63,-6.36 132.55,-6.05 132.48,-5.74 132.33,-5.46 132.18,-5.18 131.97,-4.94 131.76,-4.71 131.50,-4.53 131.24,-4.35 130.94,-4.23 130.65,-4.12 130.33,-4.08 130.02,-4.05 131.19,-4.77 132.37,-5.49 132.12,-5.15 131.87,-4.81 131.52,-4.56 131.17,-4.31 130.77,-4.19 130.36,-4.07 129.94,-4.08 129.51,-4.10 129.11,-4.24 128.72,-4.39 128.39,-4.66 128.06,-4.93 127.83,-5.29 127.60,-5.65 127.50,-6.06 127.40,-6.47 127.44,-6.90 127.47,-7.32 127.64,-7.71 127.81,-8.10 128.10,-8.41 128.39,-8.73 128.76,-8.94 129.13,-9.14 129.55,-9.22 129.96,-9.30 130.38,-9.24 130.80,-9.18 131.18,-8.99 131.56,-8.80 131.86,-8.50 132.16,-8.19 132.35,-7.81 132.54,-7.43 132.59,-7.01 132.65,-6.59 132.56,-6.17 132.48,-5.75 132.27,-5.38 132.06,-5.02 131.74,-4.73 131.42,-4.45 131.03,-4.29 130.64,-4.12 130.22,-4.09 129.79,-4.06 129.38,-4.16 128.97,-4.27 128.61,-4.50 128.26,-4.73 127.99,-5.06 127.73,-5.39 127.58,-5.79 127.44,-6.19 127.43,-6.62 127.42,-7.04 128.72,-8.17 130.02,-9.30 130.33,-9.26 130.65,-9.22 130.94,-9.11 131.24,-9.00 131.50,-8.82 131.76,-8.64 131.97,-8.40 132.18,-8.16 132.33,-7.88 132.48,-7.60 132.55,-7.30 132.63,-6.99 132.63,-6.67 132.63,-6.36 132.55,-6.05 132.48,-5.74 132.33,-5.46 132.18,-5.18 131.97,-4.94 131.76,-4.71 131.50,-4.53 131.24,-4.35 130.94,-4.23 130.65,-4.12 130.33,-4.08 130.02,-4.05 128.80,-2.84 127.59,-1.63 125.25,-1.63 122.91,-1.63 120.46,-1.63 118.00,-1.63 115.81,-1.88 113.62,-2.12 111.27,-2.12 108.91,-2.13 106.74,-2.16 104.57,-2.19 102.09,-2.66 99.61,-3.14 97.05,-3.17 94.48,-3.21 92.29,-3.60 90.10,-3.99 88.23,-5.05 86.36,-6.11 84.63,-8.66 82.90,-11.21 81.42,-13.36 79.94,-15.51 77.90,-16.44 75.86,-17.38 74.42,-15.66 72.97,-13.95 71.45,-12.00 69.93,-10.06 67.84,-8.52 65.75,-6.97 63.13,-5.66 60.50,-4.35 57.59,-3.53 54.68,-2.71 52.11,-2.20 49.54,-1.69 46.67,-1.19 43.81,-0.69 40.87,-0.16 37.93,0.36 34.89,0.85 31.86,1.33 28.98,1.72 26.10,2.12 23.85,2.38 21.60,2.64 18.65,3.18 15.70,3.72 13.16,4.10 10.61,4.48 7.89,4.47 5.16,4.46 2.68,3.88 0.19,3.30 -0.20,3.27 -0.60,3.25 -0.98,3.13 -1.36,3.01 -1.70,2.80 -2.04,2.60 -2.32,2.31 -2.60,2.03 -2.81,1.69 -3.01,1.35 -3.13,0.97 -3.25,0.59 -3.27,0.19 -3.30,-0.20 -3.22,-0.59 -3.15,-0.98 -2.99,-1.35 -2.82,-1.71 -2.58,-2.02 -2.33,-2.34 -2.02,-2.58 -1.70,-2.83 -1.34,-2.99 -0.97,-3.16 -0.58,-3.23 -0.19,-3.30 -0.19,-3.30 L -0.19,-3.30 Z"/></g><g transform="translate(220.5 213.5) rotate(0 70.5 -19)" stroke="none"><path fill="#1971c2" d="M -0.19,-2.87 Q -0.19,-2.87 1.89,-4.05 3.98,-5.23 6.28,-5.34 8.57,-5.46 11.09,-5.53 13.60,-5.61 16.65,-5.49 19.69,-5.37 22.14,-5.35 24.58,-5.33 27.02,-5.49 29.47,-5.65 31.24,-7.39 33.02,-9.13 35.00,-11.11 36.97,-13.09 38.76,-14.86 40.55,-16.63 41.71,-18.73 42.86,-20.82 44.11,-22.83 45.37,-24.84 46.84,-26.85 48.32,-28.86 49.40,-30.78 50.48,-32.71 52.10,-34.49 53.71,-36.28 56.29,-38.06 58.88,-39.84 61.65,-40.94 64.43,-42.04 67.55,-42.66 70.68,-43.28 73.08,-43.33 75.48,-43.38 77.72,-43.12 79.96,-42.85 82.29,-41.48 84.61,-40.11 86.19,-38.34 87.77,-36.56 89.35,-34.15 90.93,-31.73 92.30,-29.56 93.66,-27.39 95.04,-24.99 96.41,-22.59 97.67,-20.39 98.93,-18.18 100.85,-16.53 102.78,-14.88 105.78,-14.57 108.79,-14.25 111.76,-14.27 114.74,-14.29 117.03,-14.32 119.31,-14.34 122.34,-14.46 125.37,-14.57 127.80,-14.34 130.24,-14.11 132.64,-13.87 135.04,-13.63 137.88,-11.34 140.72,-9.06 141.02,-8.95 141.31,-8.83 141.57,-8.65 141.83,-8.47 142.04,-8.23 142.25,-7.99 142.40,-7.71 142.54,-7.43 142.62,-7.12 142.69,-6.82 142.69,-6.50 142.69,-6.18 142.61,-5.88 142.53,-5.57 142.39,-5.29 142.24,-5.01 142.03,-4.77 141.81,-4.54 141.55,-4.36 141.29,-4.18 141.00,-4.07 140.70,-3.96 140.38,-3.92 140.07,-3.89 139.76,-3.93 139.44,-3.97 139.60,-3.94 139.75,-3.91 139.34,-4.03 138.94,-4.15 138.59,-4.39 138.24,-4.64 137.99,-4.98 137.74,-5.33 137.61,-5.73 137.48,-6.14 137.49,-6.56 137.50,-6.99 137.64,-7.39 137.79,-7.79 138.05,-8.12 138.31,-8.45 138.67,-8.69 139.02,-8.92 139.44,-9.02 139.85,-9.13 140.27,-9.10 140.70,-9.07 141.09,-8.90 141.48,-8.74 141.80,-8.46 142.12,-8.17 142.33,-7.81 142.54,-7.44 142.62,-7.02 142.71,-6.61 142.65,-6.18 142.60,-5.76 142.41,-5.38 142.23,-5.00 141.93,-4.69 141.63,-4.39 141.25,-4.20 140.87,-4.01 140.45,-3.95 140.03,-3.89 139.61,-3.96 139.20,-4.04 138.83,-4.25 138.45,-4.45 138.17,-4.77 137.88,-5.08 137.71,-5.47 137.54,-5.86 137.50,-6.28 137.46,-6.70 137.56,-7.12 137.66,-7.53 137.89,-7.89 138.11,-8.25 138.44,-8.52 138.77,-8.79 139.17,-8.94 139.57,-9.09 140.15,-9.07 140.72,-9.06 141.02,-8.95 141.31,-8.83 141.57,-8.65 141.83,-8.47 142.04,-8.23 142.25,-7.99 142.40,-7.71 142.54,-7.43 142.62,-7.12 142.69,-6.82 142.69,-6.50 142.69,-6.18 142.61,-5.88 142.53,-5.57 142.39,-5.29 142.24,-5.01 142.03,-4.77 141.81,-4.54 141.55,-4.36 141.29,-4.18 141.00,-4.07 140.70,-3.96 140.38,-3.92 140.07,-3.89 139.76,-3.93 139.44,-3.97 136.75,-2.70 134.05,-1.43 131.75,-1.76 129.45,-2.10 126.72,-2.52 123.98,-2.95 121.65,-2.80 119.31,-2.65 117.02,-2.68 114.72,-2.70 111.72,-2.73 108.72,-2.76 105.70,-2.88 102.69,-2.99 100.17,-3.80 97.65,-4.61 95.83,-5.95 94.02,-7.29 91.86,-9.52 89.71,-11.76 88.29,-14.06 86.88,-16.36 85.81,-18.54 84.74,-20.72 83.41,-22.76 82.08,-24.81 80.84,-27.02 79.59,-29.24 76.91,-30.91 74.22,-32.59 71.85,-32.62 69.49,-32.65 67.47,-31.92 65.44,-31.19 63.10,-29.67 60.76,-28.14 59.26,-26.09 57.77,-24.04 56.31,-21.88 54.84,-19.72 53.52,-17.62 52.21,-15.53 51.09,-13.69 49.98,-11.85 48.68,-10.06 47.38,-8.28 45.50,-6.39 43.62,-4.50 42.11,-3.00 40.60,-1.50 38.83,0.15 37.05,1.80 34.21,3.31 31.38,4.83 28.51,5.07 25.65,5.32 23.05,5.29 20.46,5.25 17.87,4.96 15.27,4.66 12.69,4.59 10.11,4.52 7.38,4.59 4.64,4.65 2.41,3.76 0.19,2.87 -0.15,2.85 -0.50,2.83 -0.83,2.73 -1.16,2.63 -1.46,2.45 -1.76,2.28 -2.01,2.03 -2.25,1.79 -2.44,1.49 -2.62,1.19 -2.72,0.86 -2.83,0.53 -2.85,0.19 -2.87,-0.15 -2.81,-0.49 -2.75,-0.84 -2.61,-1.15 -2.47,-1.47 -2.26,-1.75 -2.05,-2.02 -1.77,-2.24 -1.50,-2.45 -1.19,-2.60 -0.87,-2.74 -0.53,-2.81 -0.19,-2.87 -0.19,-2.87 L -0.19,-2.87 Z"/></g><g transform="translate(143 15.5) rotate(0 0.25 5.25)" stroke="none"><path fill="#1e1e1e" d="M 0.74,0 Q 0.74,0 1.08,0.86 1.42,1.72 1.43,2.95 1.43,4.18 1.43,5.13 1.43,6.09 1.22,8.05 1.02,10.02 1.04,10.13 1.06,10.23 1.05,10.34 1.03,10.44 0.99,10.54 0.94,10.63 0.87,10.71 0.79,10.79 0.70,10.83 0.60,10.88 0.50,10.90 0.39,10.91 0.29,10.89 0.18,10.87 0.09,10.82 0.00,10.77 -0.06,10.69 -0.14,10.61 -0.18,10.52 -0.22,10.42 -0.23,10.31 -0.24,10.21 -0.22,10.10 -0.19,10.00 -0.13,9.91 -0.08,9.82 -0.00,9.75 0.08,9.69 0.18,9.65 0.28,9.61 0.38,9.61 0.49,9.60 0.59,9.63 0.69,9.66 0.78,9.73 0.87,9.79 0.93,9.87 0.99,9.96 1.02,10.06 1.05,10.16 1.05,10.27 1.05,10.37 1.01,10.47 0.98,10.57 0.91,10.66 0.85,10.74 0.76,10.80 0.67,10.86 0.57,10.88 0.46,10.91 0.36,10.90 0.25,10.89 0.15,10.85 0.06,10.81 -0.01,10.74 -0.09,10.67 -0.15,10.58 -0.20,10.49 -0.20,10.49 -0.20,10.49 -0.81,8.29 -1.43,6.09 -1.43,5.13 -1.43,4.18 -1.43,2.95 -1.42,1.72 -1.08,0.86 -0.74,0 -0.73,-0.08 -0.72,-0.17 -0.69,-0.26 -0.66,-0.34 -0.61,-0.42 -0.56,-0.49 -0.49,-0.55 -0.42,-0.61 -0.34,-0.65 -0.26,-0.69 -0.17,-0.72 -0.09,-0.74 0.00,-0.74 0.09,-0.74 0.17,-0.72 0.26,-0.69 0.34,-0.65 0.42,-0.61 0.49,-0.55 0.56,-0.49 0.61,-0.42 0.66,-0.34 0.69,-0.26 0.72,-0.17 0.73,-0.08 0.74,0.00 0.74,0.00 L 0.74,0 Z"/></g><g transform="translate(143.5 19) rotate(0 10.5 -0.75)" stroke="none"><path fill="#1e1e1e" d="M -0.55,-0.55 Q -0.55,-0.55 -0.40,-1.05 -0.25,-1.56 0.56,-1.84 1.39,-2.13 2.60,-2.22 3.81,-2.31 5.01,-2.34 6.22,-2.38 8.11,-2.54 10.01,-2.71 11.29,-2.79 12.56,-2.86 13.54,-2.89 14.53,-2.92 15.09,-2.93 15.66,-2.95 16.38,-2.79 17.10,-2.62 19.50,-1.65 21.91,-0.67 22.01,-0.64 22.11,-0.61 22.20,-0.55 22.29,-0.49 22.35,-0.40 22.41,-0.32 22.45,-0.22 22.48,-0.11 22.48,-0.01 22.48,0.09 22.44,0.19 22.41,0.29 22.34,0.37 22.28,0.46 22.19,0.52 22.10,0.57 22.00,0.60 21.89,0.63 21.79,0.62 21.68,0.61 21.58,0.57 21.49,0.53 21.40,0.46 21.32,0.39 21.27,0.30 21.22,0.21 21.20,0.11 21.17,0.00 21.19,-0.09 21.20,-0.20 21.24,-0.29 21.29,-0.39 21.36,-0.47 21.44,-0.54 21.53,-0.59 21.63,-0.64 21.73,-0.66 21.84,-0.67 21.94,-0.65 22.05,-0.63 22.14,-0.58 22.23,-0.53 22.31,-0.46 22.38,-0.38 22.42,-0.28 22.46,-0.18 22.47,-0.08 22.49,0.02 22.46,0.12 22.44,0.23 22.38,0.32 22.33,0.41 22.24,0.47 22.16,0.54 22.06,0.58 21.96,0.62 21.86,0.62 21.75,0.63 21.75,0.63 21.75,0.63 19.66,0.50 17.57,0.38 16.63,0.18 15.69,-0.01 15.15,-0.00 14.61,0.00 13.66,0.03 12.71,0.05 11.48,0.11 10.24,0.17 8.25,0.30 6.27,0.44 5.10,0.45 3.94,0.47 2.67,0.44 1.40,0.41 0.97,0.48 0.55,0.55 0.47,0.60 0.40,0.66 0.31,0.70 0.23,0.74 0.13,0.76 0.04,0.77 -0.04,0.77 -0.14,0.76 -0.22,0.73 -0.31,0.71 -0.39,0.66 -0.48,0.61 -0.54,0.54 -0.61,0.48 -0.66,0.39 -0.71,0.31 -0.73,0.22 -0.76,0.14 -0.77,0.04 -0.77,-0.04 -0.76,-0.13 -0.74,-0.23 -0.70,-0.31 -0.66,-0.40 -0.60,-0.47 -0.55,-0.55 -0.55,-0.55 L -0.55,-0.55 Z"/></g><g transform="translate(162.5 10) rotate(0 0.75 6.5)" stroke="none"><path fill="#1e1e1e" d="M 0.40,-0.66 Q 0.40,-0.66 1.27,-0.50 2.15,-0.33 2.72,-0.02 3.30,0.29 3.83,0.71 4.36,1.13 4.76,2.18 5.16,3.23 4.93,4.29 4.70,5.36 4.09,6.30 3.47,7.25 2.65,8.31 1.84,9.37 1.19,10.12 0.54,10.88 -0.30,11.65 -1.14,12.42 -1.08,12.50 -1.02,12.59 -0.99,12.69 -0.96,12.80 -0.97,12.90 -0.97,13.01 -1.01,13.11 -1.05,13.21 -1.12,13.29 -1.18,13.37 -1.27,13.43 -1.36,13.48 -1.47,13.50 -1.57,13.53 -1.68,13.52 -1.78,13.51 -1.88,13.46 -1.98,13.42 -2.05,13.35 -2.13,13.27 -2.18,13.18 -2.23,13.09 -2.25,12.98 -2.27,12.88 -2.25,12.77 -2.24,12.67 -2.19,12.57 -2.14,12.48 -2.06,12.41 -1.99,12.33 -1.89,12.29 -1.79,12.24 -1.69,12.23 -1.58,12.22 -1.48,12.24 -1.37,12.26 -1.28,12.31 -1.19,12.37 -1.12,12.45 -1.05,12.53 -1.01,12.63 -0.97,12.73 -0.97,12.83 -0.96,12.94 -0.99,13.04 -1.01,13.14 -1.07,13.23 -1.13,13.32 -1.22,13.39 -1.30,13.45 -1.40,13.49 -1.50,13.52 -1.61,13.52 -1.71,13.52 -1.81,13.49 -1.92,13.46 -2.00,13.39 -2.09,13.33 -2.09,13.33 -2.09,13.33 -1.89,11.14 -1.69,8.96 -1.08,8.26 -0.48,7.57 0.29,6.56 1.07,5.55 1.50,5.02 1.92,4.48 1.93,3.61 1.94,2.74 1.33,2.40 0.71,2.06 0.15,1.36 -0.40,0.66 -0.47,0.61 -0.55,0.55 -0.60,0.48 -0.66,0.40 -0.70,0.32 -0.74,0.23 -0.76,0.14 -0.77,0.04 -0.77,-0.04 -0.76,-0.13 -0.74,-0.22 -0.71,-0.31 -0.66,-0.39 -0.61,-0.47 -0.54,-0.54 -0.48,-0.61 -0.40,-0.66 -0.32,-0.71 -0.23,-0.73 -0.14,-0.76 -0.04,-0.77 0.04,-0.77 0.13,-0.76 0.22,-0.74 0.31,-0.70 0.40,-0.66 0.40,-0.66 L 0.40,-0.66 Z"/></g><g transform="translate(174.5 11.5) rotate(0 4 8)" stroke="none"><path fill="#1e1e1e" d="M 0.93,-0.26 Q 0.93,-0.26 1.41,0.68 1.89,1.63 2.45,3.49 3.01,5.34 3.54,7.30 4.07,9.26 4.44,10.67 4.81,12.07 4.98,13.17 5.15,14.27 5.25,14.56 5.34,14.84 5.34,15.02 5.35,15.20 5.31,15.37 5.27,15.54 5.20,15.70 5.12,15.85 5.01,15.99 4.90,16.12 4.75,16.23 4.61,16.33 4.45,16.40 4.29,16.47 4.11,16.49 3.94,16.52 3.77,16.50 3.59,16.49 3.42,16.43 3.26,16.37 3.11,16.28 2.96,16.18 2.84,16.05 2.72,15.93 2.64,15.77 2.55,15.62 2.50,15.45 2.46,15.28 2.62,14.26 2.79,13.25 3.00,12.11 3.21,10.96 3.59,9.28 3.97,7.60 5.58,5.09 7.18,2.58 7.25,2.50 7.32,2.41 7.41,2.36 7.50,2.30 7.60,2.28 7.71,2.26 7.81,2.27 7.92,2.28 8.02,2.32 8.11,2.37 8.19,2.44 8.27,2.51 8.32,2.61 8.37,2.70 8.39,2.80 8.40,2.91 8.39,3.01 8.37,3.12 8.32,3.21 8.27,3.31 8.19,3.38 8.12,3.45 8.02,3.50 7.93,3.54 7.82,3.56 7.71,3.57 7.61,3.55 7.51,3.52 7.41,3.47 7.32,3.41 7.25,3.33 7.19,3.25 7.15,3.16 7.11,3.06 7.10,2.95 7.09,2.84 7.12,2.74 7.15,2.64 7.21,2.55 7.27,2.46 7.35,2.40 7.44,2.33 7.54,2.30 7.64,2.26 7.74,2.26 7.85,2.26 7.95,2.30 8.05,2.33 8.14,2.39 8.22,2.46 8.28,2.55 8.34,2.63 8.37,2.74 8.40,2.84 8.39,2.94 8.39,3.05 8.35,3.15 8.31,3.25 8.31,3.25 8.31,3.25 7.60,5.76 6.89,8.27 6.52,9.89 6.14,11.50 5.74,13.17 5.34,14.84 5.34,15.02 5.35,15.20 5.31,15.37 5.27,15.54 5.20,15.70 5.12,15.85 5.01,15.99 4.90,16.12 4.75,16.23 4.61,16.33 4.45,16.40 4.29,16.47 4.11,16.49 3.94,16.52 3.77,16.50 3.59,16.49 3.42,16.43 3.26,16.37 3.11,16.28 2.96,16.18 2.84,16.05 2.72,15.93 2.64,15.77 2.55,15.62 2.50,15.45 2.46,15.28 2.42,14.98 2.38,14.69 2.24,13.73 2.10,12.78 1.73,11.38 1.37,9.99 0.86,8.06 0.34,6.13 -0.19,4.26 -0.74,2.38 -0.83,1.32 -0.93,0.26 -0.95,0.15 -0.97,0.03 -0.96,-0.08 -0.95,-0.19 -0.91,-0.30 -0.87,-0.41 -0.81,-0.51 -0.75,-0.61 -0.66,-0.69 -0.58,-0.77 -0.47,-0.83 -0.37,-0.89 -0.26,-0.92 -0.15,-0.95 -0.03,-0.96 0.08,-0.96 0.19,-0.94 0.31,-0.92 0.41,-0.86 0.52,-0.81 0.61,-0.74 0.70,-0.67 0.77,-0.57 0.84,-0.48 0.88,-0.37 0.93,-0.26 0.93,-0.26 L 0.93,-0.26 Z"/></g><g transform="translate(185 34) rotate(0 0.25 -6.75)" stroke="none"><path fill="#1e1e1e" d="M -0.99,0 Q -0.99,0 -1.27,-1.58 -1.55,-3.16 -1.56,-4.41 -1.57,-5.65 -1.42,-6.99 -1.27,-8.33 -0.73,-10.44 -0.19,-12.56 -0.17,-12.66 -0.15,-12.76 -0.09,-12.86 -0.04,-12.95 0.03,-13.02 0.11,-13.09 0.21,-13.13 0.31,-13.17 0.41,-13.18 0.52,-13.18 0.62,-13.16 0.72,-13.13 0.81,-13.07 0.90,-13.01 0.97,-12.93 1.03,-12.85 1.07,-12.75 1.10,-12.64 1.10,-12.54 1.11,-12.43 1.07,-12.33 1.04,-12.23 0.98,-12.14 0.91,-12.06 0.83,-12.00 0.74,-11.94 0.64,-11.91 0.54,-11.88 0.43,-11.88 0.32,-11.89 0.23,-11.92 0.13,-11.96 0.04,-12.03 -0.03,-12.10 -0.08,-12.19 -0.14,-12.28 -0.16,-12.38 -0.19,-12.48 -0.18,-12.59 -0.17,-12.70 -0.13,-12.79 -0.08,-12.89 -0.01,-12.97 0.05,-13.05 0.14,-13.10 0.24,-13.15 0.34,-13.17 0.45,-13.19 0.55,-13.17 0.66,-13.15 0.75,-13.11 0.85,-13.06 0.92,-12.98 0.99,-12.91 1.04,-12.81 1.09,-12.71 1.10,-12.61 1.11,-12.50 1.11,-12.50 1.11,-12.50 1.48,-10.24 1.85,-7.97 1.71,-6.81 1.57,-5.65 1.56,-4.40 1.55,-3.16 1.27,-1.58 0.99,0 0.97,0.11 0.96,0.23 0.92,0.34 0.87,0.46 0.80,0.55 0.74,0.65 0.65,0.73 0.56,0.81 0.45,0.87 0.35,0.92 0.23,0.95 0.11,0.98 -0.00,0.98 -0.11,0.98 -0.23,0.95 -0.35,0.92 -0.45,0.87 -0.56,0.81 -0.65,0.73 -0.74,0.65 -0.81,0.55 -0.87,0.46 -0.92,0.34 -0.96,0.23 -0.97,0.11 -0.99,-0.00 -0.99,-0.00 L -0.99,0 Z"/></g><g transform="translate(260 104.5) rotate(0 0 -6.25)" stroke="none"><path fill="#1e1e1e" d="M -0.68,0 Q -0.68,0 -1.12,-1.00 -1.56,-2.01 -1.56,-3.15 -1.56,-4.30 -1.56,-5.51 -1.56,-6.71 -1.11,-8.87 -0.65,-11.03 -0.64,-11.11 -0.63,-11.19 -0.60,-11.26 -0.58,-11.34 -0.53,-11.40 -0.49,-11.47 -0.43,-11.52 -0.37,-11.57 -0.30,-11.61 -0.23,-11.65 -0.15,-11.67 -0.07,-11.69 0.00,-11.69 0.07,-11.69 0.15,-11.67 0.23,-11.65 0.30,-11.61 0.37,-11.57 0.43,-11.52 0.49,-11.47 0.53,-11.40 0.58,-11.34 0.60,-11.26 0.63,-11.19 0.64,-11.11 0.65,-11.03 0.63,-10.93 0.62,-10.82 0.57,-10.73 0.52,-10.64 0.44,-10.56 0.36,-10.49 0.27,-10.45 0.17,-10.40 0.07,-10.39 -0.03,-10.38 -0.13,-10.40 -0.24,-10.42 -0.33,-10.48 -0.42,-10.53 -0.49,-10.61 -0.56,-10.69 -0.60,-10.79 -0.64,-10.89 -0.64,-11.00 -0.65,-11.10 -0.62,-11.21 -0.59,-11.31 -0.53,-11.40 -0.47,-11.48 -0.39,-11.55 -0.30,-11.61 -0.20,-11.65 -0.10,-11.68 0.00,-11.68 0.10,-11.68 0.20,-11.65 0.30,-11.61 0.39,-11.55 0.47,-11.48 0.53,-11.40 0.59,-11.31 0.62,-11.21 0.65,-11.10 0.64,-11.00 0.64,-10.89 0.60,-10.79 0.56,-10.69 0.49,-10.61 0.42,-10.53 0.33,-10.48 0.24,-10.42 0.13,-10.40 0.03,-10.38 -0.07,-10.39 -0.17,-10.40 -0.27,-10.45 -0.36,-10.49 -0.44,-10.56 -0.52,-10.64 -0.57,-10.73 -0.62,-10.82 -0.63,-10.93 -0.65,-11.03 -0.65,-11.03 -0.65,-11.03 -0.64,-11.11 -0.63,-11.19 -0.60,-11.26 -0.58,-11.34 -0.53,-11.40 -0.49,-11.47 -0.43,-11.52 -0.37,-11.57 -0.30,-11.61 -0.23,-11.65 -0.15,-11.67 -0.07,-11.69 -0.00,-11.69 0.07,-11.69 0.15,-11.67 0.23,-11.65 0.30,-11.61 0.37,-11.57 0.43,-11.52 0.49,-11.47 0.53,-11.40 0.58,-11.34 0.60,-11.26 0.63,-11.19 0.64,-11.11 0.65,-11.03 1.11,-8.87 1.56,-6.71 1.56,-5.51 1.56,-4.30 1.56,-3.15 1.56,-2.01 1.12,-1.00 0.68,0 0.67,0.08 0.66,0.16 0.63,0.24 0.60,0.31 0.55,0.38 0.51,0.45 0.44,0.50 0.38,0.56 0.31,0.59 0.24,0.63 0.16,0.65 0.08,0.67 -0.00,0.67 -0.08,0.67 -0.16,0.65 -0.24,0.63 -0.31,0.59 -0.38,0.56 -0.44,0.50 -0.51,0.45 -0.55,0.38 -0.60,0.31 -0.63,0.24 -0.66,0.16 -0.67,0.08 -0.68,-0.00 -0.68,-0.00 L -0.68,0 Z"/></g><g transform="translate(260 96) rotate(0 13.5 1.5)" stroke="none"><path fill="#1e1e1e" d="M 0.49,-0.49 Q 0.49,-0.49 0.97,-0.48 1.45,-0.47 2.16,-0.49 2.87,-0.51 3.74,-0.35 4.61,-0.18 5.17,-0.12 5.73,-0.07 6.38,-0.04 7.03,-0.02 7.88,-0.01 8.73,-0.00 9.38,-0.00 10.03,-0.00 10.89,-0.00 11.74,0.00 12.39,0.00 13.05,0.00 13.79,0.16 14.53,0.33 15.08,0.37 15.64,0.41 16.18,0.43 16.72,0.45 17.67,0.47 18.63,0.48 19.91,0.64 21.18,0.79 22.02,0.86 22.86,0.93 25.01,1.63 27.16,2.34 27.25,2.40 27.33,2.47 27.39,2.56 27.44,2.65 27.47,2.75 27.49,2.86 27.48,2.96 27.47,3.07 27.43,3.16 27.39,3.26 27.32,3.34 27.25,3.42 27.15,3.47 27.06,3.52 26.96,3.54 26.85,3.56 26.75,3.55 26.64,3.53 26.55,3.48 26.45,3.44 26.38,3.36 26.30,3.28 26.26,3.19 26.21,3.09 26.19,2.99 26.18,2.88 26.20,2.78 26.22,2.67 26.28,2.58 26.33,2.49 26.41,2.42 26.49,2.35 26.59,2.31 26.68,2.27 26.79,2.26 26.90,2.25 27.00,2.28 27.10,2.30 27.19,2.36 27.28,2.42 27.35,2.50 27.41,2.59 27.45,2.69 27.48,2.79 27.49,2.89 27.49,3.00 27.46,3.10 27.42,3.20 27.36,3.29 27.30,3.37 27.21,3.43 27.13,3.49 27.02,3.53 26.92,3.56 26.82,3.55 26.71,3.55 26.61,3.51 26.51,3.47 26.51,3.47 26.51,3.47 24.60,3.73 22.70,3.98 21.65,3.87 20.61,3.77 19.60,3.63 18.60,3.50 17.59,3.48 16.58,3.46 15.97,3.43 15.37,3.40 14.19,3.20 13.02,2.99 12.37,2.99 11.73,2.99 10.87,2.98 10.01,2.98 9.35,2.97 8.69,2.97 7.79,2.95 6.90,2.93 6.15,2.90 5.40,2.86 4.71,2.77 4.02,2.69 3.30,2.52 2.58,2.36 1.97,2.29 1.37,2.21 0.53,1.91 -0.30,1.62 -0.40,1.05 -0.49,0.49 -0.55,0.43 -0.60,0.36 -0.63,0.28 -0.67,0.20 -0.68,0.12 -0.70,0.04 -0.69,-0.04 -0.69,-0.12 -0.66,-0.20 -0.64,-0.28 -0.59,-0.36 -0.55,-0.43 -0.49,-0.49 -0.43,-0.55 -0.36,-0.59 -0.28,-0.64 -0.20,-0.66 -0.12,-0.69 -0.04,-0.69 0.04,-0.70 0.12,-0.68 0.20,-0.67 0.28,-0.63 0.36,-0.60 0.43,-0.55 0.49,-0.49 0.49,-0.49 L 0.49,-0.49 Z"/></g><g transform="translate(283.5 91) rotate(0 0.25 9)" stroke="none"><path fill="#1e1e1e" d="M 0.93,0 Q 0.93,0 1.20,0.53 1.47,1.06 2.02,1.68 2.56,2.30 3.13,2.91 3.70,3.51 4.24,4.07 4.78,4.62 5.12,5.15 5.46,5.67 5.64,6.39 5.83,7.11 5.55,8.24 5.28,9.38 4.31,10.54 3.35,11.70 2.60,12.63 1.85,13.56 1.06,14.43 0.27,15.30 -1.28,16.41 -2.83,17.52 -2.87,17.62 -2.90,17.72 -2.96,17.81 -3.03,17.89 -3.11,17.95 -3.20,18.01 -3.30,18.04 -3.41,18.07 -3.51,18.07 -3.62,18.06 -3.72,18.02 -3.82,17.98 -3.90,17.92 -3.98,17.85 -4.04,17.76 -4.09,17.67 -4.11,17.56 -4.14,17.46 -4.13,17.35 -4.12,17.25 -4.07,17.15 -4.03,17.06 -3.96,16.98 -3.89,16.90 -3.79,16.85 -3.70,16.80 -3.59,16.78 -3.49,16.76 -3.38,16.78 -3.28,16.80 -3.18,16.84 -3.09,16.89 -3.02,16.97 -2.94,17.05 -2.90,17.14 -2.85,17.24 -2.84,17.34 -2.83,17.45 -2.85,17.55 -2.87,17.66 -2.93,17.75 -2.98,17.84 -3.06,17.91 -3.14,17.98 -3.24,18.02 -3.34,18.06 -3.44,18.07 -3.55,18.07 -3.65,18.05 -3.75,18.02 -3.84,17.96 -3.93,17.90 -4.00,17.82 -4.06,17.73 -4.10,17.63 -4.13,17.53 -4.13,17.42 -4.13,17.32 -4.13,17.32 -4.13,17.32 -3.07,15.26 -2.01,13.21 -1.28,12.40 -0.54,11.60 0.26,10.61 1.07,9.62 1.76,8.99 2.44,8.35 2.52,7.52 2.60,6.70 2.05,6.13 1.50,5.56 0.86,4.87 0.22,4.17 -0.26,3.55 -0.74,2.93 -1.10,2.08 -1.47,1.23 -1.20,0.61 -0.93,0 -0.92,-0.11 -0.91,-0.22 -0.87,-0.33 -0.83,-0.43 -0.76,-0.52 -0.70,-0.62 -0.61,-0.69 -0.53,-0.77 -0.43,-0.82 -0.33,-0.87 -0.22,-0.90 -0.11,-0.93 0.00,-0.93 0.11,-0.93 0.22,-0.90 0.33,-0.87 0.43,-0.82 0.53,-0.77 0.61,-0.69 0.70,-0.62 0.76,-0.52 0.83,-0.43 0.87,-0.33 0.91,-0.22 0.92,-0.11 0.93,0.00 0.93,0.00 L 0.93,0 Z"/></g><g transform="translate(301 89.5) rotate(0 4 8.25)" stroke="none"><path fill="#1e1e1e" d="M 0.90,-0.11 Q 0.90,-0.11 1.32,0.99 1.74,2.11 2.06,3.03 2.39,3.96 2.96,5.54 3.54,7.12 4.07,8.51 4.60,9.89 4.99,11.27 5.39,12.65 5.68,13.61 5.97,14.58 6.25,15.01 6.52,15.44 6.56,15.62 6.59,15.79 6.58,15.97 6.56,16.15 6.51,16.32 6.45,16.50 6.36,16.65 6.27,16.80 6.14,16.93 6.01,17.06 5.85,17.15 5.70,17.24 5.53,17.29 5.35,17.35 5.17,17.36 4.99,17.37 4.82,17.33 4.64,17.30 4.47,17.22 4.31,17.15 4.17,17.04 4.03,16.92 3.92,16.78 3.81,16.64 3.73,16.47 3.66,16.31 3.79,15.52 3.93,14.73 4.22,13.71 4.52,12.69 4.78,11.29 5.05,9.89 5.31,8.54 5.58,7.19 6.43,4.78 7.28,2.37 7.31,2.27 7.34,2.17 7.40,2.09 7.47,2.00 7.55,1.94 7.64,1.88 7.74,1.85 7.84,1.82 7.95,1.82 8.06,1.82 8.16,1.86 8.25,1.90 8.34,1.97 8.42,2.03 8.48,2.12 8.53,2.21 8.56,2.32 8.58,2.42 8.57,2.53 8.56,2.63 8.52,2.73 8.48,2.83 8.41,2.91 8.33,2.98 8.24,3.04 8.15,3.09 8.04,3.11 7.94,3.13 7.83,3.11 7.73,3.09 7.63,3.05 7.54,3.00 7.46,2.92 7.39,2.85 7.34,2.75 7.30,2.66 7.28,2.55 7.27,2.45 7.29,2.34 7.31,2.24 7.37,2.14 7.42,2.05 7.50,1.98 7.58,1.91 7.68,1.87 7.77,1.83 7.88,1.82 7.99,1.81 8.09,1.84 8.19,1.87 8.28,1.93 8.37,1.98 8.44,2.07 8.50,2.15 8.54,2.25 8.57,2.35 8.57,2.46 8.58,2.56 8.58,2.56 8.58,2.56 8.60,5.17 8.62,7.79 8.36,9.13 8.09,10.48 7.79,12.03 7.48,13.59 7.00,14.51 6.52,15.44 6.56,15.61 6.59,15.79 6.58,15.97 6.56,16.15 6.51,16.32 6.45,16.50 6.36,16.65 6.27,16.80 6.14,16.93 6.01,17.06 5.85,17.15 5.70,17.24 5.53,17.29 5.35,17.35 5.17,17.36 4.99,17.37 4.82,17.33 4.64,17.30 4.47,17.22 4.31,17.15 4.17,17.04 4.03,16.92 3.92,16.78 3.81,16.64 3.73,16.47 3.66,16.31 3.39,15.90 3.13,15.48 2.82,14.47 2.51,13.46 2.16,12.21 1.81,10.96 1.27,9.55 0.74,8.13 0.15,6.51 -0.42,4.88 -0.79,3.68 -1.17,2.48 -1.03,1.30 -0.90,0.11 -0.90,0.00 -0.90,-0.10 -0.87,-0.21 -0.85,-0.32 -0.80,-0.41 -0.75,-0.51 -0.67,-0.59 -0.60,-0.68 -0.51,-0.74 -0.42,-0.80 -0.32,-0.84 -0.22,-0.88 -0.11,-0.89 -0.00,-0.91 0.10,-0.89 0.21,-0.88 0.31,-0.84 0.42,-0.80 0.51,-0.74 0.60,-0.68 0.67,-0.60 0.74,-0.52 0.80,-0.42 0.85,-0.32 0.87,-0.21 0.90,-0.11 0.90,-0.11 L 0.90,-0.11 Z"/></g><g transform="translate(313.5 103) rotate(0 2.5 4.75)" stroke="none"><path fill="#1e1e1e" d="M 0.58,-0.77 Q 0.58,-0.77 1.26,-0.48 1.95,-0.19 2.45,0.38 2.96,0.95 3.22,1.44 3.47,1.92 3.53,2.73 3.59,3.54 2.93,4.49 2.26,5.44 1.66,5.92 1.06,6.39 2.25,6.58 3.45,6.77 4.79,7.78 6.13,8.79 6.21,8.87 6.28,8.94 6.33,9.03 6.38,9.13 6.40,9.23 6.42,9.34 6.40,9.44 6.39,9.55 6.34,9.64 6.29,9.73 6.21,9.81 6.13,9.88 6.04,9.93 5.94,9.97 5.83,9.98 5.73,9.99 5.63,9.97 5.52,9.95 5.43,9.89 5.34,9.84 5.27,9.76 5.20,9.68 5.16,9.58 5.12,9.48 5.12,9.38 5.11,9.27 5.14,9.17 5.17,9.06 5.23,8.98 5.28,8.89 5.37,8.82 5.45,8.76 5.55,8.72 5.65,8.69 5.76,8.69 5.87,8.69 5.97,8.72 6.07,8.76 6.15,8.82 6.24,8.89 6.30,8.97 6.36,9.06 6.39,9.16 6.42,9.27 6.41,9.37 6.40,9.48 6.37,9.58 6.33,9.68 6.26,9.76 6.19,9.84 6.10,9.89 6.01,9.95 5.90,9.97 5.80,9.99 5.69,9.98 5.59,9.97 5.49,9.93 5.40,9.88 5.40,9.88 5.40,9.88 3.94,9.69 2.48,9.49 1.77,9.24 1.06,8.98 0.37,8.70 -0.30,8.42 -0.96,7.87 -1.62,7.32 -1.40,6.29 -1.17,5.26 -0.85,4.83 -0.53,4.40 0.25,3.73 1.03,3.05 0.69,2.48 0.34,1.92 -0.11,1.34 -0.58,0.77 -0.66,0.69 -0.75,0.61 -0.81,0.51 -0.88,0.41 -0.91,0.30 -0.95,0.19 -0.96,0.07 -0.97,-0.03 -0.95,-0.15 -0.93,-0.27 -0.89,-0.37 -0.84,-0.48 -0.77,-0.58 -0.70,-0.67 -0.61,-0.74 -0.52,-0.82 -0.41,-0.87 -0.30,-0.92 -0.19,-0.94 -0.07,-0.97 0.03,-0.96 0.15,-0.96 0.26,-0.92 0.38,-0.89 0.48,-0.83 0.58,-0.77 0.58,-0.77 L 0.58,-0.77 Z"/></g><g transform="translate(327.5 89.5) rotate(0 4 10)" stroke="none"><path fill="#1e1e1e" d="M 0.81,-0.58 Q 0.81,-0.58 1.75,0.26 2.69,1.11 3.39,1.91 4.08,2.72 4.81,3.49 5.53,4.26 6.31,5.21 7.09,6.16 7.68,6.81 8.27,7.46 8.64,8.17 9.01,8.88 8.90,10.06 8.79,11.24 8.22,12.44 7.66,13.65 6.68,15.18 5.70,16.71 3.98,18.41 2.27,20.10 2.18,20.17 2.10,20.24 2.00,20.28 1.91,20.32 1.80,20.32 1.69,20.33 1.59,20.30 1.49,20.27 1.40,20.21 1.31,20.15 1.25,20.07 1.19,19.98 1.15,19.88 1.12,19.78 1.12,19.67 1.12,19.57 1.16,19.47 1.19,19.37 1.25,19.28 1.32,19.20 1.41,19.14 1.50,19.08 1.60,19.05 1.70,19.02 1.81,19.03 1.91,19.04 2.01,19.08 2.11,19.12 2.19,19.19 2.27,19.25 2.33,19.35 2.38,19.44 2.40,19.54 2.42,19.65 2.41,19.75 2.40,19.86 2.35,19.95 2.31,20.05 2.24,20.13 2.16,20.20 2.07,20.25 1.97,20.30 1.87,20.32 1.76,20.33 1.66,20.32 1.55,20.30 1.46,20.25 1.37,20.20 1.30,20.12 1.22,20.04 1.18,19.95 1.13,19.85 1.12,19.74 1.11,19.64 1.14,19.53 1.16,19.43 1.21,19.34 1.27,19.25 1.27,19.25 1.27,19.25 2.16,17.12 3.05,15.00 3.94,13.63 4.83,12.27 5.38,10.90 5.93,9.53 5.31,8.83 4.69,8.13 3.97,7.25 3.26,6.38 2.49,5.56 1.73,4.74 0.95,3.82 0.17,2.91 -0.31,1.74 -0.81,0.58 -0.87,0.47 -0.92,0.36 -0.95,0.25 -0.98,0.13 -0.99,0.01 -0.99,-0.10 -0.96,-0.22 -0.93,-0.33 -0.88,-0.44 -0.83,-0.55 -0.75,-0.64 -0.67,-0.73 -0.57,-0.80 -0.47,-0.87 -0.36,-0.92 -0.25,-0.96 -0.13,-0.98 -0.01,-0.99 0.10,-0.98 0.22,-0.97 0.33,-0.93 0.44,-0.89 0.55,-0.82 0.65,-0.75 0.73,-0.66 0.81,-0.58 0.81,-0.58 L 0.81,-0.58 Z"/></g><g transform="translate(343 91) rotate(0 5.5 5.75)" stroke="none"><path fill="#1e1e1e" d="M 0.78,-0.43 Q 0.78,-0.43 1.78,0.70 2.77,1.84 3.39,3.16 4.01,4.47 4.43,5.65 4.86,6.83 5.46,8.45 6.06,10.06 5.53,10.46 5.01,10.86 5.25,10.34 5.50,9.81 5.92,8.62 6.33,7.43 6.96,5.58 7.59,3.74 8.96,1.04 10.33,-1.65 10.40,-1.73 10.46,-1.82 10.55,-1.88 10.64,-1.94 10.74,-1.96 10.84,-1.99 10.95,-1.98 11.06,-1.98 11.15,-1.94 11.25,-1.90 11.33,-1.83 11.41,-1.76 11.47,-1.67 11.52,-1.57 11.54,-1.47 11.57,-1.37 11.55,-1.26 11.54,-1.16 11.50,-1.06 11.45,-0.96 11.38,-0.89 11.30,-0.81 11.21,-0.76 11.11,-0.71 11.01,-0.70 10.90,-0.68 10.80,-0.70 10.69,-0.72 10.60,-0.77 10.51,-0.82 10.44,-0.90 10.36,-0.97 10.32,-1.07 10.28,-1.17 10.26,-1.27 10.25,-1.38 10.28,-1.48 10.30,-1.59 10.36,-1.68 10.41,-1.77 10.49,-1.84 10.58,-1.90 10.68,-1.94 10.77,-1.98 10.88,-1.98 10.99,-1.99 11.09,-1.96 11.19,-1.93 11.28,-1.87 11.37,-1.81 11.43,-1.72 11.49,-1.64 11.53,-1.54 11.56,-1.44 11.56,-1.33 11.56,-1.23 11.52,-1.12 11.49,-1.02 11.49,-1.02 11.49,-1.02 11.00,1.85 10.52,4.74 9.88,6.61 9.23,8.48 8.69,9.94 8.14,11.40 7.34,12.39 6.54,13.38 5.88,13.53 5.23,13.67 4.20,12.40 3.16,11.13 2.56,9.50 1.96,7.86 1.59,6.82 1.23,5.77 0.66,4.55 0.10,3.32 -0.34,1.88 -0.78,0.43 -0.83,0.33 -0.87,0.23 -0.88,0.12 -0.90,0.02 -0.89,-0.08 -0.88,-0.19 -0.84,-0.29 -0.80,-0.40 -0.74,-0.49 -0.68,-0.58 -0.61,-0.65 -0.53,-0.73 -0.43,-0.78 -0.34,-0.83 -0.23,-0.86 -0.13,-0.89 -0.02,-0.89 0.08,-0.89 0.19,-0.87 0.30,-0.85 0.39,-0.80 0.49,-0.75 0.57,-0.68 0.66,-0.61 0.72,-0.52 0.78,-0.43 0.78,-0.43 L 0.78,-0.43 Z"/></g><g transform="translate(355 108.5) rotate(0 0.5 -5.5)" stroke="none"><path fill="#1e1e1e" d="M -0.94,0 Q -0.94,0 -1.24,-1.15 -1.54,-2.30 -1.39,-3.34 -1.24,-4.37 -1.19,-5.27 -1.14,-6.17 -0.94,-7.00 -0.73,-7.82 -0.20,-9.21 0.32,-10.60 0.34,-10.70 0.36,-10.81 0.42,-10.90 0.47,-10.99 0.55,-11.06 0.63,-11.13 0.73,-11.17 0.83,-11.21 0.93,-11.21 1.04,-11.22 1.14,-11.19 1.25,-11.17 1.33,-11.11 1.42,-11.05 1.49,-10.96 1.55,-10.88 1.59,-10.78 1.62,-10.68 1.62,-10.57 1.62,-10.47 1.59,-10.37 1.56,-10.27 1.50,-10.18 1.43,-10.10 1.34,-10.04 1.26,-9.97 1.15,-9.95 1.05,-9.92 0.95,-9.92 0.84,-9.93 0.74,-9.96 0.64,-10.00 0.56,-10.07 0.48,-10.14 0.42,-10.23 0.37,-10.32 0.34,-10.42 0.32,-10.53 0.33,-10.63 0.34,-10.74 0.39,-10.83 0.43,-10.93 0.50,-11.01 0.57,-11.09 0.67,-11.14 0.76,-11.19 0.87,-11.21 0.97,-11.22 1.07,-11.21 1.18,-11.19 1.27,-11.14 1.37,-11.09 1.44,-11.02 1.52,-10.94 1.56,-10.85 1.61,-10.75 1.62,-10.64 1.63,-10.54 1.63,-10.54 1.63,-10.54 1.93,-8.82 2.23,-7.10 2.10,-6.53 1.96,-5.96 1.89,-4.93 1.82,-3.90 1.68,-3.09 1.54,-2.29 1.24,-1.14 0.94,0 0.92,0.11 0.91,0.22 0.87,0.33 0.83,0.43 0.76,0.53 0.70,0.62 0.61,0.69 0.53,0.77 0.43,0.82 0.33,0.87 0.22,0.90 0.11,0.93 -0.00,0.93 -0.11,0.93 -0.22,0.90 -0.33,0.87 -0.43,0.82 -0.53,0.77 -0.61,0.69 -0.70,0.62 -0.76,0.53 -0.83,0.43 -0.87,0.33 -0.91,0.22 -0.92,0.11 -0.94,-0.00 -0.94,-0.00 L -0.94,0 Z"/></g><g transform="translate(165 180.5) rotate(0 -0.5 -5.25)" stroke="none"><path fill="#1e1e1e" d="M -0.72,0.10 Q -0.72,0.10 -1.26,-0.84 -1.80,-1.79 -1.87,-3.00 -1.94,-4.22 -1.79,-6.98 -1.63,-9.75 -1.62,-9.85 -1.62,-9.96 -1.58,-10.06 -1.54,-10.16 -1.47,-10.24 -1.40,-10.32 -1.31,-10.37 -1.22,-10.43 -1.11,-10.45 -1.01,-10.47 -0.91,-10.46 -0.80,-10.45 -0.70,-10.40 -0.61,-10.36 -0.53,-10.29 -0.45,-10.21 -0.40,-10.12 -0.35,-10.03 -0.34,-9.92 -0.32,-9.82 -0.34,-9.71 -0.35,-9.61 -0.40,-9.51 -0.45,-9.42 -0.53,-9.35 -0.61,-9.27 -0.70,-9.23 -0.80,-9.18 -0.91,-9.17 -1.01,-9.16 -1.12,-9.18 -1.22,-9.21 -1.31,-9.26 -1.40,-9.32 -1.47,-9.40 -1.54,-9.48 -1.58,-9.58 -1.62,-9.68 -1.62,-9.78 -1.63,-9.89 -1.60,-9.99 -1.57,-10.09 -1.51,-10.18 -1.45,-10.27 -1.37,-10.33 -1.28,-10.40 -1.18,-10.43 -1.08,-10.47 -0.98,-10.47 -0.87,-10.46 -0.77,-10.43 -0.67,-10.40 -0.58,-10.33 -0.50,-10.27 -0.44,-10.18 -0.38,-10.09 -0.35,-9.99 -0.32,-9.89 -0.32,-9.89 -0.32,-9.89 0.39,-7.14 1.12,-4.38 1.17,-3.30 1.23,-2.22 0.97,-1.16 0.72,-0.10 0.73,-0.01 0.73,0.07 0.71,0.16 0.69,0.24 0.65,0.32 0.61,0.40 0.55,0.47 0.50,0.54 0.42,0.59 0.35,0.64 0.27,0.67 0.19,0.71 0.10,0.72 0.01,0.73 -0.07,0.72 -0.16,0.71 -0.24,0.68 -0.32,0.65 -0.40,0.61 -0.47,0.56 -0.53,0.49 -0.59,0.43 -0.64,0.35 -0.68,0.27 -0.70,0.18 -0.72,0.10 -0.72,0.10 L -0.72,0.10 Z"/></g><g transform="translate(162 173) rotate(0 -9.5 -1.5)" stroke="none"><path fill="#1e1e1e" d="M 0,0.79 Q 0,0.79 -0.71,1.15 -1.43,1.50 -2.74,1.51 -4.06,1.52 -4.90,1.52 -5.75,1.52 -6.68,1.52 -7.61,1.52 -8.30,1.52 -8.98,1.52 -10.32,1.52 -11.66,1.52 -12.47,1.52 -13.29,1.52 -14.13,1.52 -14.97,1.52 -15.54,1.52 -16.10,1.52 -16.61,1.52 -17.12,1.52 -17.30,1.50 -17.49,1.48 -17.66,1.41 -17.83,1.35 -17.98,1.24 -18.13,1.14 -18.26,1.00 -18.38,0.86 -18.46,0.70 -18.55,0.54 -18.59,0.36 -18.64,0.18 -18.64,-0.00 -18.64,-0.18 -18.59,-0.36 -18.55,-0.54 -18.46,-0.70 -18.38,-0.86 -18.26,-1.00 -18.13,-1.14 -17.98,-1.24 -17.83,-1.35 -17.66,-1.41 -17.49,-1.48 -17.30,-1.50 -17.12,-1.52 -17.65,-1.56 -18.19,-1.60 -17.77,-2.40 -17.35,-3.21 -16.26,-4.61 -15.18,-6.01 -14.62,-6.81 -14.07,-7.61 -13.67,-7.95 -13.27,-8.29 -13.15,-8.42 -13.03,-8.56 -12.89,-8.66 -12.75,-8.76 -12.58,-8.82 -12.42,-8.88 -12.25,-8.90 -12.07,-8.92 -11.90,-8.90 -11.72,-8.88 -11.56,-8.82 -11.40,-8.76 -11.25,-8.66 -11.11,-8.56 -10.99,-8.43 -10.87,-8.30 -10.79,-8.14 -10.71,-7.99 -10.67,-7.82 -10.63,-7.65 -10.63,-7.47 -10.63,-7.30 -10.67,-7.13 -10.71,-6.96 -10.79,-6.80 -10.87,-6.64 -11.17,-6.13 -11.47,-5.61 -12.06,-4.99 -12.65,-4.36 -13.28,-3.59 -13.91,-2.82 -14.65,-2.00 -15.40,-1.19 -15.85,-0.71 -16.31,-0.23 -16.81,0.09 -17.31,0.41 -16.51,0.33 -15.72,0.26 -15.07,0.75 -14.42,1.24 -12.36,2.69 -10.29,4.14 -10.20,4.20 -10.11,4.26 -10.05,4.34 -9.98,4.43 -9.95,4.53 -9.91,4.63 -9.91,4.73 -9.91,4.84 -9.94,4.94 -9.97,5.04 -10.04,5.13 -10.10,5.21 -10.19,5.27 -10.28,5.33 -10.38,5.36 -10.48,5.39 -10.59,5.39 -10.69,5.38 -10.79,5.35 -10.89,5.31 -10.97,5.24 -11.05,5.17 -11.11,5.08 -11.17,4.99 -11.19,4.89 -11.21,4.78 -11.20,4.68 -11.19,4.57 -11.15,4.48 -11.11,4.38 -11.03,4.30 -10.96,4.22 -10.87,4.17 -10.77,4.12 -10.67,4.10 -10.56,4.08 -10.46,4.10 -10.35,4.12 -10.26,4.17 -10.17,4.21 -10.09,4.29 -10.02,4.37 -9.97,4.46 -9.93,4.56 -9.91,4.67 -9.90,4.77 -9.92,4.87 -9.95,4.98 -10.00,5.07 -10.05,5.16 -10.13,5.23 -10.21,5.30 -10.31,5.34 -10.41,5.38 -10.52,5.39 -10.62,5.40 -10.73,5.37 -10.83,5.34 -10.83,5.34 -10.83,5.34 -13.50,4.42 -16.18,3.50 -16.62,3.14 -17.06,2.79 -17.83,2.34 -18.59,1.90 -19.11,1.12 -19.62,0.35 -19.44,-0.54 -19.27,-1.43 -18.82,-1.80 -18.36,-2.17 -17.92,-2.64 -17.48,-3.10 -16.80,-3.85 -16.11,-4.60 -15.42,-5.47 -14.72,-6.33 -13.99,-7.31 -13.27,-8.29 -13.15,-8.42 -13.04,-8.56 -12.89,-8.66 -12.75,-8.76 -12.58,-8.82 -12.42,-8.88 -12.25,-8.90 -12.07,-8.92 -11.90,-8.90 -11.72,-8.88 -11.56,-8.82 -11.40,-8.76 -11.25,-8.66 -11.11,-8.56 -10.99,-8.43 -10.87,-8.30 -10.79,-8.14 -10.71,-7.99 -10.67,-7.82 -10.63,-7.65 -10.63,-7.47 -10.63,-7.30 -10.67,-7.13 -10.71,-6.96 -10.79,-6.80 -10.87,-6.65 -11.25,-6.28 -11.63,-5.91 -12.22,-5.03 -12.82,-4.16 -13.77,-2.97 -14.72,-1.78 -15.02,-1.24 -15.33,-0.69 -16.23,0.41 -17.12,1.52 -17.30,1.50 -17.49,1.48 -17.66,1.41 -17.83,1.35 -17.98,1.24 -18.13,1.14 -18.26,1.00 -18.38,0.86 -18.46,0.70 -18.55,0.54 -18.59,0.36 -18.64,0.18 -18.64,0.00 -18.64,-0.18 -18.59,-0.36 -18.55,-0.54 -18.46,-0.70 -18.38,-0.86 -18.26,-1.00 -18.13,-1.14 -17.98,-1.24 -17.83,-1.35 -17.66,-1.41 -17.49,-1.48 -17.30,-1.50 -17.12,-1.52 -16.61,-1.52 -16.10,-1.52 -15.54,-1.52 -14.97,-1.52 -14.13,-1.52 -13.29,-1.52 -12.47,-1.52 -11.66,-1.52 -10.32,-1.52 -8.98,-1.52 -8.30,-1.52 -7.61,-1.52 -6.68,-1.52 -5.75,-1.52 -4.90,-1.52 -4.06,-1.52 -2.74,-1.51 -1.43,-1.50 -0.71,-1.15 0,-0.79 0.09,-0.78 0.19,-0.77 0.27,-0.73 0.36,-0.70 0.44,-0.64 0.52,-0.59 0.59,-0.52 0.65,-0.45 0.69,-0.36 0.74,-0.28 0.76,-0.18 0.78,-0.09 0.78,0.00 0.78,0.09 0.76,0.18 0.74,0.28 0.69,0.36 0.65,0.45 0.59,0.52 0.52,0.59 0.44,0.64 0.36,0.70 0.27,0.73 0.19,0.77 0.09,0.78 -0.00,0.79 -0.00,0.79 L 0,0.79 Z"/></g><g transform="translate(164.5 163.5) rotate(0 5.75 5.25)" stroke="none"><path fill="#1e1e1e" d="M 0.72,-0.36 Q 0.72,-0.36 1.38,0.38 2.04,1.13 2.62,2.00 3.20,2.87 3.78,3.88 4.35,4.90 5.15,6.14 5.94,7.39 6.40,8.04 6.86,8.70 6.97,7.71 7.08,6.72 7.69,5.35 8.30,3.98 9.32,2.12 10.34,0.26 10.36,0.15 10.37,0.05 10.42,-0.04 10.47,-0.14 10.54,-0.21 10.62,-0.28 10.71,-0.33 10.81,-0.38 10.92,-0.39 11.02,-0.41 11.12,-0.39 11.23,-0.37 11.32,-0.31 11.41,-0.26 11.48,-0.18 11.56,-0.10 11.60,-0.00 11.64,0.08 11.65,0.19 11.66,0.30 11.63,0.40 11.60,0.50 11.55,0.59 11.49,0.68 11.41,0.75 11.32,0.81 11.22,0.85 11.12,0.89 11.02,0.89 10.91,0.89 10.81,0.86 10.71,0.83 10.62,0.76 10.54,0.70 10.47,0.62 10.41,0.53 10.38,0.43 10.35,0.33 10.35,0.22 10.36,0.11 10.39,0.01 10.43,-0.08 10.50,-0.16 10.56,-0.24 10.65,-0.30 10.74,-0.35 10.85,-0.38 10.95,-0.40 11.06,-0.40 11.16,-0.39 11.26,-0.34 11.36,-0.30 11.44,-0.23 11.51,-0.16 11.57,-0.07 11.62,0.02 11.64,0.12 11.66,0.22 11.66,0.22 11.66,0.22 11.26,2.67 10.87,5.12 10.24,6.53 9.62,7.94 9.09,8.98 8.57,10.01 7.89,10.62 7.20,11.24 6.58,11.22 5.95,11.19 5.32,10.73 4.69,10.26 4.17,9.55 3.66,8.83 2.84,7.52 2.01,6.21 1.49,5.27 0.97,4.33 0.32,3.32 -0.31,2.31 -0.52,1.33 -0.72,0.36 -0.75,0.27 -0.79,0.17 -0.80,0.08 -0.81,-0.01 -0.79,-0.11 -0.78,-0.20 -0.74,-0.30 -0.71,-0.39 -0.65,-0.47 -0.59,-0.55 -0.52,-0.61 -0.44,-0.67 -0.36,-0.72 -0.27,-0.76 -0.17,-0.78 -0.08,-0.80 0.01,-0.80 0.11,-0.80 0.20,-0.77 0.30,-0.75 0.38,-0.70 0.47,-0.65 0.54,-0.59 0.61,-0.52 0.67,-0.44 0.72,-0.36 0.72,-0.36 L 0.72,-0.36 Z"/></g><g transform="translate(179.5 176.5) rotate(0 0 -4.25)" stroke="none"><path fill="#1e1e1e" d="M -0.90,0 Q -0.90,0 -1.19,-1.15 -1.47,-2.3 -1.47,-3.21 -1.48,-4.14 -1.06,-6.20 -0.65,-8.26 -0.63,-8.36 -0.62,-8.47 -0.57,-8.56 -0.52,-8.65 -0.44,-8.73 -0.36,-8.80 -0.27,-8.84 -0.17,-8.89 -0.07,-8.90 0.03,-8.91 0.13,-8.89 0.24,-8.87 0.33,-8.81 0.42,-8.76 0.49,-8.68 0.56,-8.60 0.60,-8.50 0.64,-8.40 0.64,-8.29 0.65,-8.19 0.62,-8.08 0.59,-7.98 0.53,-7.89 0.47,-7.81 0.39,-7.74 0.30,-7.68 0.20,-7.64 0.10,-7.61 -0.00,-7.61 -0.10,-7.61 -0.20,-7.64 -0.30,-7.68 -0.39,-7.74 -0.47,-7.81 -0.53,-7.89 -0.59,-7.98 -0.62,-8.08 -0.65,-8.19 -0.64,-8.29 -0.64,-8.40 -0.60,-8.50 -0.56,-8.60 -0.49,-8.68 -0.42,-8.76 -0.33,-8.81 -0.24,-8.87 -0.13,-8.89 -0.03,-8.91 0.07,-8.90 0.17,-8.89 0.27,-8.84 0.36,-8.80 0.44,-8.73 0.52,-8.65 0.57,-8.56 0.62,-8.47 0.63,-8.36 0.65,-8.26 0.65,-8.26 0.65,-8.26 1.06,-6.20 1.48,-4.14 1.47,-3.21 1.47,-2.3 1.19,-1.15 0.90,0 0.89,0.10 0.88,0.21 0.84,0.31 0.80,0.42 0.74,0.51 0.67,0.60 0.59,0.67 0.51,0.74 0.41,0.79 0.32,0.84 0.21,0.87 0.10,0.90 -0.00,0.90 -0.10,0.90 -0.21,0.87 -0.32,0.84 -0.41,0.79 -0.51,0.74 -0.59,0.67 -0.67,0.60 -0.74,0.51 -0.80,0.42 -0.84,0.31 -0.88,0.21 -0.89,0.10 -0.90,-0.00 -0.90,-0.00 L -0.90,0 Z"/></g><g transform="translate(285 163.5) rotate(0 -0.25 -4.5)" stroke="none"><path fill="#1e1e1e" d="M -0.80,0.08 Q -0.80,0.08 -1.29,-1.32 -1.78,-2.72 -1.84,-3.94 -1.90,-5.16 -1.53,-6.78 -1.15,-8.41 -1.14,-8.51 -1.12,-8.62 -1.08,-8.71 -1.04,-8.81 -0.96,-8.89 -0.89,-8.96 -0.80,-9.01 -0.70,-9.06 -0.60,-9.08 -0.49,-9.10 -0.39,-9.08 -0.28,-9.06 -0.19,-9.01 -0.09,-8.96 -0.02,-8.89 0.04,-8.81 0.09,-8.71 0.13,-8.62 0.14,-8.51 0.15,-8.41 0.13,-8.30 0.11,-8.20 0.05,-8.11 0.00,-8.02 -0.07,-7.95 -0.15,-7.88 -0.25,-7.84 -0.35,-7.80 -0.46,-7.79 -0.56,-7.79 -0.67,-7.82 -0.77,-7.84 -0.86,-7.90 -0.94,-7.96 -1.01,-8.05 -1.07,-8.13 -1.11,-8.23 -1.14,-8.33 -1.14,-8.44 -1.14,-8.55 -1.11,-8.65 -1.07,-8.75 -1.01,-8.83 -0.94,-8.92 -0.86,-8.98 -0.77,-9.04 -0.67,-9.07 -0.56,-9.09 -0.46,-9.09 -0.35,-9.08 -0.25,-9.04 -0.15,-9.00 -0.07,-8.93 0.00,-8.87 0.05,-8.77 0.11,-8.68 0.13,-8.58 0.15,-8.48 0.15,-8.48 0.15,-8.48 0.62,-6.90 1.08,-5.32 1.14,-4.17 1.20,-3.02 1.00,-1.55 0.80,-0.08 0.80,0.01 0.80,0.11 0.77,0.20 0.75,0.30 0.70,0.38 0.65,0.47 0.59,0.54 0.52,0.61 0.44,0.67 0.36,0.72 0.26,0.75 0.17,0.78 0.07,0.79 -0.01,0.80 -0.11,0.79 -0.21,0.78 -0.30,0.74 -0.39,0.70 -0.47,0.65 -0.54,0.59 -0.61,0.51 -0.67,0.44 -0.71,0.35 -0.76,0.27 -0.78,0.17 -0.80,0.08 -0.80,0.08 L -0.80,0.08 Z"/></g><g transform="translate(286 161) rotate(0 7.25 -0.5)" stroke="none"><path fill="#1e1e1e" d="M -0.15,-0.94 Q -0.15,-0.94 0.66,-1.31 1.49,-1.68 2.71,-1.91 3.94,-2.13 5.10,-2.23 6.26,-2.33 8.06,-2.37 9.86,-2.42 12.34,-1.75 14.82,-1.08 14.89,-1.00 14.95,-0.92 14.99,-0.82 15.03,-0.72 15.04,-0.62 15.04,-0.51 15.01,-0.41 14.99,-0.31 14.93,-0.22 14.87,-0.13 14.78,-0.07 14.70,-0.00 14.59,0.02 14.49,0.05 14.39,0.05 14.28,0.05 14.18,0.02 14.08,-0.01 14.00,-0.07 13.91,-0.13 13.85,-0.22 13.79,-0.31 13.77,-0.41 13.74,-0.52 13.74,-0.62 13.75,-0.73 13.79,-0.83 13.83,-0.93 13.90,-1.01 13.97,-1.09 14.06,-1.14 14.15,-1.20 14.25,-1.22 14.36,-1.24 14.46,-1.23 14.57,-1.22 14.66,-1.17 14.76,-1.13 14.84,-1.05 14.91,-0.98 14.96,-0.89 15.01,-0.79 15.03,-0.69 15.05,-0.58 15.03,-0.48 15.01,-0.37 14.96,-0.28 14.91,-0.19 14.83,-0.11 14.76,-0.04 14.66,-0.00 14.56,0.04 14.46,0.05 14.35,0.06 14.25,0.04 14.14,0.01 14.05,-0.03 13.96,-0.09 13.96,-0.09 13.96,-0.09 11.94,0.21 9.92,0.53 8.21,0.55 6.49,0.58 5.45,0.66 4.42,0.73 3.19,0.92 1.95,1.11 1.05,1.02 0.15,0.94 0.04,0.94 -0.07,0.95 -0.18,0.92 -0.29,0.90 -0.40,0.85 -0.50,0.80 -0.59,0.73 -0.68,0.66 -0.75,0.57 -0.82,0.48 -0.87,0.37 -0.91,0.26 -0.93,0.15 -0.95,0.04 -0.94,-0.07 -0.93,-0.18 -0.90,-0.29 -0.86,-0.40 -0.80,-0.50 -0.74,-0.60 -0.65,-0.68 -0.57,-0.76 -0.47,-0.81 -0.37,-0.87 -0.26,-0.90 -0.15,-0.94 -0.15,-0.94 L -0.15,-0.94 Z"/></g><g transform="translate(297 155.5) rotate(0 1.5 4.75)" stroke="none"><path fill="#1e1e1e" d="M 0.40,-0.81 Q 0.40,-0.81 1.38,-0.59 2.35,-0.37 2.89,0.08 3.43,0.53 3.77,1.21 4.10,1.88 3.91,3.40 3.72,4.93 3.30,5.86 2.89,6.79 2.00,7.78 1.11,8.76 1.12,8.87 1.13,8.98 1.11,9.08 1.09,9.18 1.03,9.27 0.98,9.36 0.89,9.43 0.81,9.50 0.71,9.54 0.61,9.58 0.51,9.58 0.40,9.59 0.30,9.56 0.20,9.53 0.11,9.47 0.02,9.41 -0.03,9.32 -0.09,9.24 -0.13,9.13 -0.16,9.03 -0.16,8.93 -0.16,8.82 -0.12,8.72 -0.09,8.62 -0.02,8.54 0.03,8.45 0.12,8.39 0.21,8.33 0.31,8.31 0.41,8.28 0.52,8.29 0.63,8.29 0.72,8.33 0.82,8.37 0.90,8.44 0.98,8.51 1.04,8.60 1.09,8.70 1.11,8.80 1.13,8.90 1.12,9.01 1.11,9.12 1.06,9.21 1.02,9.31 0.94,9.38 0.87,9.46 0.78,9.51 0.68,9.56 0.58,9.57 0.47,9.59 0.37,9.57 0.26,9.55 0.17,9.50 0.08,9.45 0.00,9.37 -0.06,9.30 -0.10,9.20 -0.15,9.10 -0.15,9.10 -0.15,9.10 0.06,7.36 0.28,5.61 0.89,4.40 1.51,3.19 1.30,2.64 1.09,2.10 0.34,1.46 -0.40,0.81 -0.50,0.75 -0.59,0.69 -0.66,0.61 -0.74,0.53 -0.79,0.43 -0.84,0.34 -0.87,0.23 -0.90,0.12 -0.90,0.01 -0.91,-0.09 -0.88,-0.20 -0.86,-0.30 -0.81,-0.40 -0.76,-0.50 -0.69,-0.58 -0.62,-0.67 -0.53,-0.73 -0.44,-0.80 -0.33,-0.84 -0.23,-0.88 -0.12,-0.89 -0.01,-0.91 0.09,-0.90 0.20,-0.89 0.30,-0.85 0.40,-0.81 0.40,-0.81 L 0.40,-0.81 Z"/></g><g transform="translate(301.5 156) rotate(0 5 4.5)" stroke="none"><path fill="#1e1e1e" d="M 0.61,-0.35 Q 0.61,-0.35 1.52,0.46 2.44,1.27 2.98,2.29 3.53,3.31 4.08,4.67 4.63,6.04 4.88,6.96 5.12,7.88 5.36,8.38 5.60,8.88 5.62,9.06 5.65,9.24 5.63,9.42 5.61,9.60 5.55,9.77 5.49,9.94 5.39,10.09 5.28,10.24 5.15,10.36 5.02,10.48 4.86,10.57 4.70,10.66 4.52,10.70 4.35,10.75 4.17,10.75 3.98,10.75 3.81,10.71 3.63,10.67 3.47,10.59 3.31,10.51 3.17,10.39 3.03,10.27 2.93,10.12 2.82,9.97 2.76,9.81 2.69,9.64 3.16,8.68 3.62,7.72 3.87,7.23 4.12,6.73 4.54,5.79 4.95,4.86 5.58,3.44 6.21,2.01 7.92,0.47 9.64,-1.07 9.74,-1.09 9.85,-1.10 9.95,-1.08 10.06,-1.07 10.15,-1.01 10.24,-0.96 10.32,-0.89 10.39,-0.81 10.43,-0.71 10.48,-0.61 10.49,-0.51 10.50,-0.40 10.47,-0.30 10.45,-0.20 10.39,-0.11 10.34,-0.01 10.26,0.04 10.17,0.11 10.08,0.15 9.98,0.19 9.87,0.19 9.76,0.20 9.66,0.17 9.56,0.14 9.47,0.08 9.39,0.02 9.32,-0.06 9.26,-0.14 9.23,-0.24 9.19,-0.35 9.19,-0.45 9.20,-0.56 9.23,-0.66 9.27,-0.76 9.33,-0.84 9.40,-0.93 9.48,-0.99 9.57,-1.04 9.68,-1.07 9.78,-1.10 9.88,-1.09 9.99,-1.08 10.09,-1.04 10.19,-1.00 10.27,-0.93 10.35,-0.86 10.40,-0.77 10.45,-0.68 10.48,-0.58 10.50,-0.47 10.49,-0.37 10.47,-0.26 10.43,-0.17 10.38,-0.07 10.31,0.00 10.23,0.07 10.14,0.12 10.04,0.17 10.04,0.17 10.05,0.17 9.49,1.69 8.94,3.21 8.32,4.65 7.69,6.10 7.20,7.17 6.71,8.24 6.16,8.56 5.60,8.88 5.62,9.06 5.65,9.24 5.63,9.42 5.61,9.60 5.55,9.77 5.49,9.94 5.39,10.09 5.28,10.24 5.15,10.36 5.02,10.48 4.86,10.57 4.70,10.66 4.52,10.70 4.35,10.75 4.17,10.75 3.99,10.75 3.81,10.71 3.63,10.67 3.47,10.59 3.31,10.51 3.17,10.39 3.03,10.27 2.93,10.12 2.82,9.98 2.76,9.81 2.69,9.64 2.46,9.14 2.22,8.65 2.03,7.89 1.84,7.14 1.36,5.93 0.89,4.71 0.37,3.73 -0.14,2.75 -0.37,1.55 -0.61,0.35 -0.64,0.27 -0.68,0.19 -0.69,0.10 -0.70,0.02 -0.70,-0.05 -0.69,-0.14 -0.66,-0.22 -0.63,-0.30 -0.59,-0.37 -0.54,-0.45 -0.48,-0.50 -0.42,-0.56 -0.34,-0.61 -0.27,-0.65 -0.19,-0.67 -0.11,-0.69 -0.02,-0.70 0.06,-0.70 0.14,-0.68 0.22,-0.67 0.30,-0.63 0.38,-0.59 0.44,-0.54 0.51,-0.48 0.56,-0.41 0.61,-0.35 0.61,-0.35 L 0.61,-0.35 Z"/></g><g transform="translate(312.5 161.5) rotate(0 4 5)" stroke="none"><path fill="#1e1e1e" d="M 0.20,-1.03 Q 0.20,-1.03 0.95,-1.03 1.70,-1.03 2.40,-0.79 3.11,-0.56 3.73,-0.05 4.35,0.45 4.78,1.08 5.21,1.70 5.29,2.68 5.37,3.66 4.71,5.06 4.05,6.45 3.66,7.21 3.27,7.98 2.72,7.97 2.16,7.97 2.95,8.02 3.74,8.08 5.73,8.46 7.72,8.84 7.82,8.85 7.93,8.87 8.02,8.92 8.11,8.97 8.19,9.05 8.26,9.13 8.30,9.22 8.35,9.32 8.36,9.43 8.37,9.53 8.35,9.64 8.32,9.74 8.27,9.83 8.21,9.92 8.13,9.99 8.05,10.06 7.95,10.10 7.85,10.14 7.75,10.14 7.64,10.15 7.54,10.12 7.44,10.09 7.35,10.03 7.26,9.97 7.20,9.88 7.13,9.80 7.10,9.70 7.07,9.60 7.07,9.49 7.07,9.38 7.10,9.28 7.14,9.18 7.20,9.10 7.27,9.01 7.35,8.96 7.44,8.90 7.54,8.87 7.65,8.84 7.75,8.85 7.86,8.85 7.96,8.89 8.06,8.93 8.14,9.00 8.22,9.07 8.27,9.16 8.33,9.25 8.35,9.36 8.37,9.46 8.36,9.57 8.35,9.67 8.30,9.77 8.26,9.86 8.18,9.94 8.11,10.02 8.02,10.07 7.92,10.12 7.82,10.13 7.71,10.15 7.71,10.15 7.71,10.15 5.68,10.49 3.65,10.83 2.43,10.64 1.21,10.46 0.69,9.84 0.17,9.21 0.52,7.98 0.87,6.75 1.26,5.98 1.65,5.21 2.15,4.35 2.65,3.49 2.56,2.96 2.47,2.43 1.82,2.02 1.17,1.61 0.48,1.32 -0.20,1.03 -0.32,0.99 -0.44,0.95 -0.55,0.88 -0.66,0.81 -0.75,0.72 -0.84,0.63 -0.90,0.52 -0.96,0.41 -1.00,0.29 -1.04,0.17 -1.04,0.04 -1.05,-0.08 -1.02,-0.20 -1.00,-0.32 -0.94,-0.44 -0.89,-0.56 -0.81,-0.65 -0.73,-0.75 -0.63,-0.83 -0.53,-0.91 -0.41,-0.96 -0.29,-1.01 -0.17,-1.03 -0.04,-1.05 0.08,-1.04 0.20,-1.03 0.20,-1.03 L 0.20,-1.03 Z"/></g><g transform="translate(69 88) rotate(0 -7.25 65.5)" stroke="none"><path fill="#1e1e1e" d="M 0.73,0 Q 0.73,0 0.92,1.58 1.12,3.16 0.99,4.89 0.86,6.61 0.52,8.40 0.19,10.19 -0.21,13.05 -0.62,15.91 -0.93,18.56 -1.24,21.21 -1.52,24.76 -1.79,28.31 -1.91,31.39 -2.03,34.46 -2.08,37.35 -2.13,40.23 -2.58,45.68 -3.03,51.12 -3.80,56.33 -4.57,61.54 -5.04,65.45 -5.51,69.35 -5.85,72.31 -6.19,75.27 -6.33,78.21 -6.48,81.15 -6.40,83.37 -6.31,85.59 -6.28,89.30 -6.25,93.02 -6.23,95.60 -6.22,98.18 -6.21,100.71 -6.21,103.25 -6.21,105.33 -6.21,107.41 -6.21,109.16 -6.22,110.91 -6.08,112.76 -5.95,114.60 -5.89,116.00 -5.83,117.40 -5.81,118.72 -5.78,120.04 -5.77,120.89 -5.77,121.73 -5.77,122.53 -5.77,123.32 -5.78,124.38 -5.79,125.43 -5.79,126.17 -5.79,126.91 -5.79,127.65 -5.80,128.39 -5.80,129.19 -5.80,129.99 -5.80,130.28 -5.80,130.57 -5.82,130.71 -5.83,130.86 -5.89,130.99 -5.94,131.12 -6.02,131.24 -6.10,131.36 -6.21,131.46 -6.32,131.55 -6.44,131.62 -6.57,131.69 -6.71,131.72 -6.85,131.76 -6.99,131.76 -7.14,131.76 -7.28,131.72 -7.42,131.69 -7.55,131.62 -7.67,131.55 -7.78,131.46 -7.89,131.36 -7.97,131.24 -8.05,131.12 -8.10,130.99 -8.16,130.86 -8.17,130.71 -8.19,130.57 -8.67,129.77 -9.14,128.97 -9.85,127.96 -10.57,126.95 -11.88,125.22 -13.20,123.48 -14.03,122.47 -14.86,121.45 -15.24,120.79 -15.62,120.14 -15.76,120.00 -15.91,119.86 -15.98,119.71 -16.04,119.56 -16.07,119.40 -16.11,119.25 -16.10,119.08 -16.09,118.92 -16.04,118.77 -16.00,118.61 -15.91,118.47 -15.83,118.33 -15.72,118.22 -15.61,118.10 -15.47,118.02 -15.33,117.93 -15.18,117.88 -15.02,117.83 -14.86,117.82 -14.70,117.81 -14.54,117.84 -14.38,117.87 -14.23,117.93 -14.09,117.99 -13.96,118.09 -13.83,118.19 -13.73,118.32 -13.63,118.44 -13.09,118.66 -12.56,118.87 -11.41,119.77 -10.26,120.67 -9.19,121.64 -8.12,122.61 -7.17,123.81 -6.23,125.02 -6.35,125.78 -6.48,126.54 -6.04,126.19 -5.60,125.84 -5.29,125.19 -4.98,124.53 -4.52,123.40 -4.06,122.26 -3.18,120.35 -2.30,118.44 -1.35,116.94 -0.40,115.44 -0.34,115.35 -0.29,115.26 -0.20,115.19 -0.12,115.13 -0.02,115.09 0.07,115.05 0.17,115.05 0.28,115.05 0.38,115.08 0.48,115.11 0.57,115.17 0.66,115.23 0.72,115.32 0.78,115.41 0.81,115.51 0.84,115.61 0.84,115.72 0.84,115.82 0.80,115.92 0.76,116.02 0.70,116.10 0.63,116.19 0.54,116.24 0.45,116.30 0.35,116.33 0.25,116.35 0.14,116.34 0.04,116.34 -0.05,116.29 -0.15,116.25 -0.23,116.18 -0.31,116.11 -0.36,116.02 -0.41,115.93 -0.43,115.82 -0.45,115.72 -0.44,115.61 -0.42,115.51 -0.38,115.41 -0.33,115.32 -0.26,115.24 -0.18,115.17 -0.09,115.12 0.00,115.07 0.11,115.06 0.21,115.04 0.31,115.06 0.42,115.08 0.51,115.13 0.60,115.19 0.68,115.27 0.75,115.34 0.79,115.44 0.83,115.54 0.84,115.65 0.85,115.75 0.82,115.85 0.80,115.96 0.80,115.96 0.80,115.96 0.37,117.65 -0.04,119.35 -0.74,121.35 -1.44,123.36 -2.01,124.68 -2.57,126.00 -3.32,127.07 -4.07,128.13 -4.77,128.45 -5.46,128.77 -6.90,127.72 -8.34,126.67 -9.14,125.63 -9.94,124.60 -10.94,123.69 -11.94,122.78 -13.40,121.68 -14.87,120.57 -15.39,120.22 -15.91,119.86 -15.98,119.71 -16.04,119.56 -16.07,119.40 -16.11,119.25 -16.10,119.08 -16.09,118.92 -16.04,118.77 -16.00,118.61 -15.91,118.47 -15.83,118.33 -15.72,118.22 -15.61,118.10 -15.47,118.02 -15.33,117.93 -15.18,117.88 -15.02,117.83 -14.86,117.82 -14.70,117.81 -14.54,117.84 -14.38,117.87 -14.23,117.93 -14.09,117.99 -13.96,118.09 -13.83,118.19 -13.73,118.32 -13.63,118.44 -13.46,118.51 -13.30,118.58 -12.95,119.10 -12.61,119.61 -11.74,120.67 -10.87,121.73 -9.52,123.53 -8.18,125.33 -7.38,126.55 -6.57,127.78 -6.19,129.17 -5.80,130.57 -5.82,130.71 -5.83,130.86 -5.89,130.99 -5.94,131.12 -6.02,131.24 -6.10,131.36 -6.21,131.46 -6.32,131.55 -6.44,131.62 -6.57,131.69 -6.71,131.72 -6.85,131.76 -6.99,131.76 -7.14,131.76 -7.28,131.72 -7.42,131.69 -7.55,131.62 -7.67,131.55 -7.78,131.46 -7.89,131.36 -7.97,131.24 -8.05,131.12 -8.10,130.99 -8.16,130.86 -8.17,130.71 -8.19,130.57 -8.19,130.28 -8.19,129.99 -8.19,129.19 -8.19,128.40 -8.20,127.65 -8.20,126.91 -8.21,126.17 -8.21,125.44 -8.22,124.39 -8.24,123.34 -8.25,122.55 -8.26,121.77 -8.27,120.93 -8.29,120.09 -8.31,118.80 -8.34,117.51 -8.40,116.15 -8.47,114.79 -8.62,112.85 -8.78,110.91 -8.78,109.17 -8.79,107.42 -8.79,105.34 -8.80,103.25 -8.81,100.72 -8.81,98.19 -8.83,95.62 -8.85,93.04 -8.88,89.36 -8.92,85.68 -9.00,83.35 -9.08,81.02 -8.93,77.99 -8.78,74.97 -8.44,72.00 -8.09,69.04 -7.62,65.10 -7.15,61.16 -6.39,56.03 -5.62,50.90 -5.17,45.54 -4.71,40.19 -4.66,37.27 -4.61,34.36 -4.48,31.23 -4.36,28.11 -4.07,24.50 -3.77,20.90 -3.43,18.22 -3.08,15.54 -2.62,12.63 -2.16,9.71 -1.80,8.06 -1.43,6.41 -1.28,4.79 -1.12,3.16 -0.92,1.58 -0.73,0 -0.71,-0.08 -0.70,-0.17 -0.67,-0.25 -0.64,-0.33 -0.59,-0.41 -0.54,-0.48 -0.48,-0.54 -0.41,-0.60 -0.33,-0.64 -0.25,-0.68 -0.17,-0.70 -0.08,-0.72 0.00,-0.72 0.08,-0.72 0.17,-0.70 0.25,-0.68 0.33,-0.64 0.41,-0.60 0.48,-0.54 0.54,-0.48 0.59,-0.41 0.64,-0.33 0.67,-0.25 0.70,-0.17 0.71,-0.08 0.73,0.00 0.73,0.00 L 0.73,0 Z"/></g><g transform="translate(10 132.5) rotate(0 5 0.25)" stroke="none"><path fill="#1e1e1e" d="M 0.11,-0.91 Q 0.11,-0.91 1.29,-1.01 2.47,-1.12 3.49,-1.07 4.50,-1.02 7.11,-0.59 9.72,-0.15 9.83,-0.14 9.93,-0.12 10.03,-0.07 10.12,-0.02 10.19,0.05 10.26,0.13 10.31,0.23 10.35,0.32 10.36,0.43 10.37,0.53 10.35,0.64 10.32,0.74 10.27,0.83 10.21,0.92 10.13,0.99 10.05,1.06 9.95,1.10 9.85,1.13 9.75,1.14 9.64,1.14 9.54,1.11 9.44,1.09 9.35,1.02 9.26,0.96 9.20,0.88 9.13,0.79 9.10,0.69 9.07,0.59 9.07,0.49 9.07,0.38 9.11,0.28 9.14,0.18 9.21,0.09 9.27,0.01 9.36,-0.04 9.45,-0.10 9.55,-0.12 9.65,-0.15 9.76,-0.14 9.87,-0.14 9.96,-0.10 10.06,-0.06 10.14,0.00 10.22,0.07 10.28,0.16 10.33,0.26 10.35,0.36 10.37,0.46 10.36,0.57 10.35,0.67 10.30,0.77 10.26,0.87 10.18,0.94 10.11,1.02 10.01,1.07 9.92,1.12 9.81,1.13 9.71,1.15 9.71,1.15 9.71,1.15 7.03,1.49 4.34,1.84 3.23,1.77 2.12,1.69 1.00,1.30 -0.11,0.91 -0.22,0.88 -0.32,0.85 -0.42,0.80 -0.52,0.75 -0.60,0.68 -0.69,0.60 -0.75,0.51 -0.81,0.42 -0.85,0.32 -0.89,0.21 -0.90,0.10 -0.91,-0.00 -0.90,-0.11 -0.89,-0.22 -0.85,-0.32 -0.81,-0.43 -0.74,-0.52 -0.68,-0.61 -0.60,-0.68 -0.51,-0.75 -0.42,-0.80 -0.32,-0.86 -0.21,-0.88 -0.10,-0.91 0.00,-0.91 0.11,-0.91 0.11,-0.91 L 0.11,-0.91 Z"/></g><g transform="translate(14.5 126) rotate(0 5 7.75)" stroke="none"><path fill="#1e1e1e" d="M 0.93,0.05 Q 0.93,0.05 1.03,2.37 1.13,4.68 1.22,6.74 1.32,8.79 1.35,10.14 1.39,11.48 1.48,12.29 1.58,13.10 2.28,13.47 2.98,13.84 5.88,12.31 8.79,10.77 8.89,10.73 8.99,10.69 9.09,10.69 9.20,10.68 9.30,10.71 9.40,10.73 9.49,10.79 9.58,10.85 9.64,10.94 9.71,11.02 9.74,11.12 9.78,11.22 9.78,11.33 9.78,11.43 9.75,11.53 9.72,11.64 9.65,11.72 9.59,11.81 9.50,11.87 9.41,11.93 9.31,11.96 9.21,11.99 9.10,11.98 9.00,11.98 8.90,11.94 8.80,11.90 8.72,11.83 8.64,11.76 8.58,11.67 8.53,11.58 8.50,11.48 8.48,11.38 8.49,11.27 8.50,11.16 8.54,11.07 8.59,10.97 8.66,10.89 8.73,10.81 8.82,10.76 8.92,10.71 9.02,10.70 9.13,10.68 9.23,10.69 9.34,10.71 9.43,10.76 9.53,10.81 9.60,10.88 9.67,10.96 9.72,11.06 9.76,11.15 9.78,11.26 9.79,11.36 9.77,11.47 9.75,11.57 9.69,11.66 9.64,11.75 9.56,11.82 9.48,11.89 9.48,11.89 9.48,11.89 6.20,14.17 2.93,16.44 1.78,16.09 0.64,15.75 -0.20,14.84 -1.05,13.94 -1.27,12.75 -1.49,11.56 -1.53,10.23 -1.56,8.91 -1.63,6.71 -1.71,4.51 -1.32,2.22 -0.93,-0.05 -0.91,-0.16 -0.89,-0.28 -0.84,-0.38 -0.80,-0.48 -0.73,-0.57 -0.66,-0.66 -0.57,-0.73 -0.48,-0.80 -0.38,-0.85 -0.27,-0.89 -0.16,-0.91 -0.05,-0.93 0.05,-0.93 0.17,-0.92 0.27,-0.88 0.38,-0.85 0.48,-0.79 0.58,-0.73 0.66,-0.65 0.74,-0.57 0.79,-0.48 0.85,-0.38 0.89,-0.27 0.92,-0.16 0.93,-0.05 0.93,0.05 0.93,0.05 L 0.93,0.05 Z"/></g><g transform="translate(27.5 140.5) rotate(0 0 -2.75)" stroke="none"><path fill="#1e1e1e" d="M -0.89,0 Q -0.89,0 -1.07,-1.00 -1.25,-2.01 -0.95,-1.86 -0.65,-1.70 -0.64,-1.78 -0.63,-1.86 -0.60,-1.93 -0.58,-2.01 -0.53,-2.07 -0.49,-2.14 -0.43,-2.19 -0.37,-2.24 -0.30,-2.28 -0.23,-2.32 -0.15,-2.34 -0.07,-2.35 0.00,-2.35 0.07,-2.35 0.15,-2.34 0.23,-2.32 0.30,-2.28 0.37,-2.24 0.43,-2.19 0.49,-2.14 0.53,-2.07 0.58,-2.01 0.60,-1.93 0.63,-1.86 0.64,-1.78 0.65,-1.70 0.63,-1.60 0.62,-1.49 0.57,-1.40 0.52,-1.31 0.44,-1.23 0.36,-1.16 0.27,-1.11 0.17,-1.07 0.07,-1.06 -0.03,-1.05 -0.13,-1.07 -0.24,-1.09 -0.33,-1.15 -0.42,-1.20 -0.49,-1.28 -0.56,-1.36 -0.60,-1.46 -0.64,-1.56 -0.64,-1.67 -0.65,-1.77 -0.62,-1.88 -0.59,-1.98 -0.53,-2.07 -0.47,-2.15 -0.39,-2.22 -0.30,-2.28 -0.20,-2.32 -0.10,-2.35 0.00,-2.35 0.10,-2.35 0.20,-2.32 0.30,-2.28 0.39,-2.22 0.47,-2.15 0.53,-2.07 0.59,-1.98 0.62,-1.88 0.65,-1.77 0.64,-1.67 0.64,-1.56 0.60,-1.46 0.56,-1.36 0.49,-1.28 0.42,-1.20 0.33,-1.15 0.24,-1.09 0.13,-1.07 0.03,-1.05 -0.07,-1.06 -0.17,-1.07 -0.27,-1.11 -0.36,-1.16 -0.44,-1.23 -0.52,-1.31 -0.57,-1.40 -0.62,-1.49 -0.63,-1.60 -0.65,-1.70 -0.65,-1.70 -0.65,-1.70 -0.64,-1.78 -0.63,-1.86 -0.60,-1.93 -0.58,-2.01 -0.53,-2.07 -0.49,-2.14 -0.43,-2.19 -0.37,-2.24 -0.30,-2.28 -0.23,-2.32 -0.15,-2.34 -0.07,-2.35 -0.00,-2.35 0.07,-2.35 0.15,-2.34 0.23,-2.32 0.30,-2.28 0.37,-2.24 0.43,-2.19 0.49,-2.14 0.53,-2.07 0.58,-2.01 0.60,-1.93 0.63,-1.86 0.64,-1.78 0.65,-1.70 0.95,-1.86 1.25,-2.01 1.07,-1.00 0.89,0 0.88,0.10 0.87,0.21 0.83,0.31 0.79,0.41 0.73,0.50 0.67,0.59 0.59,0.66 0.50,0.73 0.41,0.78 0.31,0.83 0.21,0.86 0.10,0.89 -0.00,0.89 -0.10,0.89 -0.21,0.86 -0.31,0.83 -0.41,0.78 -0.50,0.73 -0.59,0.66 -0.67,0.59 -0.73,0.50 -0.79,0.41 -0.83,0.31 -0.87,0.21 -0.88,0.10 -0.89,-0.00 -0.89,-0.00 L -0.89,0 Z"/></g><g transform="translate(26.5 125) rotate(0 0 1)" stroke="none"><path fill="#1e1e1e" d="M 1.07,-0.33 Q 1.07,-0.33 1.09,-0.06 1.10,0.20 0.99,0.44 0.88,0.69 0.67,0.85 0.46,1.02 0.19,1.07 -0.06,1.12 -0.32,1.04 -0.58,0.96 -0.77,0.77 -0.96,0.58 -1.04,0.32 -1.12,0.06 -1.07,-0.19 -1.02,-0.46 -0.85,-0.67 -0.69,-0.88 -0.44,-0.99 -0.20,-1.10 0.06,-1.09 0.33,-1.07 0.56,-0.93 0.79,-0.79 0.93,-0.56 L 1.07,-0.33 Z"/></g><g transform="translate(31.5 139.5) rotate(0 8.75 -5.5)" stroke="none"><path fill="#1e1e1e" d="M -0.96,0 Q -0.96,0 -1.22,-0.87 -1.48,-1.74 -1.16,-2.89 -0.84,-4.04 -0.51,-4.70 -0.18,-5.37 0.42,-5.86 1.03,-6.36 2.03,-6.28 3.04,-6.19 3.53,-5.67 4.03,-5.15 4.27,-4.52 4.51,-3.89 4.76,-3.63 5.00,-3.37 5.04,-3.20 5.09,-3.03 5.09,-2.85 5.09,-2.68 5.05,-2.51 5.01,-2.34 4.92,-2.18 4.84,-2.03 4.73,-1.90 4.61,-1.77 4.47,-1.67 4.33,-1.57 4.16,-1.50 4.00,-1.44 3.83,-1.42 3.65,-1.40 3.48,-1.42 3.31,-1.44 3.14,-1.50 2.98,-1.56 2.83,-1.66 2.69,-1.76 2.57,-1.89 2.46,-2.02 2.37,-2.17 2.29,-2.33 2.43,-3.12 2.56,-3.91 3.20,-5.14 3.84,-6.37 5.09,-6.55 6.35,-6.74 6.81,-6.32 7.26,-5.89 7.57,-5.37 7.87,-4.85 8.06,-4.01 8.26,-3.17 8.28,-2.62 8.31,-2.07 9.10,-2.74 9.90,-3.41 10.84,-3.99 11.78,-4.57 12.62,-5.20 13.46,-5.84 14.04,-6.60 14.63,-7.35 14.84,-7.90 15.05,-8.45 15.04,-9.09 15.02,-9.74 14.91,-9.06 14.79,-8.38 14.56,-7.60 14.32,-6.82 13.92,-5.47 13.53,-4.12 13.48,-3.10 13.43,-2.09 14.93,-2.45 16.44,-2.81 16.54,-2.83 16.64,-2.85 16.75,-2.83 16.86,-2.82 16.95,-2.77 17.05,-2.72 17.12,-2.65 17.20,-2.57 17.24,-2.48 17.29,-2.38 17.30,-2.28 17.32,-2.17 17.30,-2.07 17.28,-1.96 17.22,-1.87 17.17,-1.78 17.09,-1.71 17.01,-1.64 16.91,-1.60 16.82,-1.55 16.71,-1.55 16.61,-1.54 16.50,-1.56 16.40,-1.59 16.31,-1.65 16.22,-1.70 16.15,-1.79 16.09,-1.87 16.05,-1.97 16.02,-2.07 16.01,-2.18 16.01,-2.28 16.04,-2.38 16.07,-2.48 16.14,-2.57 16.20,-2.66 16.28,-2.72 16.37,-2.78 16.47,-2.81 16.57,-2.84 16.68,-2.84 16.79,-2.84 16.89,-2.80 16.99,-2.76 17.07,-2.70 17.15,-2.63 17.21,-2.54 17.26,-2.45 17.29,-2.35 17.32,-2.24 17.31,-2.14 17.30,-2.03 17.26,-1.93 17.21,-1.84 17.14,-1.76 17.07,-1.68 16.98,-1.63 16.89,-1.57 16.89,-1.57 16.89,-1.57 14.89,-0.60 12.88,0.36 11.76,-0.69 10.64,-1.76 10.65,-3.34 10.66,-4.93 11.08,-6.33 11.49,-7.73 11.81,-8.67 12.14,-9.62 12.70,-10.55 13.26,-11.48 14.10,-11.81 14.94,-12.14 15.59,-11.97 16.25,-11.80 16.75,-11.25 17.25,-10.69 17.37,-9.81 17.50,-8.94 17.31,-8.26 17.11,-7.59 16.76,-6.81 16.41,-6.04 15.68,-5.04 14.96,-4.04 14.05,-3.24 13.15,-2.44 12.01,-1.69 10.88,-0.93 9.22,-0.40 7.57,0.12 6.55,-0.71 5.54,-1.55 5.45,-2.51 5.35,-3.46 5.05,-4.16 4.75,-4.86 5.41,-4.78 6.07,-4.71 5.54,-4.04 5.00,-3.37 5.04,-3.20 5.09,-3.03 5.09,-2.85 5.09,-2.68 5.05,-2.51 5.01,-2.34 4.92,-2.18 4.84,-2.03 4.73,-1.90 4.61,-1.77 4.47,-1.67 4.33,-1.57 4.16,-1.50 4.00,-1.44 3.83,-1.42 3.65,-1.40 3.48,-1.42 3.31,-1.44 3.14,-1.50 2.98,-1.56 2.83,-1.66 2.69,-1.76 2.57,-1.89 2.46,-2.02 2.37,-2.17 2.29,-2.33 2.14,-2.75 1.99,-3.17 1.74,-2.43 1.48,-1.70 1.22,-0.85 0.96,0 0.95,0.11 0.93,0.23 0.89,0.33 0.85,0.44 0.78,0.54 0.72,0.63 0.63,0.71 0.54,0.79 0.44,0.84 0.34,0.90 0.22,0.92 0.11,0.95 -0.00,0.95 -0.11,0.95 -0.22,0.92 -0.34,0.90 -0.44,0.84 -0.54,0.79 -0.63,0.71 -0.72,0.63 -0.78,0.54 -0.85,0.44 -0.89,0.33 -0.93,0.23 -0.95,0.11 -0.96,-0.00 -0.96,-0.00 L -0.96,0 Z"/></g></svg>