<svg version="1.1" xmlns="http://www.w3.org/2000/svg" viewBox="0 0 356.5 183" width="356.5" height="183" class="excalidraw-svg">
  <!-- svg-source:excalidraw -->
  
  <defs>
    <style class="style-fonts">
      @font-face {
        font-family: "Virgil";
        src: url("https://excalidraw.com/Virgil.woff2");
      }
      @font-face {
        font-family: "Cascadia";
        src: url("https://excalidraw.com/Cascadia.woff2");
      }
      @font-face {
        font-family: "Assistant";
        src: url("https://excalidraw.com/Assistant-Regular.woff2");
      }
    </style>
    
  </defs>
  <rect x="0" y="0" width="356.5" height="183" fill="#ffffff"/><g transform="translate(21.5 173) rotate(0 -5.25 -61.75)" stroke="none"><path fill="#1e1e1e" d="M -3.01,0.13 Q -3.01,0.13 -4.19,-2.97 -5.36,-6.09 -5.77,-8.66 -6.18,-11.23 -6.37,-13.57 -6.57,-15.90 -7.03,-19.84 -7.49,-23.78 -7.80,-28.16 -8.11,-32.54 -8.73,-38.13 -9.36,-43.72 -9.66,-46.01 -9.96,-48.31 -10.37,-50.81 -10.77,-53.31 -11.10,-55.43 -11.43,-57.56 -12.11,-61.41 -12.80,-65.26 -13.03,-67.45 -13.26,-69.64 -13.50,-71.88 -13.73,-74.12 -14.08,-77.30 -14.43,-80.49 -14.63,-83.38 -14.83,-86.28 -15.08,-89.26 -15.33,-92.23 -15.58,-94.56 -15.83,-96.89 -15.97,-99.49 -16.11,-102.10 -16.13,-104.27 -16.15,-106.44 -16.32,-109.42 -16.50,-112.40 -16.61,-115.00 -16.72,-117.59 -15.17,-120.02 -13.62,-122.46 -13.59,-122.77 -13.56,-123.09 -13.45,-123.39 -13.35,-123.68 -13.17,-123.95 -13.00,-124.21 -12.77,-124.43 -12.53,-124.64 -12.26,-124.80 -11.98,-124.95 -11.67,-125.03 -11.37,-125.11 -11.05,-125.12 -10.73,-125.13 -10.43,-125.06 -10.12,-124.99 -9.83,-124.85 -9.55,-124.71 -9.31,-124.50 -9.07,-124.30 -8.88,-124.04 -8.70,-123.78 -8.58,-123.49 -8.46,-123.20 -8.41,-122.88 -8.37,-122.57 -8.45,-122.09 -8.53,-121.60 -8.74,-121.24 -8.95,-120.87 -9.27,-120.58 -9.58,-120.30 -9.97,-120.13 -10.36,-119.96 -10.79,-119.93 -11.21,-119.90 -11.62,-120.00 -12.04,-120.10 -12.39,-120.33 -12.75,-120.56 -13.02,-120.89 -13.28,-121.22 -13.43,-121.62 -13.57,-122.02 -13.59,-122.45 -13.60,-122.87 -13.47,-123.28 -13.35,-123.68 -13.10,-124.03 -12.85,-124.37 -12.50,-124.62 -12.16,-124.87 -11.75,-124.99 -11.35,-125.12 -10.92,-125.10 -10.50,-125.09 -10.10,-124.95 -9.70,-124.80 -9.37,-124.53 -9.04,-124.26 -8.81,-123.91 -8.58,-123.55 -8.48,-123.14 -8.38,-122.72 -8.41,-122.30 -8.45,-121.88 -8.61,-121.49 -8.78,-121.10 -9.07,-120.78 -9.35,-120.46 -9.72,-120.26 -10.09,-120.05 -10.51,-119.97 -10.93,-119.89 -11.35,-119.95 -11.77,-120.00 -12.15,-120.19 -12.53,-120.38 -12.83,-120.68 -13.13,-120.98 -13.32,-121.37 -13.51,-121.75 -13.56,-122.17 -13.62,-122.59 -13.62,-122.52 -13.62,-122.46 -13.59,-122.77 -13.56,-123.09 -13.45,-123.39 -13.35,-123.68 -13.17,-123.95 -13.00,-124.21 -12.77,-124.43 -12.53,-124.64 -12.26,-124.80 -11.98,-124.95 -11.67,-125.03 -11.37,-125.11 -11.05,-125.12 -10.73,-125.13 -10.43,-125.06 -10.12,-124.99 -9.83,-124.85 -9.55,-124.71 -9.31,-124.50 -9.07,-124.30 -8.88,-124.04 -8.70,-123.78 -8.58,-123.49 -8.46,-123.20 -8.41,-122.88 -8.37,-122.57 -6.72,-118.10 -5.07,-113.63 -4.93,-111.21 -4.80,-108.80 -4.80,-106.63 -4.81,-104.47 -4.73,-101.49 -4.65,-98.50 -4.40,-96.06 -4.15,-93.62 -3.91,-90.59 -3.68,-87.56 -3.47,-84.41 -3.26,-81.27 -2.94,-78.23 -2.61,-75.19 -2.30,-71.23 -1.99,-67.27 -1.58,-65.02 -1.18,-62.76 -0.58,-58.91 0.01,-55.05 0.44,-52.39 0.86,-49.72 1.17,-47.31 1.49,-44.90 1.85,-41.37 2.21,-37.85 2.43,-35.61 2.66,-33.38 2.91,-29.16 3.17,-24.95 3.39,-22.82 3.61,-20.70 3.91,-16.62 4.21,-12.53 4.50,-9.54 4.78,-6.55 3.90,-3.34 3.01,-0.13 2.98,0.22 2.96,0.58 2.84,0.93 2.73,1.28 2.54,1.58 2.34,1.89 2.08,2.15 1.82,2.40 1.51,2.58 1.19,2.77 0.84,2.87 0.49,2.97 0.13,2.99 -0.22,3.01 -0.58,2.93 -0.94,2.86 -1.27,2.71 -1.60,2.56 -1.88,2.33 -2.16,2.10 -2.38,1.81 -2.60,1.52 -2.75,1.18 -2.89,0.85 -2.95,0.49 -3.01,0.13 -3.01,0.13 L -3.01,0.13 Z"/></g><g transform="translate(10.5 113) rotate(0 3.75 -2.25)" stroke="none"><path fill="#1e1e1e" d="M -3.19,-0.29 Q -3.19,-0.29 -3.70,-1.95 -4.22,-3.61 -2.28,-6.61 -0.34,-9.61 2.79,-9.94 5.94,-10.28 7.80,-8.71 9.67,-7.15 10.07,-4.29 10.47,-1.42 9.48,1.00 8.49,3.43 6.59,5.11 4.68,6.79 1.64,6.47 -1.39,6.15 -2.92,2.91 -4.45,-0.31 -3.93,-2.89 -3.40,-5.46 -1.47,-7.72 0.46,-9.98 3.77,-10.95 7.09,-11.93 9.67,-9.29 12.26,-6.66 11.62,-4.51 10.98,-2.36 8.04,-1.67 5.10,-0.97 5.91,-3.49 6.73,-6.00 6.42,-5.93 6.11,-5.85 5.79,-5.86 5.48,-5.86 5.17,-5.94 4.86,-6.01 4.58,-6.16 4.30,-6.31 4.07,-6.52 3.83,-6.73 3.65,-7.00 3.48,-7.26 3.37,-7.55 3.25,-7.85 3.22,-8.16 3.18,-8.48 3.22,-8.79 3.26,-9.11 3.38,-9.40 3.49,-9.70 3.67,-9.96 3.85,-10.22 4.09,-10.43 4.33,-10.63 4.61,-10.78 4.89,-10.93 4.31,-10.50 3.74,-10.08 4.05,-10.37 4.36,-10.66 4.75,-10.83 5.14,-11.00 5.56,-11.04 5.98,-11.08 6.40,-10.99 6.81,-10.89 7.17,-10.67 7.53,-10.44 7.81,-10.12 8.08,-9.79 8.23,-9.39 8.38,-9.00 8.40,-8.57 8.42,-8.15 8.30,-7.74 8.18,-7.33 7.93,-6.98 7.69,-6.63 7.35,-6.38 7.01,-6.13 6.60,-6.00 6.20,-5.87 5.77,-5.87 5.35,-5.88 4.95,-6.02 4.55,-6.16 4.21,-6.42 3.88,-6.68 3.64,-7.04 3.41,-7.39 3.30,-7.80 3.19,-8.21 3.22,-8.64 3.25,-9.06 3.41,-9.46 3.58,-9.85 3.86,-10.17 4.13,-10.49 4.50,-10.70 4.87,-10.92 5.28,-11.00 5.70,-11.09 6.12,-11.04 6.54,-10.99 6.93,-10.80 7.31,-10.62 7.62,-10.32 7.92,-10.03 8.11,-9.65 8.31,-9.27 8.37,-8.85 8.43,-8.43 8.36,-8.01 8.29,-7.59 7.51,-6.80 6.73,-6.00 6.42,-5.93 6.11,-5.85 5.79,-5.86 5.48,-5.86 5.17,-5.94 4.86,-6.01 4.58,-6.16 4.30,-6.31 4.07,-6.52 3.83,-6.73 3.65,-6.99 3.48,-7.26 3.37,-7.55 3.25,-7.85 3.22,-8.16 3.18,-8.48 3.22,-8.79 3.26,-9.11 3.38,-9.40 3.49,-9.70 3.67,-9.96 3.85,-10.22 4.09,-10.43 4.33,-10.63 4.61,-10.78 4.89,-10.93 6.16,-9.76 7.44,-8.59 5.35,-7.06 3.25,-5.53 4.01,-2.88 4.78,-0.22 2.24,-0.57 -0.29,-0.92 2.25,-1.82 4.79,-2.71 3.99,-1.21 3.19,0.29 3.11,0.66 3.02,1.04 2.86,1.39 2.69,1.74 2.44,2.03 2.19,2.33 1.88,2.56 1.57,2.79 1.21,2.93 0.86,3.08 0.47,3.14 0.09,3.20 -0.28,3.16 -0.67,3.13 -1.03,3.00 -1.40,2.88 -1.72,2.67 -2.05,2.46 -2.31,2.18 -2.58,1.89 -2.77,1.56 -2.96,1.22 -3.06,0.85 -3.16,0.48 -3.18,0.09 -3.19,-0.29 -3.19,-0.29 L -3.19,-0.29 Z"/></g><g transform="translate(346 154.5) rotate(0 -4 -57)" stroke="none"><path fill="#1e1e1e" d="M -3.31,0.18 Q -3.31,0.18 -4.32,-2.35 -5.34,-4.89 -5.48,-7.06 -5.62,-9.23 -5.91,-13.06 -6.20,-16.88 -6.37,-20.94 -6.54,-25.00 -6.71,-29.08 -6.89,-33.16 -6.97,-36.84 -7.06,-40.53 -7.23,-43.24 -7.41,-45.96 -7.48,-48.40 -7.56,-50.84 -7.73,-53.47 -7.90,-56.10 -8.22,-60.54 -8.53,-64.98 -8.72,-67.73 -8.91,-70.47 -9.27,-74.16 -9.63,-77.86 -9.80,-80.57 -9.97,-83.29 -10.59,-87.18 -11.22,-91.06 -11.74,-94.35 -12.26,-97.63 -12.45,-100.52 -12.64,-103.41 -13.01,-106.70 -13.38,-109.99 -11.99,-110.28 -10.60,-110.57 -10.60,-110.88 -10.59,-111.20 -10.51,-111.50 -10.44,-111.81 -10.28,-112.09 -10.13,-112.37 -9.92,-112.60 -9.71,-112.84 -9.45,-113.01 -9.18,-113.19 -8.89,-113.30 -8.59,-113.41 -8.27,-113.44 -7.96,-113.48 -7.65,-113.44 -7.33,-113.39 -7.04,-113.28 -6.74,-113.16 -6.48,-112.98 -6.23,-112.80 -6.02,-112.56 -5.81,-112.32 -5.67,-112.03 -5.52,-111.75 -5.45,-111.44 -5.38,-111.14 -5.45,-110.56 -5.51,-109.98 -5.72,-109.61 -5.92,-109.24 -6.23,-108.95 -6.54,-108.66 -6.93,-108.48 -7.32,-108.31 -7.74,-108.27 -8.17,-108.23 -8.58,-108.33 -8.99,-108.42 -9.35,-108.65 -9.72,-108.87 -9.99,-109.20 -10.26,-109.52 -10.41,-109.92 -10.56,-110.32 -10.58,-110.74 -10.60,-111.17 -10.48,-111.57 -10.36,-111.98 -10.12,-112.33 -9.87,-112.68 -9.53,-112.93 -9.19,-113.19 -8.79,-113.32 -8.38,-113.45 -7.96,-113.44 -7.53,-113.44 -7.13,-113.30 -6.73,-113.16 -6.40,-112.89 -6.06,-112.63 -5.83,-112.28 -5.59,-111.92 -5.48,-111.51 -5.38,-111.10 -5.40,-110.68 -5.43,-110.25 -5.59,-109.86 -5.76,-109.47 -6.04,-109.15 -6.32,-108.83 -6.68,-108.61 -7.05,-108.40 -7.47,-108.31 -7.88,-108.23 -8.30,-108.28 -8.73,-108.33 -9.11,-108.51 -9.49,-108.70 -9.80,-108.99 -10.10,-109.29 -10.30,-109.67 -10.49,-110.04 -10.55,-110.46 -10.62,-110.88 -10.61,-110.72 -10.60,-110.56 -10.60,-110.88 -10.59,-111.20 -10.51,-111.50 -10.44,-111.81 -10.28,-112.09 -10.13,-112.37 -9.92,-112.60 -9.71,-112.84 -9.45,-113.01 -9.18,-113.19 -8.89,-113.30 -8.59,-113.41 -8.27,-113.44 -7.96,-113.48 -7.65,-113.44 -7.33,-113.39 -7.04,-113.28 -6.74,-113.16 -6.48,-112.98 -6.23,-112.80 -6.02,-112.56 -5.81,-112.32 -5.67,-112.03 -5.52,-111.75 -5.45,-111.44 -5.38,-111.14 -3.47,-109.22 -1.56,-107.31 -1.35,-104.44 -1.14,-101.56 -0.80,-98.79 -0.46,-96.03 0.09,-92.31 0.65,-88.59 1.04,-86.28 1.42,-83.98 1.57,-81.46 1.71,-78.95 2.08,-75.08 2.45,-71.21 2.71,-66.29 2.97,-61.36 3.19,-59.10 3.42,-56.83 3.60,-54.01 3.78,-51.19 3.85,-48.92 3.92,-46.65 4.09,-43.69 4.26,-40.73 4.30,-37.16 4.35,-33.58 4.49,-29.37 4.63,-25.16 4.64,-21.40 4.66,-17.65 4.75,-15.31 4.85,-12.98 4.80,-9.21 4.76,-5.45 4.03,-2.81 3.31,-0.18 3.28,0.21 3.25,0.61 3.13,0.99 3.01,1.37 2.80,1.71 2.59,2.05 2.31,2.33 2.03,2.61 1.68,2.82 1.34,3.03 0.96,3.14 0.58,3.26 0.18,3.28 -0.21,3.30 -0.60,3.23 -1.00,3.16 -1.36,2.99 -1.72,2.82 -2.04,2.58 -2.35,2.33 -2.60,2.01 -2.84,1.70 -3.00,1.33 -3.17,0.97 -3.24,0.57 -3.31,0.18 -3.31,0.18 L -3.31,0.18 Z"/></g><g transform="translate(340.5 96) rotate(0 2.5 -1)" stroke="none"><path fill="#1e1e1e" d="M -3.33,-1.00 Q -3.33,-1.00 -1.92,-3.54 -0.50,-6.08 2.78,-6.32 6.08,-6.57 8.25,-3.88 10.43,-1.19 8.74,2.24 7.05,5.68 4.09,4.35 1.14,3.03 0.84,3.14 0.55,3.25 0.23,3.28 -0.07,3.31 -0.39,3.27 -0.70,3.23 -0.99,3.12 -1.29,3.00 -1.55,2.82 -1.81,2.63 -2.01,2.40 -2.22,2.16 -2.37,1.87 -2.51,1.59 -2.58,1.28 -2.65,0.98 -2.65,0.66 -2.65,0.34 -2.57,0.04 -2.49,-0.26 -2.34,-0.54 -2.19,-0.82 -1.98,-1.05 -1.76,-1.29 -1.50,-1.46 -1.24,-1.64 -1.85,-0.98 -2.47,-0.31 -2.24,-0.67 -2.02,-1.03 -1.69,-1.30 -1.36,-1.57 -0.97,-1.72 -0.57,-1.88 -0.14,-1.89 0.27,-1.91 0.68,-1.79 1.09,-1.67 1.43,-1.42 1.78,-1.18 2.03,-0.84 2.29,-0.50 2.42,-0.09 2.55,0.30 2.54,0.73 2.53,1.15 2.39,1.55 2.25,1.95 1.99,2.29 1.72,2.62 1.37,2.86 1.01,3.09 0.60,3.20 0.19,3.30 -0.22,3.27 -0.65,3.24 -1.04,3.08 -1.43,2.92 -1.75,2.64 -2.07,2.36 -2.29,1.99 -2.50,1.62 -2.58,1.21 -2.67,0.79 -2.62,0.37 -2.56,-0.04 -2.38,-0.43 -2.19,-0.81 -1.90,-1.11 -1.60,-1.42 -1.22,-1.61 -0.84,-1.80 -0.42,-1.87 -0.00,-1.93 0.41,-1.85 0.82,-1.78 1.20,-1.57 1.57,-1.37 1.86,-1.05 2.14,-0.74 2.32,-0.35 2.49,0.03 2.53,0.45 2.57,0.87 1.85,1.95 1.14,3.03 0.84,3.14 0.55,3.25 0.23,3.28 -0.07,3.31 -0.39,3.27 -0.70,3.23 -0.99,3.12 -1.29,3.00 -1.55,2.82 -1.81,2.63 -2.01,2.40 -2.22,2.16 -2.37,1.87 -2.51,1.59 -2.58,1.28 -2.65,0.98 -2.65,0.66 -2.65,0.34 -2.57,0.04 -2.49,-0.26 -2.34,-0.54 -2.19,-0.82 -1.98,-1.05 -1.76,-1.29 -1.50,-1.46 -1.24,-1.64 0.49,-0.65 2.23,0.33 2.78,0.66 3.33,1.00 3.16,1.38 2.99,1.76 2.74,2.10 2.48,2.43 2.16,2.69 1.83,2.96 1.45,3.13 1.07,3.31 0.65,3.39 0.24,3.47 -0.17,3.45 -0.59,3.43 -0.99,3.31 -1.39,3.19 -1.75,2.97 -2.11,2.76 -2.41,2.46 -2.71,2.17 -2.93,1.81 -3.16,1.46 -3.28,1.06 -3.41,0.66 -3.44,0.24 -3.47,-0.17 -3.40,-0.58 -3.33,-1.00 -3.33,-1.00 L -3.33,-1.00 Z"/></g><g transform="translate(19.5 104.5) rotate(0 89 -5.25)" stroke="none"><path fill="#1e1e1e" d="M 0.52,-2.90 Q 0.52,-2.90 2.25,-3.41 3.97,-3.91 4.18,-6.08 4.39,-8.24 5.47,-10.91 6.54,-13.58 8.24,-15.06 9.95,-16.54 12.49,-17.36 15.04,-18.19 17.63,-18.12 20.22,-18.06 22.25,-17.40 24.28,-16.74 26.33,-15.28 28.38,-13.83 29.53,-12.02 30.69,-10.22 31.54,-8.10 32.40,-5.99 32.98,-3.91 33.56,-1.83 33.91,0.65 34.26,3.15 34.29,5.36 34.32,7.58 34.10,9.81 33.87,12.05 31.17,14.56 28.48,17.07 25.46,16.13 22.44,15.20 21.00,12.43 19.55,9.65 19.59,7.03 19.62,4.40 20.59,1.83 21.56,-0.73 23.28,-3.17 24.99,-5.62 26.20,-7.47 27.41,-9.32 28.76,-11.28 30.10,-13.24 31.63,-14.90 33.16,-16.56 36.20,-17.60 39.24,-18.63 42.14,-17.25 45.04,-15.87 46.99,-13.58 48.95,-11.29 50.25,-9.46 51.55,-7.63 53.06,-5.07 54.56,-2.50 55.37,0.31 56.17,3.14 56.50,5.72 56.83,8.29 56.34,11.08 55.84,13.86 51.99,15.53 48.15,17.20 45.92,14.76 43.70,12.33 43.91,8.70 44.11,5.07 45.06,1.64 46.00,-1.78 47.09,-4.69 48.17,-7.61 49.43,-10.02 50.69,-12.43 52.22,-13.97 53.74,-15.52 55.61,-16.74 57.48,-17.96 60.21,-19.00 62.95,-20.04 65.27,-20.24 67.59,-20.44 70.01,-19.96 72.44,-19.48 74.69,-18.10 76.94,-16.72 78.38,-14.47 79.82,-12.22 81.06,-9.62 82.30,-7.02 82.77,-4.35 83.23,-1.69 83.29,0.44 83.35,2.58 83.05,5.85 82.75,9.12 78.55,10.07 74.36,11.01 72.97,9.00 71.58,6.99 71.52,4.49 71.47,1.99 71.80,-1.04 72.14,-4.07 73.64,-7.36 75.13,-10.65 76.25,-12.50 77.37,-14.35 79.04,-15.93 80.72,-17.52 82.91,-19.03 85.09,-20.54 87.57,-21.37 90.06,-22.20 92.87,-21.93 95.69,-21.66 97.44,-20.38 99.19,-19.09 100.55,-17.28 101.91,-15.47 103.11,-13.24 104.30,-11.00 104.85,-8.72 105.40,-6.44 105.88,-4.14 106.35,-1.84 106.70,1.42 107.05,4.69 105.07,8.59 103.10,12.50 100.73,12.46 98.37,12.43 96.14,9.48 93.92,6.53 93.98,3.35 94.04,0.16 94.82,-2.00 95.60,-4.18 96.72,-6.95 97.84,-9.72 99.06,-12.15 100.28,-14.59 101.64,-16.78 103.01,-18.97 104.57,-20.84 106.13,-22.70 109.29,-23.20 112.46,-23.70 114.95,-22.40 117.44,-21.09 119.42,-18.99 121.40,-16.90 122.74,-15.07 124.07,-13.24 125.76,-10.44 127.45,-7.63 128.04,-5.40 128.62,-3.18 128.78,0.13 128.94,3.44 128.13,5.44 127.32,7.44 123.73,9.24 120.15,11.05 117.77,8.27 115.38,5.50 115.94,2.54 116.50,-0.42 117.45,-2.58 118.40,-4.75 119.41,-7.49 120.42,-10.23 122.24,-13.14 124.05,-16.06 126.03,-18.29 128.01,-20.53 129.60,-22.13 131.18,-23.73 133.82,-24.78 136.46,-25.82 138.82,-25.30 141.19,-24.77 142.92,-23.51 144.66,-22.25 146.97,-20.44 149.27,-18.63 150.65,-16.81 152.03,-14.99 152.70,-12.51 153.37,-10.03 153.40,-7.38 153.43,-4.73 152.83,-1.64 152.23,1.43 150.55,4.04 148.88,6.65 144.61,5.85 140.35,5.04 139.37,2.37 138.40,-0.29 138.57,-2.46 138.74,-4.64 139.36,-7.23 139.98,-9.81 140.89,-11.76 141.81,-13.72 143.01,-15.88 144.22,-18.05 145.84,-20.08 147.47,-22.10 149.44,-23.63 151.41,-25.16 153.32,-26.14 155.22,-27.12 158.00,-27.85 160.78,-28.59 163.34,-28.75 165.91,-28.92 168.10,-28.17 170.29,-27.42 172.52,-25.23 174.76,-23.04 175.47,-20.31 176.18,-17.57 176.28,-15.11 176.38,-12.65 175.99,-9.05 175.60,-5.45 174.98,-3.16 174.37,-0.87 173.66,1.42 172.95,3.73 172.42,4.74 171.89,5.75 171.54,6.31 171.20,6.88 170.72,7.35 170.25,7.82 169.68,8.16 169.11,8.51 168.47,8.70 167.83,8.90 167.16,8.94 166.50,8.97 165.84,8.85 165.19,8.73 164.58,8.45 163.97,8.17 163.45,7.76 162.93,7.35 162.52,6.82 162.11,6.29 161.84,5.68 161.57,5.07 161.45,4.42 161.33,3.76 161.38,3.10 161.42,2.43 161.62,1.79 161.82,1.16 162.02,3.78 162.22,6.39 161.62,4.33 161.03,2.27 161.94,-0.45 162.85,-3.17 164.07,-5.51 165.28,-7.85 166.32,-9.75 167.36,-11.64 168.69,-13.34 170.01,-15.04 174.44,-15.26 178.86,-15.48 179.22,-15.26 179.58,-15.03 179.85,-14.70 180.12,-14.37 180.27,-13.98 180.42,-13.58 180.44,-13.15 180.45,-12.73 180.33,-12.32 180.21,-11.91 179.97,-11.57 179.72,-11.22 179.38,-10.97 179.04,-10.72 178.63,-10.59 178.23,-10.46 177.80,-10.47 177.38,-10.47 176.98,-10.62 176.58,-10.76 176.24,-11.02 175.91,-11.28 175.68,-11.64 175.44,-11.99 175.34,-12.41 175.23,-12.82 175.26,-13.24 175.29,-13.67 175.46,-14.06 175.62,-14.45 175.90,-14.77 176.18,-15.09 176.55,-15.30 176.92,-15.51 177.33,-15.60 177.75,-15.68 178.17,-15.63 178.59,-15.58 178.97,-15.39 179.36,-15.21 179.66,-14.91 179.96,-14.61 180.16,-14.23 180.35,-13.85 180.41,-13.43 180.47,-13.01 180.40,-12.59 180.32,-12.18 180.12,-11.80 179.91,-11.43 179.60,-11.15 179.28,-10.86 178.89,-10.69 178.51,-10.51 178.08,-10.48 177.66,-10.44 177.25,-10.54 176.83,-10.63 176.83,-10.63 176.83,-10.63 177.35,-8.63 177.87,-6.62 176.57,-4.54 175.26,-2.46 173.17,-1.23 171.08,-0.00 171.49,2.87 171.89,5.74 171.54,6.31 171.20,6.88 170.72,7.35 170.25,7.82 169.68,8.16 169.11,8.51 168.47,8.70 167.83,8.90 167.17,8.94 166.50,8.97 165.84,8.85 165.19,8.73 164.58,8.45 163.97,8.17 163.45,7.76 162.93,7.35 162.52,6.82 162.11,6.29 161.84,5.68 161.57,5.07 161.45,4.42 161.33,3.76 161.38,3.10 161.42,2.43 161.62,1.80 161.82,1.16 162.47,-0.15 163.11,-1.46 163.67,-4.60 164.24,-7.74 164.41,-10.13 164.59,-12.51 164.62,-14.99 164.65,-17.47 162.55,-17.09 160.45,-16.70 158.22,-15.45 155.99,-14.21 154.33,-11.79 152.66,-9.38 151.51,-7.01 150.36,-4.64 149.84,-2.45 149.33,-0.26 144.94,-0.31 140.55,-0.36 141.04,-3.01 141.52,-5.67 141.28,-7.81 141.04,-9.95 139.67,-12.06 138.30,-14.18 136.69,-12.52 135.08,-10.85 133.26,-8.25 131.44,-5.64 130.32,-2.84 129.20,-0.05 128.02,1.89 126.83,3.84 124.95,2.10 123.07,0.36 120.39,0.40 117.71,0.44 116.97,-2.10 116.23,-4.66 114.64,-6.67 113.05,-8.68 113.13,-11.12 113.21,-13.57 111.94,-11.54 110.68,-9.51 109.66,-7.46 108.65,-5.42 107.56,-2.85 106.47,-0.27 104.85,1.64 103.22,3.57 99.38,3.39 95.53,3.22 95.21,0.47 94.89,-2.26 94.38,-4.40 93.87,-6.55 92.81,-8.69 91.76,-10.82 89.76,-9.44 87.76,-8.05 86.34,-6.20 84.93,-4.35 83.74,-2.02 82.56,0.29 81.35,2.09 80.14,3.90 76.41,3.82 72.68,3.73 72.58,1.30 72.47,-1.12 71.87,-3.24 71.27,-5.35 69.60,-7.43 67.93,-9.50 65.64,-9.09 63.35,-8.67 61.36,-7.19 59.37,-5.70 58.27,-2.89 57.16,-0.09 56.36,1.99 55.55,4.08 53.55,6.28 51.54,8.49 48.76,7.63 45.99,6.77 45.23,3.92 44.47,1.06 43.19,-0.91 41.92,-2.90 40.20,-4.90 38.49,-6.90 36.84,-4.49 35.19,-2.08 33.71,0.00 32.23,2.09 30.60,4.54 28.96,6.98 26.31,6.71 23.66,6.43 23.63,4.07 23.59,1.72 22.92,-0.61 22.25,-2.95 21.30,-5.32 20.34,-7.70 17.33,-7.74 14.33,-7.78 13.76,-5.68 13.20,-3.59 12.18,-1.08 11.16,1.41 9.63,2.91 8.10,4.41 5.22,4.74 2.34,5.06 0.90,3.98 -0.52,2.90 -0.86,2.80 -1.20,2.69 -1.51,2.51 -1.81,2.32 -2.07,2.07 -2.32,1.82 -2.50,1.52 -2.69,1.21 -2.79,0.87 -2.90,0.53 -2.92,0.18 -2.95,-0.17 -2.88,-0.52 -2.82,-0.87 -2.67,-1.20 -2.53,-1.52 -2.31,-1.80 -2.09,-2.08 -1.81,-2.30 -1.53,-2.52 -1.20,-2.67 -0.88,-2.82 -0.53,-2.88 -0.18,-2.94 0.17,-2.92 0.52,-2.90 0.52,-2.90 L 0.52,-2.90 Z"/></g><g transform="translate(194.5 92.5) rotate(0 72.5 -4.25)" stroke="none"><path fill="#1e1e1e" d="M -1.81,-2.18 Q -1.81,-2.18 -1.46,-3.50 -1.12,-4.83 0.45,-6.48 2.03,-8.13 3.95,-9.92 5.87,-11.71 7.90,-12.98 9.94,-14.25 12.12,-15.28 14.29,-16.31 16.87,-17.00 19.45,-17.69 22.06,-17.83 24.68,-17.98 27.73,-17.58 30.78,-17.18 33.49,-16.96 36.21,-16.74 38.32,-16.24 40.43,-15.75 43.61,-14.78 46.78,-13.81 48.89,-12.77 50.99,-11.73 53.09,-10.20 55.18,-8.68 56.86,-6.77 58.55,-4.86 59.47,-2.85 60.40,-0.85 60.54,1.53 60.67,3.93 58.00,6.75 55.32,9.58 53.16,8.97 50.99,8.35 49.66,6.09 48.33,3.83 47.46,1.33 46.58,-1.15 47.94,-4.01 49.29,-6.86 51.82,-8.44 54.34,-10.01 57.17,-11.12 60.00,-12.22 62.29,-13.11 64.57,-14.01 67.07,-14.86 69.56,-15.72 72.13,-16.33 74.69,-16.93 76.96,-16.97 79.23,-17.00 81.42,-16.79 83.61,-16.57 86.05,-16.55 88.50,-16.52 90.84,-17.19 93.18,-17.87 96.51,-18.39 99.83,-18.90 102.32,-18.96 104.80,-19.01 107.31,-18.25 109.83,-17.49 111.39,-15.89 112.96,-14.29 113.70,-11.82 114.43,-9.35 114.28,-6.86 114.13,-4.36 113.61,-2.22 113.08,-0.09 111.74,2.50 110.40,5.10 109.06,6.78 107.72,8.46 104.63,9.01 101.55,9.56 99.20,7.28 96.86,5.00 96.65,1.91 96.43,-1.16 97.11,-3.18 97.78,-5.20 99.78,-7.60 101.77,-10.01 104.20,-11.45 106.64,-12.89 109.52,-14.30 112.41,-15.70 114.90,-16.22 117.40,-16.74 120.48,-16.90 123.56,-17.06 126.15,-17.11 128.75,-17.16 131.94,-16.80 135.13,-16.44 137.48,-16.20 139.83,-15.95 142.56,-15.41 145.30,-14.87 146.21,-10.55 147.12,-6.23 147.05,-5.81 146.98,-5.39 146.78,-5.02 146.57,-4.65 146.26,-4.36 145.95,-4.07 145.56,-3.89 145.18,-3.72 144.75,-3.68 144.33,-3.63 143.92,-3.73 143.50,-3.82 143.14,-4.05 142.78,-4.27 142.51,-4.59 142.23,-4.92 142.08,-5.32 141.93,-5.71 141.91,-6.14 141.89,-6.56 142.01,-6.97 142.12,-7.38 142.37,-7.73 142.61,-8.08 142.95,-8.33 143.29,-8.59 143.69,-8.72 144.10,-8.85 144.52,-8.85 144.95,-8.84 145.35,-8.70 145.75,-8.56 146.08,-8.30 146.42,-8.04 146.66,-7.69 146.89,-7.34 147.00,-6.93 147.11,-6.52 147.08,-6.09 147.06,-5.67 146.90,-5.27 146.74,-4.88 146.46,-4.56 146.18,-4.24 145.81,-4.02 145.45,-3.81 145.03,-3.72 144.62,-3.63 144.19,-3.68 143.77,-3.73 143.39,-3.91 143.00,-4.09 142.70,-4.39 142.39,-4.68 142.20,-5.06 142.00,-5.44 141.94,-5.86 141.87,-6.28 141.87,-6.28 141.87,-6.28 141.22,-5.18 140.56,-4.08 138.16,-4.21 135.75,-4.35 132.91,-4.88 130.06,-5.40 127.54,-5.63 125.01,-5.87 122.66,-5.90 120.30,-5.93 118.09,-5.65 115.88,-5.38 113.41,-4.21 110.93,-3.04 108.73,-1.06 106.53,0.92 103.27,0.83 100.01,0.75 101.11,-1.12 102.21,-3.00 102.14,-5.46 102.06,-7.93 99.39,-7.67 96.73,-7.40 93.87,-6.66 91.02,-5.93 88.58,-5.71 86.14,-5.49 83.49,-5.63 80.84,-5.78 78.59,-5.87 76.33,-5.96 73.86,-5.45 71.39,-4.95 69.41,-4.14 67.43,-3.33 64.98,-2.41 62.54,-1.49 59.87,-0.30 57.20,0.89 56.38,-1.34 55.56,-3.57 56.60,-1.32 57.64,0.93 54.02,1.23 50.41,1.53 48.62,-0.34 46.83,-2.21 44.11,-3.55 41.39,-4.88 39.16,-5.38 36.93,-5.87 34.39,-6.41 31.84,-6.95 29.25,-7.28 26.65,-7.61 24.08,-7.88 21.52,-8.14 19.26,-7.74 17.00,-7.34 14.86,-6.12 12.73,-4.91 10.59,-3.52 8.45,-2.13 6.51,-0.09 4.57,1.95 3.19,2.06 1.81,2.18 1.52,2.36 1.24,2.55 0.91,2.66 0.59,2.77 0.25,2.80 -0.08,2.83 -0.42,2.78 -0.76,2.73 -1.07,2.60 -1.39,2.47 -1.66,2.26 -1.94,2.06 -2.16,1.80 -2.38,1.54 -2.53,1.23 -2.68,0.92 -2.75,0.59 -2.82,0.25 -2.81,-0.08 -2.80,-0.42 -2.71,-0.75 -2.62,-1.08 -2.45,-1.38 -2.28,-1.68 -2.05,-1.93 -1.81,-2.18 -1.81,-2.18 L -1.81,-2.18 Z"/></g><g transform="translate(191.5 162.5) rotate(0 -0.25 -40.25)" stroke="none"><path fill="#343a40" d="M -0.79,0 Q -0.79,0 -1.02,-0.86 -1.25,-1.72 -1.39,-2.40 -1.54,-3.09 -1.62,-4.37 -1.70,-5.65 -1.74,-6.76 -1.77,-7.86 -1.79,-8.76 -1.80,-9.66 -1.81,-10.62 -1.82,-11.58 -1.82,-12.27 -1.82,-12.97 -1.83,-13.69 -1.83,-14.42 -1.83,-15.21 -1.83,-16.00 -1.83,-16.55 -1.84,-17.10 -1.84,-17.64 -1.84,-18.18 -2.05,-19.45 -2.25,-20.72 -2.28,-21.36 -2.31,-22.01 -2.32,-22.58 -2.33,-23.15 -2.34,-23.84 -2.35,-24.54 -2.35,-25.22 -2.35,-25.90 -2.35,-26.70 -2.35,-27.49 -2.35,-28.05 -2.35,-28.60 -2.35,-29.32 -2.35,-30.03 -2.35,-30.77 -2.35,-31.52 -2.35,-32.27 -2.35,-33.02 -2.35,-33.56 -2.35,-34.11 -2.35,-34.86 -2.35,-35.62 -2.35,-36.33 -2.35,-37.03 -2.13,-37.89 -1.90,-38.75 -1.88,-39.49 -1.87,-40.23 -1.86,-41.24 -1.86,-42.25 -1.86,-42.90 -1.86,-43.54 -1.86,-44.10 -1.87,-44.66 -1.87,-45.85 -1.87,-47.03 -1.88,-47.74 -1.88,-48.45 -1.73,-49.44 -1.58,-50.42 -1.53,-51.72 -1.49,-53.02 -1.46,-54.02 -1.44,-55.03 -1.43,-56.02 -1.42,-57.02 -1.42,-58.45 -1.41,-59.88 -1.26,-61.15 -1.11,-62.42 -1.06,-63.31 -1.00,-64.21 -0.97,-65.10 -0.94,-65.99 -0.94,-66.54 -0.93,-67.10 -1.12,-67.67 -1.31,-68.23 -1.55,-68.73 -1.78,-69.23 -1.85,-70.19 -1.92,-71.16 -1.93,-71.85 -1.94,-72.54 -1.94,-73.28 -1.95,-74.02 -1.95,-74.59 -1.95,-75.16 -1.95,-75.83 -1.95,-76.50 -1.95,-77.36 -1.96,-78.22 -1.35,-77.77 -0.74,-77.33 -0.73,-77.41 -0.72,-77.48 -0.69,-77.56 -0.67,-77.63 -0.62,-77.70 -0.58,-77.76 -0.52,-77.81 -0.46,-77.87 -0.39,-77.90 -0.32,-77.94 -0.24,-77.96 -0.16,-77.98 -0.09,-77.98 -0.01,-77.98 0.06,-77.96 0.14,-77.94 0.21,-77.90 0.28,-77.87 0.34,-77.81 0.40,-77.76 0.44,-77.70 0.49,-77.63 0.51,-77.56 0.54,-77.48 0.55,-77.41 0.56,-77.33 0.56,-77.31 0.56,-77.29 0.54,-77.18 0.51,-77.08 0.46,-76.99 0.40,-76.90 0.32,-76.83 0.24,-76.76 0.14,-76.72 0.04,-76.68 -0.05,-76.68 -0.16,-76.67 -0.26,-76.70 -0.36,-76.73 -0.45,-76.79 -0.54,-76.85 -0.60,-76.94 -0.67,-77.02 -0.70,-77.12 -0.73,-77.22 -0.73,-77.33 -0.73,-77.44 -0.70,-77.54 -0.66,-77.64 -0.60,-77.72 -0.53,-77.81 -0.45,-77.86 -0.36,-77.92 -0.26,-77.95 -0.15,-77.98 -0.05,-77.97 0.05,-77.97 0.15,-77.93 0.25,-77.89 0.33,-77.82 0.41,-77.75 0.46,-77.66 0.52,-77.57 0.54,-77.46 0.56,-77.36 0.55,-77.25 0.54,-77.15 0.49,-77.05 0.45,-76.96 0.37,-76.88 0.30,-76.80 0.21,-76.75 0.11,-76.70 0.01,-76.69 -0.09,-76.67 -0.19,-76.69 -0.30,-76.71 -0.39,-76.76 -0.49,-76.81 -0.56,-76.88 -0.63,-76.96 -0.67,-77.06 -0.72,-77.15 -0.73,-77.24 -0.74,-77.33 -0.73,-77.41 -0.72,-77.48 -0.69,-77.56 -0.67,-77.63 -0.62,-77.70 -0.58,-77.76 -0.52,-77.81 -0.46,-77.87 -0.39,-77.90 -0.32,-77.94 -0.24,-77.96 -0.16,-77.98 -0.09,-77.98 -0.01,-77.98 0.06,-77.96 0.14,-77.94 0.21,-77.90 0.28,-77.87 0.34,-77.81 0.40,-77.76 0.44,-77.70 0.49,-77.63 0.51,-77.56 0.54,-77.48 0.55,-77.41 0.56,-77.33 0.76,-77.77 0.96,-78.22 0.95,-77.36 0.95,-76.50 0.95,-75.83 0.95,-75.16 0.95,-74.59 0.95,-74.02 0.95,-73.29 0.95,-72.56 0.95,-71.90 0.96,-71.23 0.97,-70.53 0.98,-69.83 1.27,-69.11 1.56,-68.40 1.74,-67.77 1.92,-67.14 1.90,-66.13 1.88,-65.13 1.85,-64.57 1.82,-64.02 1.75,-63.05 1.68,-62.07 1.54,-60.97 1.40,-59.87 1.39,-58.43 1.39,-56.99 1.38,-55.97 1.36,-54.96 1.33,-53.93 1.30,-52.89 1.23,-51.43 1.16,-49.97 1.02,-49.21 0.88,-48.44 0.88,-47.73 0.87,-47.03 0.87,-45.84 0.87,-44.66 0.86,-44.10 0.86,-43.54 0.85,-42.89 0.85,-42.24 0.84,-41.21 0.84,-40.17 0.78,-39.24 0.72,-38.30 0.54,-37.67 0.35,-37.03 0.35,-36.33 0.35,-35.62 0.35,-34.86 0.35,-34.11 0.35,-33.56 0.35,-33.02 0.35,-32.27 0.35,-31.52 0.35,-30.77 0.35,-30.03 0.35,-29.32 0.35,-28.60 0.35,-28.05 0.35,-27.49 0.35,-26.70 0.35,-25.90 0.35,-25.23 0.35,-24.55 0.36,-23.88 0.36,-23.20 0.37,-22.67 0.38,-22.13 0.41,-21.52 0.43,-20.92 0.47,-20.25 0.51,-19.58 0.67,-18.89 0.84,-18.20 0.84,-17.65 0.84,-17.10 0.83,-16.55 0.83,-16.00 0.83,-15.21 0.83,-14.42 0.83,-13.70 0.83,-12.97 0.83,-12.28 0.83,-11.59 0.83,-10.64 0.83,-9.69 0.84,-8.81 0.85,-7.92 0.86,-6.85 0.88,-5.78 0.92,-4.66 0.96,-3.54 1.11,-2.63 1.25,-1.72 1.02,-0.86 0.79,0 0.78,0.09 0.77,0.19 0.74,0.28 0.70,0.37 0.65,0.45 0.59,0.52 0.52,0.59 0.45,0.65 0.36,0.70 0.28,0.74 0.18,0.76 0.09,0.79 -0.00,0.79 -0.09,0.79 -0.18,0.76 -0.28,0.74 -0.36,0.70 -0.45,0.65 -0.52,0.59 -0.59,0.52 -0.65,0.45 -0.70,0.37 -0.74,0.28 -0.77,0.19 -0.78,0.09 -0.79,-0.00 -0.79,-0.00 L -0.79,0 Z"/></g><g transform="translate(190.5 162) rotate(0 4 -53.25)" stroke="none"><path fill="#343a40" d="M 0,-0.77 Q 0,-0.77 1.00,-0.99 2.01,-1.22 3.44,-1.24 4.88,-1.26 5.63,-1.26 6.38,-1.26 6.17,-0.64 5.95,-0.02 5.82,-0.62 5.70,-1.22 5.45,-2.42 5.21,-3.63 5.04,-4.49 4.88,-5.36 4.79,-6.70 4.71,-8.05 4.54,-9.09 4.37,-10.14 4.29,-11.24 4.20,-12.35 4.17,-13.54 4.13,-14.74 4.12,-15.82 4.10,-16.90 4.09,-18.22 4.09,-19.54 4.08,-20.53 4.08,-21.53 4.07,-22.38 4.07,-23.23 4.07,-24.17 4.07,-25.11 3.93,-25.82 3.80,-26.53 3.73,-27.97 3.66,-29.42 3.63,-30.44 3.60,-31.47 3.59,-32.63 3.58,-33.78 3.57,-34.71 3.57,-35.63 3.43,-36.49 3.29,-37.35 3.22,-38.25 3.15,-39.14 2.99,-40.16 2.82,-41.18 2.74,-42.42 2.66,-43.67 2.62,-44.62 2.59,-45.58 2.73,-46.54 2.87,-47.50 2.92,-48.22 2.97,-48.94 3.20,-50.00 3.44,-51.06 3.47,-51.72 3.50,-52.38 3.51,-52.99 3.52,-53.59 3.53,-54.14 3.53,-54.69 3.53,-55.86 3.53,-57.03 3.53,-57.74 3.53,-58.45 3.53,-59.04 3.53,-59.62 3.53,-60.16 3.53,-60.70 3.39,-61.69 3.25,-62.69 3.19,-63.48 3.12,-64.27 3.10,-65.20 3.07,-66.12 2.93,-66.65 2.79,-67.18 2.71,-67.83 2.64,-68.48 2.60,-69.36 2.57,-70.24 2.56,-71.46 2.55,-72.69 2.54,-73.50 2.54,-74.30 2.53,-75.28 2.53,-76.26 2.52,-77.06 2.52,-77.85 2.52,-78.46 2.51,-79.08 2.41,-79.74 2.30,-80.40 2.17,-81.50 2.03,-82.59 2.02,-83.58 2.01,-84.56 2.01,-85.26 2.00,-85.96 1.89,-86.66 1.77,-87.36 1.65,-88.31 1.53,-89.26 1.52,-90.20 1.51,-91.14 1.50,-91.97 1.50,-92.79 1.66,-93.59 1.82,-94.38 1.86,-94.99 1.91,-95.59 1.94,-96.32 1.97,-97.05 1.98,-97.73 1.99,-98.40 1.79,-99.32 1.60,-100.24 1.55,-101.10 1.51,-101.96 1.50,-102.74 1.49,-103.51 1.49,-104.08 1.49,-104.65 1.89,-104.30 2.29,-103.95 2.30,-104.03 2.31,-104.11 2.33,-104.18 2.36,-104.26 2.41,-104.32 2.45,-104.39 2.51,-104.44 2.57,-104.49 2.64,-104.53 2.71,-104.57 2.79,-104.59 2.86,-104.61 2.94,-104.61 3.02,-104.61 3.10,-104.59 3.18,-104.57 3.25,-104.53 3.32,-104.50 3.37,-104.44 3.43,-104.39 3.48,-104.33 3.52,-104.26 3.55,-104.19 3.58,-104.11 3.59,-104.03 3.60,-103.96 3.59,-103.89 3.58,-103.82 3.55,-103.72 3.51,-103.62 3.44,-103.54 3.37,-103.46 3.28,-103.40 3.19,-103.35 3.08,-103.32 2.98,-103.30 2.88,-103.31 2.77,-103.32 2.67,-103.37 2.58,-103.41 2.50,-103.48 2.42,-103.56 2.37,-103.65 2.32,-103.74 2.30,-103.85 2.29,-103.95 2.30,-104.06 2.32,-104.16 2.37,-104.26 2.42,-104.35 2.50,-104.42 2.57,-104.50 2.67,-104.54 2.76,-104.59 2.87,-104.60 2.98,-104.61 3.08,-104.59 3.18,-104.57 3.28,-104.51 3.37,-104.46 3.44,-104.38 3.50,-104.30 3.54,-104.20 3.58,-104.10 3.59,-103.99 3.60,-103.89 3.57,-103.78 3.54,-103.68 3.48,-103.59 3.42,-103.50 3.34,-103.44 3.25,-103.38 3.15,-103.34 3.05,-103.31 2.95,-103.31 2.84,-103.31 2.74,-103.34 2.64,-103.37 2.55,-103.44 2.47,-103.50 2.41,-103.59 2.35,-103.68 2.32,-103.78 2.29,-103.88 2.29,-103.92 2.29,-103.95 2.30,-104.03 2.31,-104.11 2.33,-104.18 2.36,-104.26 2.41,-104.32 2.45,-104.39 2.51,-104.44 2.57,-104.49 2.64,-104.53 2.71,-104.57 2.79,-104.59 2.86,-104.61 2.94,-104.61 3.02,-104.61 3.10,-104.59 3.18,-104.57 3.25,-104.53 3.32,-104.50 3.37,-104.44 3.43,-104.39 3.48,-104.33 3.52,-104.26 3.55,-104.19 3.58,-104.11 3.59,-104.03 3.60,-103.96 4.05,-104.31 4.50,-104.66 4.51,-103.77 4.51,-102.88 4.52,-102.17 4.54,-101.46 4.59,-100.91 4.63,-100.35 4.82,-99.37 5.00,-98.38 4.99,-97.67 4.98,-96.96 4.94,-96.14 4.90,-95.33 4.70,-94.06 4.50,-92.79 4.51,-91.98 4.51,-91.18 4.52,-90.31 4.53,-89.44 4.59,-88.84 4.65,-88.23 4.83,-87.10 5.00,-85.98 5.01,-85.29 5.01,-84.60 5.02,-83.66 5.03,-82.73 5.07,-82.07 5.11,-81.42 5.29,-80.78 5.47,-80.15 5.47,-79.61 5.48,-79.08 5.47,-78.46 5.47,-77.85 5.47,-77.06 5.46,-76.27 5.47,-75.29 5.47,-74.32 5.47,-73.52 5.48,-72.72 5.49,-71.53 5.50,-70.34 5.58,-69.09 5.65,-67.84 5.83,-67.03 6.00,-66.22 6.02,-65.36 6.05,-64.50 6.10,-63.79 6.16,-63.07 6.31,-61.89 6.46,-60.70 6.46,-60.16 6.46,-59.62 6.46,-59.03 6.46,-58.45 6.45,-57.74 6.45,-57.03 6.45,-55.84 6.44,-54.66 6.44,-54.10 6.43,-53.53 6.42,-52.87 6.40,-52.21 6.37,-51.67 6.33,-51.14 6.21,-50.52 6.10,-49.91 5.98,-49.32 5.86,-48.74 5.80,-47.89 5.73,-47.05 5.61,-46.35 5.49,-45.66 5.52,-44.75 5.55,-43.85 5.61,-42.74 5.67,-41.63 5.85,-40.49 6.02,-39.36 6.08,-38.57 6.13,-37.78 6.28,-36.71 6.43,-35.65 6.44,-34.73 6.44,-33.81 6.45,-32.68 6.47,-31.54 6.49,-30.55 6.52,-29.55 6.57,-28.28 6.61,-27.01 6.77,-26.06 6.92,-25.11 6.92,-24.18 6.92,-23.24 6.92,-22.39 6.92,-21.53 6.92,-20.54 6.92,-19.55 6.92,-18.24 6.93,-16.93 6.94,-15.87 6.95,-14.81 6.98,-13.68 7.01,-12.55 7.07,-11.56 7.14,-10.57 7.32,-9.39 7.50,-8.21 7.56,-7.04 7.63,-5.87 7.81,-4.86 7.99,-3.86 7.99,-3.26 7.98,-2.67 8.19,-2.02 8.40,-1.37 8.55,-0.80 8.70,-0.24 8.39,0.24 8.09,0.73 7.23,0.99 6.38,1.26 5.63,1.26 4.88,1.26 3.44,1.24 2.01,1.22 1.00,0.99 0,0.77 -0.09,0.76 -0.18,0.75 -0.27,0.71 -0.35,0.68 -0.43,0.63 -0.51,0.57 -0.57,0.50 -0.63,0.43 -0.68,0.35 -0.72,0.27 -0.74,0.18 -0.76,0.09 -0.76,-0.00 -0.76,-0.09 -0.74,-0.18 -0.72,-0.27 -0.68,-0.35 -0.63,-0.43 -0.57,-0.50 -0.51,-0.57 -0.43,-0.63 -0.35,-0.68 -0.27,-0.71 -0.18,-0.75 -0.09,-0.76 0.00,-0.77 0.00,-0.77 L 0,-0.77 Z"/></g><g transform="translate(193 59) rotate(0 -2.5 28.25)" stroke="none"><path fill="#343a40" d="M -0.16,0.67 Q -0.16,0.67 -0.82,0.84 -1.47,1.00 -2.06,0.96 -2.66,0.92 -3.35,0.91 -4.04,0.90 -3.43,1.05 -2.83,1.20 -2.48,2.53 -2.13,3.86 -1.85,4.95 -1.57,6.05 -1.29,7.41 -1.02,8.77 -0.76,9.89 -0.50,11.01 -0.38,12.15 -0.25,13.29 -0.20,14.50 -0.14,15.71 0.01,16.70 0.16,17.70 0.24,18.94 0.32,20.17 0.36,21.42 0.39,22.66 0.54,23.67 0.69,24.68 0.76,26.07 0.84,27.46 0.87,28.47 0.90,29.48 0.91,30.64 0.93,31.79 0.93,32.71 0.94,33.63 0.94,34.60 0.94,35.57 0.94,36.98 0.95,38.40 0.95,39.58 0.95,40.75 0.95,41.54 0.95,42.33 0.95,43.10 0.95,43.86 0.95,44.91 0.95,45.95 0.95,46.83 0.95,47.70 0.95,48.79 0.95,49.88 0.95,50.78 0.95,51.67 0.95,53.06 0.95,54.45 0.55,54.37 0.15,54.30 0.14,54.38 0.13,54.46 0.10,54.53 0.08,54.60 0.03,54.67 -0.00,54.73 -0.06,54.79 -0.12,54.84 -0.19,54.88 -0.26,54.91 -0.34,54.93 -0.42,54.95 -0.50,54.95 -0.57,54.95 -0.65,54.93 -0.73,54.91 -0.80,54.88 -0.87,54.84 -0.93,54.79 -0.99,54.73 -1.03,54.67 -1.08,54.60 -1.10,54.53 -1.13,54.45 -1.14,54.38 -1.15,54.30 -1.13,54.19 -1.12,54.09 -1.07,53.99 -1.02,53.90 -0.94,53.83 -0.86,53.75 -0.77,53.71 -0.67,53.67 -0.57,53.65 -0.46,53.64 -0.36,53.67 -0.25,53.69 -0.16,53.74 -0.07,53.80 -0.00,53.88 0.06,53.96 0.10,54.06 0.14,54.16 0.14,54.26 0.15,54.37 0.12,54.47 0.09,54.57 0.03,54.66 -0.02,54.75 -0.10,54.81 -0.19,54.88 -0.29,54.91 -0.39,54.95 -0.50,54.95 -0.60,54.95 -0.70,54.91 -0.80,54.88 -0.89,54.81 -0.97,54.75 -1.03,54.66 -1.09,54.57 -1.12,54.47 -1.15,54.37 -1.14,54.26 -1.14,54.16 -1.10,54.06 -1.06,53.96 -0.99,53.88 -0.92,53.80 -0.83,53.74 -0.74,53.69 -0.63,53.67 -0.53,53.64 -0.42,53.65 -0.32,53.67 -0.22,53.71 -0.13,53.75 -0.05,53.83 0.02,53.90 0.07,53.99 0.12,54.09 0.13,54.19 0.15,54.30 0.15,54.30 0.15,54.30 0.14,54.38 0.13,54.45 0.10,54.53 0.08,54.60 0.03,54.67 -0.00,54.73 -0.06,54.79 -0.12,54.84 -0.19,54.88 -0.26,54.91 -0.34,54.93 -0.42,54.95 -0.49,54.95 -0.57,54.95 -0.65,54.93 -0.73,54.91 -0.80,54.88 -0.87,54.84 -0.93,54.79 -0.99,54.73 -1.03,54.67 -1.08,54.60 -1.10,54.53 -1.13,54.46 -1.14,54.38 -1.15,54.30 -1.55,54.37 -1.95,54.45 -1.95,53.06 -1.95,51.67 -1.95,50.78 -1.95,49.88 -1.95,48.79 -1.95,47.70 -1.95,46.83 -1.95,45.95 -1.95,44.91 -1.95,43.86 -1.95,43.10 -1.95,42.33 -1.95,41.54 -1.95,40.76 -1.95,39.58 -1.95,38.40 -1.95,36.99 -1.95,35.57 -1.95,34.61 -1.95,33.65 -1.96,32.74 -1.96,31.82 -1.97,30.69 -1.98,29.56 -2.01,28.59 -2.03,27.61 -2.09,26.34 -2.15,25.08 -2.31,23.91 -2.48,22.73 -2.50,21.54 -2.53,20.34 -2.59,19.23 -2.64,18.12 -2.81,16.97 -2.99,15.82 -3.02,14.70 -3.06,13.57 -3.15,12.59 -3.24,11.62 -3.49,10.46 -3.74,9.30 -3.98,8.01 -4.23,6.71 -4.50,5.62 -4.77,4.52 -5.03,3.41 -5.29,2.31 -5.67,1.10 -6.06,-0.10 -5.72,-0.72 -5.38,-1.35 -4.69,-1.62 -4.00,-1.89 -3.21,-1.87 -2.42,-1.85 -1.62,-1.71 -0.82,-1.58 -0.32,-1.13 0.16,-0.67 0.24,-0.64 0.32,-0.61 0.39,-0.57 0.46,-0.52 0.52,-0.45 0.57,-0.39 0.61,-0.32 0.65,-0.24 0.67,-0.16 0.69,-0.08 0.69,0.00 0.69,0.08 0.67,0.16 0.65,0.25 0.61,0.32 0.57,0.39 0.51,0.46 0.46,0.52 0.39,0.57 0.32,0.62 0.24,0.65 0.16,0.68 0.08,0.69 -0.00,0.70 -0.08,0.69 -0.17,0.67 -0.16,0.67 L -0.16,0.67 Z"/></g><g transform="translate(192 59.5) rotate(0 -0.75 50.5)" stroke="none"><path fill="#343a40" d="M 0.65,0.43 Q 0.65,0.43 0.50,0.96 0.35,1.48 -0.04,2.09 -0.45,2.71 -1.63,3.64 -2.81,4.57 -3.32,4.23 -3.83,3.88 -3.95,3.78 -4.07,3.68 -4.16,3.56 -4.25,3.43 -4.31,3.29 -4.37,3.15 -4.39,2.99 -4.42,2.84 -4.40,2.69 -4.39,2.53 -4.34,2.39 -4.29,2.24 -4.20,2.11 -4.12,1.98 -4.01,1.87 -3.89,1.77 -3.76,1.69 -3.62,1.62 -3.47,1.58 -3.33,1.53 -3.17,1.53 -3.02,1.53 -2.86,1.56 -2.71,1.59 -2.57,1.66 -2.44,1.73 -1.80,2.52 -1.16,3.31 -0.73,4.28 -0.30,5.26 0.16,7.15 0.63,9.03 0.96,10.84 1.30,12.64 1.59,14.72 1.88,16.79 2.00,18.12 2.13,19.45 2.19,20.31 2.24,21.16 2.31,21.23 2.37,21.31 2.36,21.48 2.35,21.65 2.30,21.81 2.25,21.97 2.16,22.12 2.07,22.26 1.95,22.38 1.83,22.50 1.69,22.59 1.54,22.68 1.38,22.73 1.22,22.78 1.05,22.79 0.88,22.80 0.71,22.77 0.54,22.74 0.39,22.67 0.23,22.60 0.10,22.49 -0.02,22.39 -0.13,22.26 -0.23,22.12 -0.30,21.97 -0.37,21.81 -0.40,21.64 -0.43,21.48 -0.56,20.55 -0.69,19.63 -0.89,18.69 -1.08,17.74 -1.18,16.98 -1.27,16.21 -1.30,15.77 -1.34,15.32 -1.34,15.15 -1.34,14.98 -1.30,14.82 -1.26,14.65 -1.18,14.50 -1.10,14.35 -0.99,14.23 -0.87,14.10 -0.73,14.00 -0.59,13.91 -0.44,13.85 -0.28,13.79 -0.11,13.77 0.05,13.75 0.22,13.77 0.39,13.79 0.54,13.85 0.70,13.91 0.84,14.00 0.98,14.10 1.09,14.23 1.21,14.35 1.28,14.51 1.36,14.66 1.40,14.82 1.44,14.98 1.42,15.79 1.40,16.60 1.40,17.72 1.39,18.84 1.39,21.18 1.39,23.53 1.39,27.11 1.39,30.70 1.39,32.65 1.39,34.61 1.40,35.58 1.41,36.55 1.41,36.82 1.42,37.10 1.40,37.27 1.37,37.44 1.31,37.60 1.25,37.76 1.16,37.90 1.06,38.04 0.93,38.15 0.80,38.26 0.65,38.34 0.50,38.42 0.33,38.47 0.17,38.51 -0.00,38.51 -0.17,38.51 -0.33,38.46 -0.50,38.42 -0.65,38.34 -0.80,38.26 -0.93,38.15 -1.06,38.04 -1.16,37.90 -1.25,37.76 -1.31,37.60 -1.37,37.44 -1.40,37.27 -1.42,37.09 -1.55,36.30 -1.69,35.50 -1.67,35.33 -1.65,35.16 -1.59,35.00 -1.53,34.84 -1.43,34.70 -1.33,34.56 -1.21,34.45 -1.08,34.34 -0.93,34.26 -0.78,34.18 -0.62,34.14 -0.45,34.10 -0.28,34.10 -0.11,34.10 0.04,34.14 0.21,34.18 0.36,34.26 0.51,34.34 0.63,34.45 0.76,34.56 0.86,34.70 0.95,34.84 1.01,35.00 1.07,35.16 1.09,35.33 1.11,35.50 1.17,36.93 1.23,38.37 1.28,39.99 1.34,41.61 1.36,43.45 1.38,45.28 1.39,47.50 1.40,49.72 1.26,51.44 1.12,53.16 1.06,54.28 1.00,55.39 0.98,56.02 0.96,56.64 0.93,56.81 0.90,56.98 0.83,57.14 0.76,57.30 0.65,57.43 0.55,57.57 0.41,57.68 0.28,57.78 0.12,57.86 -0.02,57.93 -0.19,57.96 -0.36,57.99 -0.53,57.98 -0.70,57.97 -0.87,57.92 -1.03,57.87 -1.18,57.79 -1.33,57.70 -1.45,57.58 -1.57,57.46 -1.66,57.31 -1.75,57.16 -1.81,57.00 -1.86,56.84 -1.87,56.67 -1.88,56.49 -2.10,55.43 -2.32,54.37 -2.61,53.43 -2.90,52.49 -3.19,51.12 -3.48,49.74 -3.64,48.99 -3.80,48.24 -3.81,48.08 -3.81,47.91 -3.78,47.74 -3.75,47.58 -3.68,47.42 -3.61,47.27 -3.50,47.14 -3.39,47.01 -3.26,46.91 -3.13,46.81 -2.97,46.74 -2.82,46.67 -2.65,46.64 -2.48,46.62 -2.32,46.63 -2.15,46.64 -1.99,46.69 -1.83,46.75 -1.68,46.84 -1.54,46.93 -1.42,47.05 -1.31,47.17 -1.22,47.31 -1.14,47.46 -1.09,47.62 -1.04,47.78 -0.92,48.49 -0.79,49.20 -0.45,51.23 -0.11,53.26 0.17,55.44 0.46,57.62 0.73,59.99 1.00,62.36 1.12,64.11 1.24,65.86 1.29,66.89 1.34,67.92 1.37,68.50 1.40,69.08 1.39,69.25 1.37,69.42 1.32,69.59 1.27,69.75 1.18,69.90 1.08,70.04 0.96,70.16 0.84,70.29 0.69,70.37 0.54,70.46 0.37,70.51 0.20,70.56 0.03,70.57 -0.13,70.58 -0.30,70.54 -0.47,70.51 -0.63,70.44 -0.78,70.36 -0.92,70.25 -1.05,70.14 -1.16,70.01 -1.26,69.87 -1.33,69.71 -1.40,69.55 -1.43,69.38 -1.46,69.21 -1.65,67.62 -1.84,66.03 -2.01,64.80 -2.17,63.57 -2.25,61.96 -2.32,60.35 -2.49,59.34 -2.66,58.33 -2.73,57.73 -2.80,57.12 -2.81,56.95 -2.81,56.77 -2.78,56.60 -2.74,56.44 -2.67,56.28 -2.59,56.12 -2.48,55.99 -2.37,55.86 -2.24,55.75 -2.10,55.65 -1.94,55.58 -1.78,55.52 -1.61,55.49 -1.44,55.46 -1.27,55.48 -1.10,55.49 -0.93,55.55 -0.77,55.60 -0.62,55.69 -0.48,55.79 -0.36,55.91 -0.24,56.04 -0.15,56.18 -0.07,56.33 -0.02,56.50 0.02,56.67 -0.22,58.16 -0.47,59.64 -0.50,61.32 -0.53,63.00 -0.40,65.25 -0.27,67.51 -0.22,69.37 -0.16,71.23 -0.13,72.45 -0.11,73.67 -0.09,74.48 -0.08,75.29 -0.07,75.77 -0.06,76.26 -0.08,76.43 -0.10,76.60 -0.16,76.77 -0.22,76.93 -0.32,77.07 -0.41,77.22 -0.54,77.34 -0.67,77.45 -0.82,77.53 -0.97,77.62 -1.14,77.66 -1.31,77.70 -1.48,77.71 -1.66,77.71 -1.83,77.67 -1.99,77.63 -2.15,77.55 -2.30,77.47 -2.44,77.36 -2.57,77.25 -2.67,77.10 -2.77,76.96 -2.83,76.80 -2.89,76.64 -2.92,76.47 -2.94,76.30 -3.08,74.98 -3.21,73.67 -3.28,70.44 -3.34,67.21 -3.36,65.28 -3.39,63.35 -3.24,62.29 -3.09,61.22 -3.04,60.96 -2.98,60.69 -2.94,60.53 -2.89,60.36 -2.81,60.21 -2.73,60.06 -2.61,59.94 -2.50,59.81 -2.36,59.72 -2.21,59.62 -2.05,59.57 -1.89,59.51 -1.72,59.49 -1.56,59.47 -1.39,59.50 -1.22,59.52 -1.06,59.58 -0.90,59.65 -0.76,59.74 -0.62,59.84 -0.51,59.97 -0.40,60.10 -0.32,60.25 -0.25,60.41 -0.21,60.57 -0.17,60.74 -0.17,60.91 -0.18,61.08 -0.13,63.86 -0.09,66.63 -0.09,69.04 -0.08,71.44 -0.08,74.04 -0.08,76.65 -0.08,78.47 -0.08,80.30 -0.08,81.50 -0.08,82.71 -0.09,83.37 -0.09,84.02 -0.11,84.19 -0.13,84.36 -0.19,84.52 -0.25,84.68 -0.35,84.82 -0.44,84.96 -0.57,85.07 -0.70,85.18 -0.85,85.26 -1.00,85.34 -1.16,85.38 -1.33,85.42 -1.49,85.42 -1.66,85.42 -1.83,85.38 -1.99,85.34 -2.14,85.26 -2.29,85.18 -2.42,85.07 -2.55,84.96 -2.64,84.82 -2.74,84.68 -2.80,84.52 -2.86,84.36 -2.88,84.19 -2.90,84.02 -2.75,82.64 -2.61,81.26 -2.55,79.89 -2.49,78.52 -2.32,77.28 -2.14,76.03 -2.08,75.15 -2.01,74.26 -1.98,74.01 -1.95,73.76 -1.92,73.59 -1.88,73.42 -1.81,73.27 -1.74,73.11 -1.63,72.98 -1.52,72.85 -1.39,72.75 -1.25,72.64 -1.10,72.58 -0.94,72.51 -0.77,72.48 -0.60,72.45 -0.43,72.47 -0.26,72.48 -0.10,72.53 0.05,72.59 0.20,72.68 0.34,72.77 0.46,72.89 0.58,73.01 0.66,73.16 0.75,73.31 0.80,73.47 0.85,73.64 0.85,73.81 0.86,73.98 0.88,75.24 0.90,76.51 0.91,78.52 0.91,80.53 1.05,82.33 1.20,84.14 1.26,86.25 1.33,88.37 1.35,89.55 1.38,90.73 1.39,90.80 1.40,90.86 1.38,91.03 1.37,91.20 1.31,91.37 1.25,91.53 1.16,91.67 1.06,91.81 0.94,91.93 0.81,92.05 0.66,92.13 0.51,92.21 0.35,92.26 0.18,92.30 0.01,92.31 -0.15,92.31 -0.32,92.27 -0.49,92.24 -0.64,92.16 -0.79,92.08 -0.92,91.97 -1.05,91.86 -1.15,91.72 -1.26,91.58 -1.32,91.43 -1.38,91.27 -1.41,91.10 -1.43,90.93 -1.57,89.88 -1.70,88.83 -1.76,87.43 -1.83,86.04 -2.00,84.06 -2.17,82.08 -2.24,81.08 -2.31,80.09 -2.31,79.92 -2.30,79.74 -2.25,79.58 -2.21,79.41 -2.12,79.26 -2.04,79.11 -1.92,78.99 -1.80,78.86 -1.65,78.77 -1.51,78.68 -1.34,78.62 -1.18,78.57 -1.01,78.55 -0.84,78.54 -0.67,78.57 -0.50,78.59 -0.34,78.66 -0.18,78.73 -0.04,78.83 0.09,78.93 0.20,79.07 0.31,79.20 0.38,79.35 0.46,79.51 0.49,79.68 0.53,79.85 0.48,81.00 0.43,82.14 0.42,84.40 0.42,86.65 0.42,88.62 0.41,90.59 0.41,92.28 0.41,93.97 0.56,94.56 0.70,95.14 0.68,95.31 0.66,95.48 0.60,95.64 0.54,95.80 0.44,95.94 0.35,96.08 0.22,96.20 0.09,96.31 -0.05,96.39 -0.20,96.47 -0.37,96.51 -0.54,96.55 -0.71,96.55 -0.88,96.55 -1.05,96.51 -1.21,96.47 -1.36,96.39 -1.51,96.31 -1.64,96.20 -1.77,96.08 -1.87,95.94 -1.97,95.80 -2.03,95.64 -2.09,95.48 -2.11,95.31 -2.13,95.14 -2.07,93.91 -2.00,92.68 -1.83,90.85 -1.66,89.02 -1.30,86.77 -0.93,84.52 -0.79,82.08 -0.64,79.63 -0.58,77.72 -0.52,75.81 -0.77,73.80 -1.03,71.80 -1.55,70.00 -2.07,68.20 -2.44,67.39 -2.80,66.58 -2.83,66.41 -2.85,66.24 -2.84,66.07 -2.83,65.90 -2.77,65.74 -2.72,65.58 -2.62,65.44 -2.53,65.29 -2.41,65.18 -2.29,65.06 -2.14,64.97 -1.99,64.89 -1.83,64.84 -1.66,64.80 -1.49,64.79 -1.32,64.78 -1.15,64.82 -0.99,64.85 -0.83,64.93 -0.68,65.00 -0.55,65.11 -0.42,65.22 -0.32,65.35 -0.21,65.49 -0.15,65.65 -0.08,65.81 0.03,66.35 0.15,66.90 0.48,67.94 0.81,68.98 1.12,70.67 1.43,72.37 1.71,74.83 1.98,77.28 2.10,79.35 2.21,81.42 2.40,84.28 2.58,87.15 2.80,88.76 3.01,90.37 3.10,91.23 3.20,92.09 3.24,92.31 3.28,92.52 3.28,92.69 3.28,92.85 3.24,93.01 3.20,93.17 3.12,93.31 3.04,93.45 2.93,93.58 2.82,93.70 2.69,93.79 2.55,93.88 2.40,93.94 2.25,93.99 2.09,94.01 1.92,94.03 1.76,94.01 1.60,93.99 1.45,93.93 1.30,93.87 1.16,93.78 1.03,93.68 0.92,93.56 0.81,93.44 0.74,93.29 0.67,93.15 0.63,92.99 0.59,92.83 0.60,91.97 0.60,91.10 0.47,89.86 0.33,88.61 0.13,87.05 -0.06,85.50 -0.29,83.08 -0.53,80.66 -0.77,78.06 -1.02,75.46 -0.97,75.08 -0.92,74.69 -0.91,74.53 -0.91,74.36 -0.87,74.20 -0.82,74.04 -0.74,73.90 -0.66,73.76 -0.55,73.64 -0.43,73.52 -0.30,73.43 -0.16,73.34 -0.00,73.28 0.14,73.23 0.31,73.21 0.47,73.20 0.64,73.22 0.80,73.25 0.95,73.31 1.10,73.37 1.24,73.47 1.37,73.57 1.48,73.69 1.58,73.82 1.65,73.97 1.73,74.12 1.76,74.28 1.80,74.44 2.10,76.24 2.40,78.04 2.68,80.44 2.96,82.84 3.07,86.05 3.19,89.27 3.09,91.82 3.00,94.36 2.81,96.05 2.63,97.73 1.86,99.31 1.10,100.89 0.32,100.56 -0.45,100.23 -1.07,98.62 -1.70,97.01 -1.91,94.83 -2.11,92.65 -2.19,90.45 -2.27,88.24 -2.30,85.87 -2.33,83.50 -2.33,82.06 -2.33,80.63 -2.33,80.16 -2.33,79.70 -2.32,79.53 -2.30,79.37 -2.24,79.22 -2.19,79.07 -2.09,78.93 -2.00,78.80 -1.88,78.69 -1.76,78.58 -1.62,78.50 -1.48,78.43 -1.32,78.39 -1.16,78.35 -1.00,78.35 -0.84,78.34 -0.68,78.38 -0.52,78.42 -0.38,78.49 -0.23,78.57 -0.11,78.67 0.00,78.78 0.10,78.91 0.19,79.05 0.25,79.20 0.31,79.35 0.33,79.51 0.35,79.67 0.49,81.23 0.63,82.80 0.84,84.53 1.04,86.26 1.13,88.49 1.23,90.72 0.98,93.36 0.73,95.99 0.73,96.07 0.72,96.15 0.69,96.23 0.67,96.30 0.63,96.37 0.59,96.43 0.53,96.49 0.47,96.54 0.40,96.58 0.33,96.62 0.26,96.64 0.18,96.67 0.10,96.67 0.02,96.67 -0.04,96.66 -0.12,96.64 -0.19,96.61 -0.26,96.57 -0.33,96.52 -0.39,96.47 -0.43,96.41 -0.48,96.35 -0.51,96.27 -0.54,96.20 -0.56,96.12 -0.57,96.04 -0.43,96.30 -0.29,96.56 -0.36,96.48 -0.44,96.41 -0.49,96.32 -0.54,96.22 -0.55,96.12 -0.57,96.01 -0.55,95.91 -0.53,95.80 -0.48,95.71 -0.43,95.62 -0.35,95.54 -0.28,95.47 -0.18,95.43 -0.08,95.38 0.01,95.37 0.12,95.36 0.22,95.39 0.33,95.41 0.42,95.47 0.51,95.52 0.58,95.61 0.64,95.69 0.68,95.79 0.72,95.89 0.72,95.99 0.73,96.10 0.70,96.20 0.67,96.30 0.61,96.39 0.55,96.48 0.46,96.54 0.38,96.60 0.28,96.64 0.18,96.67 0.07,96.67 -0.03,96.67 -0.13,96.63 -0.23,96.60 -0.31,96.53 -0.40,96.46 -0.45,96.38 -0.51,96.29 -0.54,96.18 -0.57,96.08 -0.56,95.98 -0.55,95.87 -0.51,95.77 -0.47,95.67 -0.40,95.59 -0.33,95.51 -0.24,95.46 -0.15,95.41 -0.05,95.38 0.05,95.36 0.15,95.38 0.26,95.39 0.50,95.69 0.73,95.99 0.73,96.07 0.72,96.15 0.69,96.23 0.67,96.30 0.63,96.37 0.59,96.43 0.53,96.49 0.47,96.54 0.40,96.58 0.33,96.62 0.26,96.64 0.18,96.67 0.10,96.67 0.02,96.67 -0.04,96.66 -0.12,96.64 -0.19,96.61 -0.26,96.57 -0.33,96.52 -0.39,96.47 -0.43,96.41 -0.48,96.35 -0.51,96.27 -0.54,96.20 -0.56,96.12 -0.57,96.04 -1.03,93.44 -1.48,90.83 -1.56,88.70 -1.65,86.58 -1.85,84.83 -2.05,83.07 -2.19,81.38 -2.33,79.70 -2.32,79.53 -2.30,79.37 -2.24,79.22 -2.19,79.07 -2.09,78.93 -2.00,78.80 -1.88,78.69 -1.76,78.58 -1.62,78.50 -1.48,78.43 -1.32,78.39 -1.16,78.35 -1.00,78.35 -0.84,78.34 -0.68,78.38 -0.52,78.42 -0.38,78.49 -0.23,78.57 -0.11,78.67 0.00,78.78 0.10,78.91 0.19,79.05 0.25,79.20 0.31,79.35 0.33,79.51 0.35,79.67 0.36,80.14 0.37,80.60 0.40,82.03 0.43,83.46 0.46,85.80 0.49,88.15 0.57,90.28 0.64,92.41 0.80,94.32 0.95,96.24 1.04,97.22 1.12,98.20 0.51,97.81 -0.08,97.43 0.09,95.84 0.27,94.26 0.36,91.81 0.46,89.37 0.34,86.26 0.23,83.15 -0.03,80.82 -0.30,78.49 -0.61,76.59 -0.92,74.69 -0.91,74.53 -0.91,74.36 -0.87,74.20 -0.82,74.04 -0.74,73.90 -0.66,73.76 -0.55,73.64 -0.43,73.52 -0.30,73.43 -0.16,73.34 -0.00,73.28 0.14,73.23 0.31,73.21 0.47,73.20 0.64,73.22 0.80,73.25 0.95,73.31 1.10,73.37 1.24,73.47 1.37,73.57 1.48,73.69 1.58,73.82 1.65,73.97 1.73,74.12 1.76,74.28 1.80,74.44 1.76,74.83 1.73,75.21 1.97,77.81 2.21,80.40 2.43,82.77 2.66,85.15 2.86,86.74 3.06,88.33 3.20,89.75 3.34,91.16 3.31,91.84 3.28,92.52 3.28,92.69 3.28,92.85 3.24,93.01 3.20,93.17 3.12,93.31 3.04,93.45 2.93,93.58 2.82,93.70 2.69,93.79 2.55,93.88 2.40,93.94 2.25,93.99 2.09,94.01 1.92,94.03 1.76,94.01 1.60,93.99 1.45,93.93 1.30,93.87 1.16,93.78 1.03,93.68 0.92,93.56 0.81,93.44 0.74,93.29 0.67,93.15 0.63,92.99 0.59,92.83 0.55,92.61 0.51,92.40 0.41,91.57 0.32,90.73 0.08,89.04 -0.15,87.34 -0.35,84.45 -0.55,81.57 -0.66,79.58 -0.77,77.59 -1.03,75.22 -1.29,72.86 -1.56,71.34 -1.82,69.81 -2.31,68.19 -2.80,66.58 -2.83,66.41 -2.85,66.24 -2.84,66.07 -2.83,65.90 -2.77,65.74 -2.72,65.58 -2.62,65.44 -2.53,65.29 -2.41,65.18 -2.29,65.06 -2.14,64.97 -1.99,64.89 -1.83,64.84 -1.66,64.80 -1.49,64.79 -1.32,64.78 -1.15,64.82 -0.99,64.85 -0.83,64.93 -0.68,65.00 -0.55,65.11 -0.42,65.22 -0.32,65.35 -0.21,65.49 -0.15,65.65 -0.08,65.81 0.29,66.61 0.67,67.42 1.23,69.43 1.80,71.44 2.06,73.67 2.32,75.90 2.26,77.85 2.19,79.80 2.03,82.39 1.87,84.98 1.51,87.13 1.16,89.29 0.99,91.06 0.82,92.83 0.76,93.99 0.70,95.14 0.68,95.31 0.66,95.48 0.60,95.64 0.54,95.80 0.44,95.94 0.35,96.08 0.22,96.20 0.09,96.31 -0.05,96.39 -0.20,96.47 -0.37,96.51 -0.54,96.55 -0.71,96.55 -0.88,96.55 -1.05,96.51 -1.21,96.47 -1.36,96.39 -1.51,96.31 -1.64,96.20 -1.77,96.08 -1.87,95.94 -1.97,95.80 -2.03,95.64 -2.09,95.48 -2.11,95.31 -2.13,95.14 -2.27,94.57 -2.40,93.99 -2.41,92.29 -2.41,90.58 -2.40,88.62 -2.40,86.65 -2.40,84.38 -2.39,82.11 -2.35,81.10 -2.31,80.09 -2.31,79.92 -2.30,79.74 -2.25,79.58 -2.21,79.41 -2.12,79.26 -2.04,79.11 -1.92,78.99 -1.80,78.86 -1.65,78.77 -1.51,78.68 -1.34,78.62 -1.18,78.57 -1.01,78.55 -0.84,78.54 -0.67,78.57 -0.50,78.59 -0.34,78.66 -0.18,78.73 -0.04,78.83 0.09,78.93 0.20,79.07 0.31,79.20 0.38,79.35 0.46,79.51 0.49,79.68 0.53,79.85 0.60,80.84 0.67,81.84 0.83,83.88 1.00,85.91 1.06,87.19 1.11,88.48 1.26,89.67 1.40,90.86 1.38,91.03 1.37,91.20 1.31,91.37 1.25,91.53 1.16,91.67 1.06,91.81 0.94,91.93 0.81,92.05 0.66,92.13 0.51,92.21 0.35,92.26 0.18,92.30 0.01,92.31 -0.15,92.31 -0.32,92.27 -0.49,92.24 -0.64,92.16 -0.79,92.08 -0.92,91.97 -1.05,91.86 -1.15,91.72 -1.26,91.58 -1.32,91.43 -1.38,91.27 -1.41,91.10 -1.43,90.93 -1.44,90.86 -1.46,90.79 -1.48,89.63 -1.51,88.46 -1.57,86.41 -1.62,84.36 -1.77,82.44 -1.92,80.53 -1.92,78.53 -1.92,76.52 -1.94,75.14 -1.95,73.76 -1.92,73.59 -1.89,73.42 -1.81,73.27 -1.74,73.11 -1.63,72.98 -1.52,72.85 -1.39,72.75 -1.25,72.64 -1.10,72.58 -0.94,72.51 -0.77,72.48 -0.60,72.45 -0.43,72.47 -0.26,72.48 -0.10,72.53 0.05,72.59 0.20,72.68 0.34,72.77 0.46,72.89 0.58,73.01 0.66,73.16 0.75,73.31 0.80,73.47 0.85,73.64 0.85,73.81 0.86,73.98 0.83,74.23 0.80,74.48 0.72,75.46 0.64,76.43 0.48,77.54 0.31,78.65 0.25,80.11 0.18,81.57 0.04,82.80 -0.09,84.02 -0.11,84.19 -0.13,84.36 -0.19,84.52 -0.25,84.68 -0.35,84.82 -0.44,84.96 -0.57,85.07 -0.70,85.18 -0.85,85.26 -1.00,85.34 -1.16,85.38 -1.33,85.42 -1.49,85.42 -1.66,85.42 -1.83,85.38 -1.99,85.34 -2.14,85.26 -2.29,85.18 -2.42,85.07 -2.55,84.96 -2.64,84.82 -2.74,84.68 -2.80,84.52 -2.86,84.36 -2.88,84.19 -2.90,84.02 -2.91,83.37 -2.91,82.71 -2.91,81.50 -2.91,80.30 -2.91,78.47 -2.91,76.65 -2.92,74.05 -2.92,71.45 -2.93,69.05 -2.93,66.65 -2.94,64.40 -2.95,62.15 -2.96,61.42 -2.98,60.69 -2.94,60.53 -2.89,60.36 -2.81,60.21 -2.73,60.06 -2.61,59.94 -2.50,59.81 -2.36,59.72 -2.21,59.62 -2.05,59.57 -1.89,59.51 -1.72,59.49 -1.56,59.47 -1.39,59.50 -1.22,59.52 -1.06,59.58 -0.90,59.65 -0.76,59.74 -0.62,59.84 -0.51,59.97 -0.40,60.10 -0.32,60.25 -0.25,60.41 -0.21,60.57 -0.17,60.74 -0.17,60.91 -0.18,61.08 -0.23,61.34 -0.29,61.61 -0.41,62.47 -0.52,63.32 -0.50,65.24 -0.47,67.16 -0.42,70.27 -0.36,73.38 -0.21,74.82 -0.06,76.26 -0.08,76.43 -0.10,76.60 -0.16,76.77 -0.22,76.93 -0.32,77.07 -0.41,77.22 -0.54,77.34 -0.67,77.45 -0.82,77.53 -0.97,77.62 -1.14,77.66 -1.31,77.70 -1.48,77.71 -1.66,77.71 -1.83,77.67 -1.99,77.63 -2.15,77.55 -2.30,77.47 -2.44,77.36 -2.57,77.25 -2.67,77.10 -2.77,76.96 -2.83,76.80 -2.89,76.64 -2.92,76.47 -2.94,76.30 -2.94,75.81 -2.94,75.32 -2.95,74.53 -2.95,73.73 -2.97,72.52 -2.99,71.31 -3.05,69.49 -3.10,67.67 -3.23,65.31 -3.36,62.95 -3.33,61.22 -3.30,59.48 -3.05,58.30 -2.80,57.12 -2.81,56.95 -2.81,56.77 -2.78,56.60 -2.74,56.44 -2.67,56.28 -2.59,56.12 -2.48,55.99 -2.37,55.86 -2.24,55.75 -2.10,55.65 -1.94,55.58 -1.78,55.52 -1.61,55.49 -1.44,55.46 -1.27,55.48 -1.10,55.49 -0.93,55.55 -0.77,55.60 -0.62,55.69 -0.48,55.79 -0.36,55.91 -0.24,56.04 -0.15,56.18 -0.07,56.33 -0.02,56.50 0.02,56.67 0.10,57.27 0.17,57.88 0.35,59.05 0.54,60.22 0.60,61.71 0.67,63.20 0.84,64.53 1.01,65.86 1.05,66.73 1.10,67.60 1.25,68.34 1.40,69.07 1.39,69.25 1.37,69.42 1.32,69.58 1.27,69.75 1.18,69.90 1.08,70.04 0.96,70.16 0.84,70.29 0.69,70.37 0.54,70.46 0.37,70.51 0.21,70.56 0.03,70.57 -0.13,70.58 -0.30,70.54 -0.47,70.51 -0.63,70.44 -0.78,70.36 -0.92,70.25 -1.05,70.15 -1.16,70.01 -1.26,69.87 -1.33,69.71 -1.40,69.55 -1.43,69.38 -1.46,69.21 -1.47,68.63 -1.48,68.06 -1.53,67.05 -1.57,66.05 -1.68,64.36 -1.79,62.67 -2.05,60.33 -2.32,57.99 -2.60,55.86 -2.88,53.73 -3.22,51.70 -3.56,49.68 -3.68,48.96 -3.80,48.24 -3.81,48.08 -3.81,47.91 -3.78,47.74 -3.75,47.58 -3.68,47.42 -3.61,47.27 -3.50,47.14 -3.39,47.01 -3.26,46.91 -3.13,46.81 -2.97,46.74 -2.82,46.67 -2.65,46.64 -2.48,46.62 -2.32,46.63 -2.15,46.64 -1.99,46.69 -1.83,46.75 -1.68,46.84 -1.54,46.93 -1.42,47.05 -1.31,47.17 -1.22,47.31 -1.14,47.46 -1.09,47.62 -1.04,47.78 -1.30,47.44 -1.56,47.10 -1.12,48.13 -0.68,49.15 -0.42,50.42 -0.16,51.69 0.18,52.91 0.52,54.14 0.51,54.74 0.51,55.35 0.73,56.00 0.96,56.64 0.93,56.81 0.90,56.98 0.83,57.14 0.76,57.30 0.65,57.43 0.55,57.57 0.42,57.68 0.28,57.78 0.12,57.86 -0.02,57.93 -0.19,57.96 -0.36,57.99 -0.53,57.98 -0.70,57.97 -0.87,57.92 -1.03,57.87 -1.18,57.79 -1.33,57.70 -1.45,57.58 -1.57,57.46 -1.66,57.31 -1.75,57.16 -1.81,57.00 -1.86,56.84 -1.87,56.67 -1.88,56.49 -1.85,55.87 -1.82,55.24 -1.76,54.08 -1.70,52.92 -1.57,51.33 -1.43,49.73 -1.44,47.52 -1.44,45.32 -1.46,43.51 -1.48,41.70 -1.53,40.16 -1.57,38.61 -1.63,37.06 -1.69,35.50 -1.67,35.33 -1.65,35.16 -1.59,35.00 -1.53,34.84 -1.43,34.70 -1.33,34.56 -1.21,34.45 -1.08,34.34 -0.93,34.26 -0.78,34.18 -0.62,34.14 -0.45,34.10 -0.28,34.10 -0.11,34.10 0.04,34.14 0.21,34.18 0.36,34.26 0.51,34.34 0.63,34.45 0.76,34.56 0.86,34.70 0.95,34.84 1.01,35.00 1.07,35.16 1.09,35.33 1.11,35.50 1.26,36.30 1.42,37.10 1.40,37.27 1.37,37.44 1.31,37.60 1.25,37.76 1.16,37.90 1.06,38.04 0.93,38.15 0.80,38.26 0.65,38.34 0.50,38.42 0.33,38.47 0.17,38.51 -0.00,38.51 -0.17,38.51 -0.33,38.47 -0.50,38.42 -0.65,38.34 -0.80,38.26 -0.93,38.15 -1.06,38.04 -1.16,37.90 -1.25,37.76 -1.31,37.60 -1.37,37.44 -1.40,37.27 -1.42,37.10 -1.41,36.82 -1.41,36.55 -1.40,35.58 -1.39,34.61 -1.39,32.65 -1.39,30.70 -1.39,27.11 -1.39,23.53 -1.39,21.18 -1.38,18.83 -1.38,17.70 -1.38,16.57 -1.36,15.94 -1.34,15.32 -1.34,15.15 -1.34,14.98 -1.30,14.82 -1.26,14.65 -1.18,14.50 -1.10,14.35 -0.99,14.23 -0.87,14.10 -0.73,14.00 -0.59,13.91 -0.44,13.85 -0.28,13.79 -0.11,13.77 0.05,13.75 0.22,13.77 0.39,13.79 0.54,13.85 0.70,13.91 0.84,14.00 0.98,14.10 1.09,14.23 1.21,14.35 1.28,14.50 1.36,14.66 1.40,14.82 1.44,14.98 1.48,15.43 1.53,15.87 1.60,16.53 1.68,17.18 1.88,18.21 2.09,19.25 2.23,20.28 2.37,21.31 2.36,21.48 2.35,21.65 2.30,21.81 2.25,21.97 2.16,22.12 2.07,22.26 1.95,22.38 1.83,22.50 1.69,22.59 1.54,22.68 1.38,22.73 1.22,22.78 1.05,22.79 0.88,22.80 0.71,22.77 0.54,22.74 0.39,22.67 0.23,22.60 0.10,22.49 -0.02,22.39 -0.13,22.26 -0.23,22.12 -0.30,21.97 -0.37,21.81 -0.40,21.64 -0.43,21.48 -0.42,21.41 -0.40,21.34 -0.44,20.52 -0.48,19.69 -0.60,18.42 -0.71,17.15 -0.99,15.13 -1.27,13.12 -1.59,11.38 -1.91,9.65 -2.30,7.94 -2.70,6.24 -2.96,5.53 -3.22,4.82 -3.53,4.35 -3.83,3.88 -3.95,3.78 -4.07,3.68 -4.16,3.56 -4.25,3.43 -4.31,3.29 -4.37,3.15 -4.39,2.99 -4.42,2.84 -4.40,2.69 -4.39,2.53 -4.34,2.39 -4.29,2.24 -4.20,2.11 -4.12,1.98 -4.01,1.87 -3.89,1.77 -3.76,1.69 -3.62,1.62 -3.47,1.58 -3.33,1.53 -3.17,1.53 -3.02,1.53 -2.86,1.56 -2.71,1.59 -2.57,1.66 -2.44,1.73 -1.99,2.11 -1.54,2.49 -2.16,2.46 -2.78,2.44 -2.56,1.95 -2.33,1.46 -1.91,0.85 -1.50,0.24 -1.08,-0.09 -0.65,-0.43 -0.59,-0.51 -0.53,-0.58 -0.45,-0.64 -0.37,-0.69 -0.29,-0.73 -0.20,-0.76 -0.10,-0.78 -0.01,-0.79 0.08,-0.78 0.17,-0.77 0.26,-0.74 0.35,-0.70 0.43,-0.65 0.51,-0.60 0.58,-0.53 0.64,-0.46 0.69,-0.37 0.73,-0.29 0.76,-0.20 0.78,-0.10 0.78,-0.01 0.78,0.08 0.76,0.17 0.74,0.26 0.70,0.35 0.65,0.44 0.65,0.43 L 0.65,0.43 Z"/></g><g transform="translate(61.5 50.5) rotate(0 -3 -12)" stroke="none"><path fill="#1e1e1e" d="M -0.86,0.09 Q -0.86,0.09 -1.49,-2.60 -2.12,-5.29 -2.38,-7.60 -2.65,-9.90 -2.91,-12.48 -3.17,-15.05 -3.42,-16.67 -3.67,-18.30 -3.78,-19.48 -3.89,-20.66 -4.02,-21.25 -4.15,-21.84 -5.44,-21.72 -6.74,-21.61 -7.71,-21.44 -8.69,-21.27 -9.93,-21.19 -11.18,-21.10 -11.79,-21.08 -12.40,-21.06 -12.71,-20.89 -13.02,-20.73 -13.20,-20.74 -13.38,-20.75 -13.55,-20.81 -13.72,-20.87 -13.88,-20.96 -14.03,-21.06 -14.16,-21.18 -14.28,-21.31 -14.38,-21.47 -14.47,-21.63 -14.52,-21.80 -14.57,-21.97 -14.58,-22.15 -14.59,-22.33 -14.56,-22.51 -14.52,-22.69 -14.45,-22.85 -14.37,-23.02 -14.26,-23.16 -14.14,-23.30 -14.00,-23.41 -13.86,-23.52 -13.69,-23.59 -13.53,-23.66 -13.35,-23.70 -13.17,-23.73 -11.95,-23.49 -10.73,-23.26 -9.66,-23.19 -8.59,-23.12 -7.42,-23.09 -6.24,-23.06 -4.42,-23.33 -2.59,-23.60 -0.91,-23.86 0.76,-24.13 2.34,-24.38 3.91,-24.64 5.16,-23.76 6.41,-22.87 6.49,-22.88 6.57,-22.88 6.65,-22.86 6.72,-22.85 6.80,-22.81 6.87,-22.78 6.93,-22.73 6.99,-22.68 7.04,-22.61 7.08,-22.55 7.12,-22.48 7.15,-22.41 7.16,-22.33 7.17,-22.25 7.16,-22.17 7.16,-22.09 7.13,-22.02 7.11,-21.94 7.07,-21.87 7.02,-21.81 6.97,-21.75 6.91,-21.70 6.84,-21.66 6.77,-21.62 6.69,-21.60 6.62,-21.58 6.87,-21.77 7.12,-21.96 7.06,-21.87 7.00,-21.78 6.92,-21.72 6.84,-21.65 6.74,-21.61 6.64,-21.58 6.53,-21.58 6.42,-21.57 6.32,-21.61 6.22,-21.64 6.13,-21.70 6.05,-21.76 5.99,-21.85 5.93,-21.94 5.89,-22.04 5.86,-22.14 5.87,-22.24 5.87,-22.35 5.91,-22.45 5.94,-22.55 6.01,-22.63 6.08,-22.71 6.17,-22.77 6.26,-22.83 6.36,-22.85 6.46,-22.88 6.57,-22.87 6.68,-22.86 6.77,-22.82 6.87,-22.78 6.95,-22.70 7.03,-22.63 7.08,-22.54 7.13,-22.45 7.15,-22.34 7.17,-22.24 7.16,-22.13 7.14,-22.03 7.09,-21.93 7.05,-21.84 6.97,-21.76 6.90,-21.69 6.80,-21.64 6.70,-21.60 6.60,-21.58 6.49,-21.57 6.39,-21.59 6.29,-21.61 6.19,-21.66 6.10,-21.71 6.03,-21.79 5.96,-21.87 5.92,-21.97 5.88,-22.07 5.87,-22.17 5.86,-22.28 6.14,-22.58 6.41,-22.87 6.49,-22.88 6.57,-22.88 6.65,-22.86 6.72,-22.85 6.80,-22.81 6.87,-22.78 6.93,-22.73 6.99,-22.68 7.04,-22.61 7.08,-22.55 7.11,-22.48 7.15,-22.41 7.16,-22.33 7.17,-22.25 7.16,-22.17 7.16,-22.09 7.13,-22.02 7.11,-21.94 7.07,-21.87 7.02,-21.81 6.97,-21.75 6.91,-21.70 6.84,-21.66 6.77,-21.62 6.69,-21.60 6.62,-21.58 5.51,-21.59 4.40,-21.60 2.81,-21.35 1.23,-21.10 -0.47,-20.84 -2.17,-20.59 -4.25,-20.31 -6.33,-20.04 -7.58,-20.09 -8.82,-20.13 -10.07,-20.24 -11.32,-20.35 -12.17,-20.54 -13.02,-20.73 -13.20,-20.74 -13.38,-20.75 -13.55,-20.81 -13.72,-20.87 -13.88,-20.96 -14.03,-21.06 -14.16,-21.18 -14.28,-21.31 -14.38,-21.47 -14.47,-21.63 -14.52,-21.80 -14.57,-21.97 -14.58,-22.15 -14.59,-22.33 -14.56,-22.51 -14.52,-22.69 -14.45,-22.85 -14.37,-23.02 -14.26,-23.16 -14.14,-23.30 -14.00,-23.41 -13.86,-23.52 -13.69,-23.59 -13.53,-23.66 -13.35,-23.70 -13.17,-23.73 -12.94,-23.88 -12.70,-24.03 -12.04,-24.07 -11.37,-24.12 -10.29,-24.18 -9.20,-24.25 -8.08,-24.44 -6.97,-24.63 -5.63,-24.71 -4.29,-24.79 -3.39,-24.51 -2.49,-24.22 -1.88,-23.55 -1.28,-22.87 -1.03,-21.92 -0.78,-20.96 -0.68,-19.87 -0.58,-18.77 -0.32,-17.07 -0.06,-15.36 0.18,-12.81 0.44,-10.26 0.70,-7.94 0.97,-5.62 0.92,-2.85 0.86,-0.09 0.86,0.01 0.86,0.11 0.83,0.22 0.81,0.32 0.76,0.41 0.71,0.50 0.64,0.58 0.56,0.66 0.48,0.72 0.39,0.78 0.29,0.81 0.19,0.85 0.09,0.86 -0.01,0.87 -0.11,0.86 -0.22,0.84 -0.32,0.80 -0.41,0.76 -0.50,0.70 -0.59,0.64 -0.65,0.56 -0.72,0.48 -0.77,0.39 -0.82,0.29 -0.84,0.19 -0.86,0.09 -0.86,0.09 L -0.86,0.09 Z"/></g><g transform="translate(72.5 51) rotate(0 -0.75 -5)" stroke="none"><path fill="#1e1e1e" d="M -0.91,0.22 Q -0.91,0.22 -1.53,-0.83 -2.14,-1.90 -2.42,-3.61 -2.70,-5.31 -2.41,-7.24 -2.12,-9.17 -2.11,-9.27 -2.11,-9.38 -2.07,-9.48 -2.03,-9.58 -1.96,-9.66 -1.90,-9.74 -1.81,-9.80 -1.72,-9.85 -1.61,-9.88 -1.51,-9.90 -1.40,-9.89 -1.30,-9.88 -1.20,-9.84 -1.10,-9.79 -1.02,-9.72 -0.95,-9.65 -0.90,-9.56 -0.85,-9.46 -0.83,-9.36 -0.81,-9.25 -0.82,-9.15 -0.84,-9.04 -0.89,-8.95 -0.94,-8.85 -1.01,-8.78 -1.09,-8.71 -1.19,-8.66 -1.28,-8.62 -1.39,-8.60 -1.49,-8.59 -1.60,-8.61 -1.70,-8.63 -1.79,-8.69 -1.88,-8.74 -1.95,-8.82 -2.02,-8.90 -2.06,-9.00 -2.10,-9.10 -2.11,-9.20 -2.12,-9.31 -2.09,-9.41 -2.06,-9.51 -2.01,-9.60 -1.95,-9.69 -1.86,-9.76 -1.78,-9.82 -1.68,-9.86 -1.58,-9.89 -1.47,-9.89 -1.37,-9.90 -1.27,-9.86 -1.16,-9.83 -1.08,-9.77 -0.99,-9.70 -0.93,-9.62 -0.87,-9.53 -0.84,-9.43 -0.81,-9.32 -0.81,-9.32 -0.81,-9.32 -0.16,-7.58 0.49,-5.83 0.74,-4.26 0.99,-2.69 0.95,-1.46 0.91,-0.22 0.93,-0.11 0.94,-0.00 0.93,0.11 0.91,0.22 0.87,0.33 0.83,0.43 0.77,0.53 0.71,0.62 0.62,0.70 0.54,0.77 0.43,0.83 0.33,0.88 0.22,0.91 0.11,0.93 0.00,0.93 -0.11,0.93 -0.22,0.91 -0.33,0.88 -0.43,0.83 -0.53,0.78 -0.62,0.70 -0.70,0.62 -0.77,0.53 -0.83,0.44 -0.87,0.33 -0.91,0.22 -0.91,0.22 L -0.91,0.22 Z"/></g><g transform="translate(234.5 43.5) rotate(0 -3.75 -11.5)" stroke="none"><path fill="#1e1e1e" d="M -0.80,0.32 Q -0.80,0.32 -1.41,-0.27 -2.01,-0.87 -2.19,-2.08 -2.36,-3.30 -2.69,-4.97 -3.03,-6.64 -3.19,-8.61 -3.35,-10.59 -3.56,-12.67 -3.77,-14.74 -3.99,-16.16 -4.22,-17.58 -4.32,-18.36 -4.42,-19.15 -4.88,-19.48 -5.33,-19.82 -6.08,-19.85 -6.83,-19.88 -7.46,-19.77 -8.08,-19.66 -8.94,-19.48 -9.79,-19.30 -10.38,-18.88 -10.97,-18.46 -11.56,-18.19 -12.14,-17.93 -12.50,-17.69 -12.85,-17.46 -13.03,-17.40 -13.20,-17.35 -13.39,-17.34 -13.57,-17.33 -13.75,-17.36 -13.93,-17.39 -14.10,-17.47 -14.27,-17.54 -14.41,-17.66 -14.55,-17.77 -14.67,-17.92 -14.78,-18.06 -14.85,-18.23 -14.93,-18.40 -14.96,-18.58 -14.99,-18.76 -14.98,-18.94 -14.97,-19.12 -14.92,-19.30 -14.86,-19.47 -14.77,-19.63 -14.67,-19.79 -14.54,-19.92 -14.41,-20.05 -14.25,-20.14 -14.10,-20.24 -13.25,-20.07 -12.40,-19.90 -11.64,-20.24 -10.88,-20.58 -9.71,-20.85 -8.53,-21.11 -7.31,-21.37 -6.10,-21.64 -3.93,-22.31 -1.76,-22.99 -0.06,-23.43 1.63,-23.88 3.62,-23.70 5.60,-23.52 5.70,-23.57 5.79,-23.61 5.90,-23.63 6.00,-23.64 6.11,-23.62 6.21,-23.60 6.30,-23.55 6.40,-23.50 6.47,-23.42 6.54,-23.34 6.58,-23.24 6.62,-23.14 6.63,-23.04 6.64,-22.93 6.61,-22.83 6.58,-22.72 6.53,-22.64 6.47,-22.55 6.39,-22.48 6.30,-22.41 6.20,-22.38 6.10,-22.34 6.00,-22.34 5.89,-22.34 5.79,-22.37 5.69,-22.40 5.60,-22.46 5.52,-22.52 5.45,-22.61 5.39,-22.70 5.36,-22.80 5.33,-22.90 5.33,-23.01 5.34,-23.11 5.38,-23.21 5.41,-23.31 5.48,-23.39 5.55,-23.48 5.64,-23.53 5.73,-23.59 5.83,-23.62 5.93,-23.64 6.04,-23.63 6.14,-23.62 6.24,-23.58 6.34,-23.54 6.42,-23.47 6.50,-23.40 6.55,-23.30 6.60,-23.21 6.62,-23.11 6.64,-23.00 6.62,-22.90 6.61,-22.79 6.56,-22.70 6.51,-22.60 6.44,-22.53 6.36,-22.45 6.36,-22.45 6.36,-22.45 4.39,-21.64 2.42,-20.83 0.78,-20.41 -0.84,-19.98 -3.15,-19.29 -5.46,-18.60 -6.66,-18.36 -7.85,-18.11 -8.97,-17.86 -10.09,-17.61 -11.37,-17.33 -12.65,-17.05 -13.33,-17.22 -14.00,-17.39 -13.43,-17.42 -12.85,-17.46 -13.03,-17.40 -13.20,-17.35 -13.39,-17.34 -13.57,-17.33 -13.75,-17.36 -13.93,-17.39 -14.10,-17.47 -14.26,-17.54 -14.41,-17.66 -14.55,-17.77 -14.67,-17.92 -14.78,-18.06 -14.85,-18.23 -14.93,-18.40 -14.96,-18.58 -14.99,-18.76 -14.98,-18.94 -14.97,-19.12 -14.92,-19.30 -14.86,-19.47 -14.77,-19.63 -14.67,-19.79 -14.54,-19.92 -14.41,-20.05 -14.25,-20.14 -14.10,-20.24 -13.35,-20.64 -12.60,-21.05 -11.56,-21.67 -10.52,-22.28 -9.56,-22.50 -8.61,-22.72 -7.67,-22.88 -6.74,-23.03 -5.86,-23.01 -4.98,-22.99 -4.18,-22.87 -3.38,-22.75 -2.56,-21.82 -1.74,-20.88 -1.51,-20.23 -1.27,-19.58 -1.18,-18.83 -1.09,-18.08 -0.85,-16.56 -0.62,-15.05 -0.42,-12.94 -0.21,-10.83 -0.09,-9.03 0.03,-7.24 0.38,-5.45 0.72,-3.67 0.79,-2.83 0.86,-2.00 0.83,-1.16 0.80,-0.32 0.83,-0.22 0.85,-0.11 0.85,-0.01 0.86,0.08 0.83,0.19 0.81,0.29 0.76,0.38 0.72,0.47 0.65,0.55 0.58,0.63 0.50,0.69 0.41,0.75 0.31,0.79 0.22,0.83 0.11,0.85 0.01,0.86 -0.08,0.85 -0.19,0.84 -0.29,0.80 -0.38,0.77 -0.47,0.71 -0.56,0.65 -0.63,0.58 -0.70,0.50 -0.75,0.41 -0.80,0.32 -0.80,0.32 L -0.80,0.32 Z"/></g><g transform="translate(239.5 34.5) rotate(0 6.75 5.25)" stroke="none"><path fill="#1e1e1e" d="M 0.10,-0.76 Q 0.10,-0.76 1.17,-0.87 2.23,-0.98 3.03,-0.56 3.83,-0.13 4.35,0.14 4.87,0.42 5.41,0.96 5.94,1.49 6.54,2.70 7.13,3.90 7.05,4.67 6.97,5.44 6.62,6.50 6.27,7.55 5.95,8.18 5.63,8.82 7.01,8.76 8.39,8.70 9.28,8.76 10.17,8.82 11.74,9.33 13.30,9.84 13.40,9.85 13.51,9.87 13.60,9.92 13.69,9.98 13.76,10.05 13.84,10.13 13.88,10.23 13.92,10.33 13.93,10.43 13.94,10.54 13.92,10.64 13.89,10.74 13.84,10.83 13.78,10.92 13.70,10.99 13.62,11.06 13.52,11.10 13.42,11.14 13.31,11.14 13.21,11.14 13.10,11.11 13.00,11.08 12.91,11.02 12.83,10.96 12.76,10.88 12.70,10.79 12.67,10.69 12.64,10.59 12.64,10.48 12.64,10.37 12.68,10.27 12.71,10.17 12.78,10.09 12.84,10.01 12.93,9.95 13.02,9.89 13.12,9.86 13.23,9.84 13.33,9.85 13.44,9.85 13.54,9.89 13.63,9.93 13.71,10.00 13.79,10.07 13.85,10.17 13.90,10.26 13.92,10.36 13.94,10.47 13.93,10.57 13.92,10.68 13.87,10.77 13.82,10.87 13.75,10.95 13.68,11.02 13.58,11.07 13.49,11.12 13.38,11.13 13.28,11.15 13.28,11.15 13.28,11.15 11.61,11.55 9.95,11.96 8.89,11.88 7.84,11.79 7.01,11.63 6.18,11.47 4.70,11.19 3.22,10.91 3.05,9.71 2.87,8.51 3.27,7.58 3.68,6.65 3.98,5.82 4.29,4.98 4.40,4.42 4.52,3.86 4.04,3.28 3.55,2.70 2.67,2.13 1.78,1.56 0.83,1.16 -0.10,0.76 -0.19,0.73 -0.28,0.71 -0.36,0.66 -0.44,0.62 -0.51,0.56 -0.58,0.49 -0.63,0.42 -0.68,0.34 -0.71,0.25 -0.74,0.16 -0.75,0.07 -0.76,-0.01 -0.75,-0.10 -0.74,-0.19 -0.70,-0.28 -0.67,-0.37 -0.61,-0.44 -0.56,-0.52 -0.49,-0.58 -0.42,-0.64 -0.34,-0.68 -0.25,-0.72 -0.16,-0.74 -0.07,-0.76 0.01,-0.76 0.10,-0.76 0.10,-0.76 L 0.10,-0.76 Z"/></g><g transform="translate(265.5 17) rotate(0 6.75 11.75)" stroke="none"><path fill="#1e1e1e" d="M 0.27,-0.71 Q 0.27,-0.71 2.29,-0.38 4.31,-0.05 5.76,0.37 7.21,0.79 8.67,1.11 10.12,1.43 10.87,1.57 11.63,1.71 12.28,1.96 12.93,2.22 13.56,2.81 14.19,3.40 14.40,4.32 14.60,5.23 13.99,7.15 13.37,9.07 12.10,11.99 10.83,14.91 9.71,17.17 8.58,19.43 7.09,20.70 5.60,21.97 5.56,22.04 5.51,22.10 5.46,22.16 5.40,22.21 5.33,22.25 5.26,22.29 5.18,22.31 5.11,22.33 5.03,22.33 4.95,22.33 4.87,22.31 4.79,22.30 4.72,22.26 4.65,22.23 4.59,22.18 4.53,22.12 4.48,22.06 4.44,22.00 4.41,21.92 4.38,21.85 4.37,21.77 4.36,21.69 4.36,21.61 4.37,21.53 4.40,21.46 4.42,21.39 4.40,21.46 4.37,21.53 4.41,21.43 4.45,21.33 4.52,21.25 4.59,21.17 4.69,21.12 4.78,21.07 4.88,21.04 4.98,21.02 5.09,21.03 5.20,21.05 5.29,21.09 5.39,21.14 5.46,21.21 5.54,21.29 5.59,21.38 5.64,21.48 5.65,21.58 5.67,21.69 5.65,21.79 5.63,21.90 5.58,21.99 5.53,22.08 5.45,22.15 5.37,22.23 5.28,22.27 5.18,22.31 5.08,22.32 4.97,22.33 4.87,22.31 4.76,22.29 4.67,22.23 4.58,22.17 4.51,22.09 4.45,22.01 4.41,21.91 4.37,21.81 4.37,21.71 4.36,21.60 4.39,21.50 4.42,21.40 4.48,21.31 4.54,21.22 4.63,21.16 4.71,21.09 4.81,21.06 4.91,21.03 5.02,21.03 5.13,21.03 5.23,21.07 5.33,21.10 5.41,21.17 5.49,21.23 5.55,21.32 5.61,21.41 5.64,21.51 5.67,21.61 5.63,21.79 5.60,21.97 5.56,22.04 5.51,22.10 5.46,22.16 5.40,22.21 5.33,22.25 5.26,22.29 5.18,22.31 5.11,22.33 5.03,22.33 4.95,22.33 4.87,22.31 4.79,22.30 4.72,22.26 4.65,22.23 4.59,22.18 4.53,22.12 4.48,22.06 4.44,22.00 4.41,21.92 4.38,21.85 4.37,21.77 4.36,21.69 4.36,21.61 4.37,21.53 4.40,21.46 4.42,21.39 5.05,19.69 5.68,17.99 6.77,15.80 7.86,13.61 9.08,10.81 10.31,8.01 10.68,6.44 11.04,4.86 10.23,4.71 9.42,4.57 7.86,4.22 6.30,3.87 4.73,3.40 3.16,2.93 1.44,1.82 -0.27,0.71 -0.35,0.66 -0.43,0.62 -0.50,0.56 -0.57,0.50 -0.62,0.42 -0.67,0.35 -0.70,0.26 -0.73,0.17 -0.75,0.08 -0.76,-0.00 -0.74,-0.09 -0.73,-0.18 -0.70,-0.27 -0.67,-0.35 -0.61,-0.43 -0.56,-0.50 -0.49,-0.56 -0.42,-0.62 -0.34,-0.67 -0.26,-0.71 -0.17,-0.73 -0.08,-0.75 0.00,-0.75 0.09,-0.75 0.18,-0.73 0.27,-0.71 0.27,-0.71 L 0.27,-0.71 Z"/></g><g transform="translate(298.5 31.5) rotate(0 -3 -10.75)" stroke="none"><path fill="#1e1e1e" d="M -1.00,0.08 Q -1.00,0.08 -1.44,-1.61 -1.88,-3.31 -1.95,-5.09 -2.02,-6.87 -2.05,-8.48 -2.09,-10.10 -2.10,-11.94 -2.11,-13.78 -2.26,-15.34 -2.40,-16.90 -2.67,-17.48 -2.94,-18.06 -4.08,-18.17 -5.22,-18.28 -6.27,-18.04 -7.32,-17.81 -8.24,-17.56 -9.16,-17.32 -9.78,-17.11 -10.41,-16.90 -10.30,-16.94 -10.20,-16.98 -10.38,-16.92 -10.56,-16.86 -10.76,-16.85 -10.95,-16.84 -11.14,-16.87 -11.33,-16.91 -11.51,-16.99 -11.69,-17.06 -11.84,-17.18 -11.99,-17.30 -12.11,-17.45 -12.23,-17.61 -12.31,-17.78 -12.39,-17.96 -12.43,-18.15 -12.46,-18.34 -12.45,-18.53 -12.44,-18.72 -12.38,-18.91 -12.33,-19.09 -12.23,-19.26 -12.13,-19.43 -11.99,-19.56 -11.85,-19.70 -11.69,-19.80 -11.52,-19.90 -10.89,-20.11 -10.25,-20.31 -8.52,-20.69 -6.80,-21.07 -5.12,-21.50 -3.43,-21.93 -1.58,-22.14 0.26,-22.35 1.36,-22.56 2.46,-22.78 3.69,-21.51 4.92,-20.24 5.00,-20.25 5.08,-20.26 5.16,-20.24 5.24,-20.23 5.31,-20.20 5.38,-20.16 5.45,-20.12 5.51,-20.07 5.56,-20.01 5.61,-19.94 5.64,-19.87 5.67,-19.80 5.69,-19.72 5.70,-19.64 5.70,-19.57 5.69,-19.49 5.67,-19.41 5.65,-19.33 5.61,-19.27 5.57,-19.20 5.51,-19.14 5.46,-19.09 5.39,-19.04 5.32,-19.00 5.25,-18.98 5.17,-18.95 5.34,-19.04 5.51,-19.13 5.42,-19.07 5.34,-19.01 5.24,-18.98 5.13,-18.95 5.03,-18.95 4.92,-18.96 4.82,-18.99 4.72,-19.03 4.64,-19.10 4.56,-19.16 4.50,-19.25 4.44,-19.34 4.42,-19.45 4.39,-19.55 4.40,-19.65 4.41,-19.76 4.45,-19.86 4.50,-19.96 4.57,-20.03 4.64,-20.11 4.73,-20.17 4.82,-20.22 4.93,-20.24 5.03,-20.26 5.14,-20.24 5.24,-20.23 5.34,-20.18 5.43,-20.13 5.51,-20.06 5.58,-19.98 5.63,-19.89 5.68,-19.79 5.69,-19.68 5.70,-19.58 5.68,-19.48 5.66,-19.37 5.61,-19.28 5.56,-19.19 5.48,-19.12 5.40,-19.05 5.30,-19.00 5.20,-18.96 5.10,-18.95 4.99,-18.95 4.89,-18.97 4.79,-19.00 4.70,-19.06 4.61,-19.11 4.54,-19.20 4.47,-19.28 4.44,-19.38 4.40,-19.48 4.40,-19.58 4.40,-19.69 4.43,-19.79 4.46,-19.89 4.69,-20.07 4.92,-20.24 5.00,-20.25 5.08,-20.26 5.16,-20.24 5.24,-20.23 5.31,-20.20 5.38,-20.16 5.45,-20.12 5.51,-20.07 5.56,-20.01 5.61,-19.94 5.64,-19.87 5.67,-19.80 5.69,-19.72 5.70,-19.64 5.70,-19.57 5.69,-19.49 5.67,-19.41 5.65,-19.33 5.61,-19.27 5.57,-19.20 5.51,-19.14 5.46,-19.09 5.39,-19.04 5.32,-19.00 5.25,-18.98 5.17,-18.95 4.12,-19.25 3.07,-19.55 1.84,-19.32 0.61,-19.09 -1.00,-18.92 -2.62,-18.76 -4.37,-18.31 -6.12,-17.87 -8.16,-17.42 -10.20,-16.98 -10.38,-16.92 -10.56,-16.86 -10.76,-16.85 -10.95,-16.84 -11.14,-16.87 -11.33,-16.91 -11.51,-16.99 -11.68,-17.06 -11.84,-17.18 -11.99,-17.30 -12.11,-17.45 -12.23,-17.60 -12.31,-17.78 -12.39,-17.96 -12.43,-18.15 -12.46,-18.34 -12.45,-18.53 -12.44,-18.72 -12.38,-18.91 -12.33,-19.09 -12.23,-19.26 -12.13,-19.43 -11.99,-19.56 -11.85,-19.70 -11.69,-19.80 -11.52,-19.90 -11.24,-19.87 -10.95,-19.83 -10.46,-20.12 -9.98,-20.42 -8.98,-20.68 -7.97,-20.95 -6.52,-21.22 -5.07,-21.50 -3.42,-21.29 -1.77,-21.07 -0.89,-20.26 -0.01,-19.45 0.41,-18.34 0.84,-17.24 0.99,-15.52 1.15,-13.80 1.15,-11.98 1.16,-10.15 1.18,-8.57 1.20,-6.98 1.26,-5.28 1.31,-3.58 1.16,-1.83 1.00,-0.08 1.00,0.03 0.99,0.15 0.96,0.27 0.93,0.39 0.87,0.49 0.80,0.60 0.72,0.69 0.64,0.78 0.53,0.84 0.43,0.91 0.32,0.95 0.20,0.98 0.08,1.00 -0.03,1.01 -0.15,0.99 -0.27,0.97 -0.39,0.92 -0.50,0.87 -0.60,0.80 -0.69,0.73 -0.77,0.63 -0.85,0.54 -0.90,0.43 -0.95,0.32 -0.98,0.20 -1.00,0.08 -1.00,0.08 L -1.00,0.08 Z"/></g><g transform="translate(309.5 34.5) rotate(0 -0.75 -5.25)" stroke="none"><path fill="#1e1e1e" d="M -0.90,0.36 Q -0.90,0.36 -1.48,-0.24 -2.05,-0.85 -2.23,-1.91 -2.42,-2.97 -2.48,-4.14 -2.55,-5.30 -2.30,-7.16 -2.06,-9.02 -2.05,-9.10 -2.05,-9.18 -2.02,-9.26 -2.00,-9.33 -1.96,-9.40 -1.91,-9.47 -1.86,-9.52 -1.80,-9.58 -1.73,-9.62 -1.66,-9.66 -1.59,-9.68 -1.51,-9.70 -1.43,-9.71 -1.35,-9.71 -1.28,-9.69 -1.20,-9.68 -1.13,-9.65 -1.06,-9.61 -0.99,-9.56 -0.93,-9.51 -0.88,-9.45 -0.84,-9.39 -0.80,-9.31 -0.77,-9.24 -0.76,-9.16 -0.75,-9.09 -0.99,-8.75 -1.24,-8.42 -1.35,-8.41 -1.45,-8.40 -1.56,-8.43 -1.66,-8.45 -1.75,-8.51 -1.84,-8.56 -1.91,-8.65 -1.97,-8.73 -2.01,-8.83 -2.05,-8.93 -2.05,-9.03 -2.05,-9.14 -2.02,-9.24 -1.99,-9.34 -1.93,-9.43 -1.87,-9.52 -1.78,-9.58 -1.70,-9.64 -1.60,-9.67 -1.49,-9.71 -1.39,-9.70 -1.28,-9.70 -1.18,-9.66 -1.08,-9.63 -1.00,-9.56 -0.92,-9.50 -0.86,-9.41 -0.80,-9.32 -0.77,-9.21 -0.75,-9.11 -0.76,-9.00 -0.76,-8.90 -0.81,-8.80 -0.85,-8.70 -0.92,-8.62 -0.99,-8.54 -1.08,-8.49 -1.17,-8.44 -1.28,-8.42 -1.38,-8.40 -1.49,-8.41 -1.59,-8.43 -1.69,-8.47 -1.78,-8.52 -1.86,-8.59 -1.93,-8.67 -1.98,-8.76 -2.03,-8.86 -2.04,-8.96 -2.06,-9.07 -2.04,-9.17 -2.02,-9.28 -1.97,-9.37 -1.92,-9.46 -1.84,-9.54 -1.76,-9.61 -1.91,-9.32 -2.06,-9.02 -2.05,-9.10 -2.05,-9.18 -2.02,-9.26 -2.00,-9.33 -1.96,-9.40 -1.91,-9.47 -1.86,-9.52 -1.80,-9.58 -1.73,-9.62 -1.66,-9.66 -1.59,-9.68 -1.51,-9.70 -1.43,-9.71 -1.35,-9.71 -1.28,-9.69 -1.20,-9.68 -1.13,-9.65 -1.06,-9.61 -0.99,-9.56 -0.93,-9.51 -0.88,-9.45 -0.84,-9.39 -0.80,-9.31 -0.77,-9.24 -0.76,-9.16 -0.75,-9.09 -0.02,-7.27 0.70,-5.46 0.74,-4.44 0.78,-3.42 0.84,-2.71 0.90,-2.01 0.90,-1.18 0.90,-0.36 0.93,-0.24 0.96,-0.13 0.96,-0.01 0.96,0.09 0.94,0.21 0.91,0.32 0.86,0.43 0.81,0.53 0.73,0.62 0.65,0.71 0.56,0.78 0.46,0.85 0.35,0.89 0.24,0.94 0.13,0.95 0.01,0.97 -0.09,0.96 -0.21,0.94 -0.32,0.90 -0.43,0.87 -0.53,0.80 -0.63,0.74 -0.71,0.65 -0.79,0.56 -0.84,0.46 -0.90,0.36 -0.90,0.36 L -0.90,0.36 Z"/></g></svg>