<svg version="1.1" xmlns="http://www.w3.org/2000/svg" viewBox="0 0 315 296.5" width="315" height="296.5" class="excalidraw-svg">
  <!-- svg-source:excalidraw -->
  
  <defs>
    <style class="style-fonts">
      @font-face {
        font-family: "Virgil";
        src: url("https://excalidraw.com/Virgil.woff2");
      }
      @font-face {
        font-family: "Cascadia";
        src: url("https://excalidraw.com/Cascadia.woff2");
      }
      @font-face {
        font-family: "Assistant";
        src: url("https://excalidraw.com/Assistant-Regular.woff2");
      }
    </style>
    
  </defs>
  <rect x="0" y="0" width="315" height="296.5" fill="#ffffff"/><g transform="translate(68.5 95) rotate(0 66.75 -18)" stroke="none"><path fill="#f08c00" d="M 0.23,-3.23 Q 0.23,-3.23 2.29,-3.81 4.35,-4.39 6.99,-4.37 9.63,-4.35 12.27,-4.40 14.90,-4.46 17.45,-4.68 19.99,-4.90 22.54,-5.42 25.09,-5.93 27.54,-6.02 29.99,-6.10 31.38,-8.88 32.77,-11.65 33.69,-14.35 34.62,-17.05 35.54,-19.06 36.46,-21.06 37.35,-23.06 38.24,-25.06 39.71,-27.54 41.19,-30.02 42.71,-32.12 44.22,-34.22 46.30,-35.90 48.39,-37.59 50.71,-38.85 53.04,-40.12 55.44,-40.89 57.84,-41.66 60.86,-41.50 63.88,-41.35 66.34,-40.01 68.80,-38.67 71.02,-36.38 73.24,-34.09 74.46,-32.07 75.68,-30.06 76.69,-27.65 77.69,-25.24 78.72,-23.15 79.75,-21.06 80.39,-18.80 81.03,-16.53 81.64,-14.47 82.25,-12.42 83.11,-10.39 83.98,-8.37 86.51,-7.82 89.05,-7.28 91.63,-7.45 94.22,-7.63 96.53,-7.44 98.85,-7.26 101.09,-7.25 103.34,-7.24 105.47,-7.25 107.59,-7.26 109.81,-7.28 112.02,-7.29 114.32,-7.30 116.62,-7.32 119.21,-7.71 121.80,-8.11 124.58,-8.69 127.36,-9.28 130.15,-7.33 132.93,-5.38 133.24,-5.35 133.56,-5.32 133.86,-5.22 134.16,-5.12 134.42,-4.94 134.69,-4.77 134.90,-4.54 135.12,-4.31 135.28,-4.03 135.43,-3.76 135.51,-3.45 135.60,-3.15 135.61,-2.83 135.62,-2.51 135.55,-2.20 135.48,-1.89 135.34,-1.61 135.20,-1.33 135.00,-1.08 134.79,-0.84 134.54,-0.65 134.28,-0.47 133.99,-0.35 133.70,-0.23 133.38,-0.18 133.07,-0.13 134.27,-1.00 135.47,-1.87 135.27,-1.50 135.06,-1.13 134.75,-0.84 134.43,-0.56 134.04,-0.38 133.65,-0.21 133.23,-0.18 132.81,-0.14 132.39,-0.24 131.98,-0.34 131.62,-0.56 131.26,-0.79 130.99,-1.12 130.72,-1.45 130.57,-1.85 130.42,-2.24 130.41,-2.67 130.40,-3.09 130.52,-3.50 130.64,-3.91 130.88,-4.26 131.13,-4.60 131.47,-4.85 131.82,-5.10 132.22,-5.23 132.63,-5.36 133.05,-5.35 133.48,-5.34 133.88,-5.20 134.28,-5.05 134.61,-4.79 134.94,-4.53 135.17,-4.17 135.41,-3.81 135.51,-3.40 135.62,-2.99 135.59,-2.57 135.55,-2.14 135.39,-1.75 135.22,-1.36 134.94,-1.04 134.66,-0.72 134.29,-0.51 133.92,-0.30 133.51,-0.22 133.09,-0.13 132.67,-0.19 132.25,-0.24 131.87,-0.43 131.48,-0.61 131.18,-0.91 130.88,-1.21 130.69,-1.59 130.49,-1.97 130.43,-2.39 130.37,-2.81 131.65,-4.10 132.93,-5.38 133.24,-5.35 133.56,-5.32 133.86,-5.22 134.16,-5.12 134.42,-4.94 134.69,-4.77 134.90,-4.54 135.12,-4.31 135.28,-4.03 135.43,-3.76 135.51,-3.45 135.60,-3.15 135.61,-2.83 135.62,-2.51 135.55,-2.20 135.48,-1.89 135.34,-1.61 135.20,-1.33 135.00,-1.08 134.79,-0.84 134.54,-0.65 134.28,-0.47 133.99,-0.35 133.70,-0.23 133.38,-0.18 133.07,-0.13 130.08,1.25 127.09,2.64 124.97,3.09 122.85,3.54 119.73,3.93 116.62,4.32 114.32,4.30 112.02,4.29 109.80,4.27 107.59,4.26 105.44,4.24 103.29,4.23 101.10,4.14 98.92,4.04 95.91,3.86 92.90,3.68 90.75,3.81 88.59,3.93 86.45,3.49 84.30,3.04 81.70,2.20 79.09,1.36 77.08,-0.28 75.08,-1.94 73.66,-4.53 72.23,-7.12 71.31,-10.23 70.39,-13.35 69.53,-16.27 68.66,-19.18 67.77,-21.13 66.87,-23.09 65.54,-25.60 64.20,-28.11 62.46,-29.60 60.73,-31.09 58.64,-30.52 56.56,-29.95 54.77,-28.76 52.99,-27.56 51.51,-25.72 50.02,-23.87 48.93,-22.00 47.83,-20.14 46.75,-17.87 45.66,-15.59 44.66,-12.99 43.65,-10.40 42.86,-7.94 42.07,-5.49 40.96,-3.39 39.84,-1.28 37.75,0.95 35.67,3.19 32.52,3.65 29.37,4.10 26.85,4.35 24.32,4.59 22.16,4.84 19.99,5.10 17.43,5.27 14.88,5.45 12.16,5.36 9.44,5.27 6.56,5.12 3.69,4.97 1.72,4.10 -0.23,3.23 -0.61,3.15 -0.99,3.08 -1.35,2.91 -1.70,2.75 -2.01,2.50 -2.31,2.26 -2.55,1.95 -2.79,1.64 -2.94,1.28 -3.10,0.92 -3.16,0.54 -3.23,0.16 -3.20,-0.22 -3.18,-0.61 -3.05,-0.99 -2.93,-1.36 -2.73,-1.69 -2.52,-2.02 -2.24,-2.29 -1.96,-2.57 -1.63,-2.77 -1.29,-2.96 -0.92,-3.08 -0.54,-3.19 -0.15,-3.21 0.23,-3.23 0.23,-3.23 L 0.23,-3.23 Z"/></g><g transform="translate(195 90.5) rotate(0 50.25 -0.75)" stroke="none"><path fill="#e03131" d="M -0.21,-2.84 Q -0.21,-2.84 1.55,-4.21 3.33,-5.58 6.05,-5.77 8.77,-5.96 11.14,-6.03 13.50,-6.10 17.31,-5.96 21.12,-5.83 23.96,-5.51 26.79,-5.20 29.31,-5.03 31.83,-4.86 34.99,-4.63 38.14,-4.40 40.96,-4.60 43.78,-4.79 45.94,-4.94 48.09,-5.08 50.64,-5.30 53.19,-5.53 55.38,-5.67 57.57,-5.81 60.10,-5.84 62.63,-5.86 64.80,-5.87 66.96,-5.87 69.41,-5.87 71.85,-5.88 74.55,-6.11 77.24,-6.34 79.55,-6.36 81.86,-6.39 84.56,-7.02 87.26,-7.66 89.39,-8.00 91.52,-8.33 95.53,-6.96 99.55,-5.58 99.87,-5.60 100.18,-5.62 100.49,-5.56 100.81,-5.50 101.09,-5.37 101.38,-5.24 101.63,-5.04 101.88,-4.85 102.07,-4.60 102.27,-4.35 102.40,-4.06 102.53,-3.77 102.58,-3.46 102.64,-3.15 102.62,-2.83 102.60,-2.51 102.51,-2.21 102.41,-1.91 102.25,-1.64 102.08,-1.37 101.86,-1.15 101.63,-0.92 101.36,-0.76 101.09,-0.60 100.79,-0.50 100.48,-0.41 99.83,-0.46 99.17,-0.51 98.79,-0.71 98.42,-0.91 98.13,-1.22 97.84,-1.53 97.66,-1.92 97.48,-2.30 97.44,-2.73 97.40,-3.15 97.49,-3.56 97.58,-3.98 97.80,-4.34 98.02,-4.70 98.35,-4.98 98.67,-5.25 99.07,-5.41 99.46,-5.56 99.89,-5.58 100.31,-5.60 100.72,-5.49 101.13,-5.37 101.48,-5.13 101.83,-4.89 102.09,-4.55 102.34,-4.22 102.48,-3.81 102.61,-3.41 102.61,-2.98 102.61,-2.56 102.47,-2.16 102.33,-1.75 102.07,-1.42 101.82,-1.08 101.46,-0.84 101.11,-0.61 100.70,-0.49 100.29,-0.38 99.87,-0.41 99.44,-0.43 99.05,-0.59 98.65,-0.75 98.33,-1.03 98.01,-1.30 97.79,-1.67 97.57,-2.03 97.48,-2.45 97.39,-2.86 97.44,-3.29 97.49,-3.71 97.67,-4.09 97.85,-4.48 98.14,-4.79 98.44,-5.09 98.81,-5.29 99.19,-5.49 99.61,-5.55 100.03,-5.62 99.79,-5.60 99.55,-5.58 99.87,-5.60 100.18,-5.62 100.49,-5.56 100.81,-5.50 101.09,-5.37 101.38,-5.24 101.63,-5.04 101.88,-4.85 102.07,-4.60 102.27,-4.35 102.40,-4.06 102.53,-3.77 102.58,-3.46 102.64,-3.15 102.62,-2.83 102.60,-2.51 102.51,-2.21 102.41,-1.91 102.25,-1.64 102.08,-1.37 101.86,-1.15 101.63,-0.92 101.36,-0.76 101.09,-0.60 100.79,-0.50 100.48,-0.41 97.31,1.49 94.13,3.41 91.95,3.61 89.77,3.81 87.60,4.34 85.43,4.87 83.23,5.13 81.04,5.39 78.40,5.45 75.75,5.51 73.03,5.69 70.31,5.87 67.93,5.87 65.56,5.87 62.91,5.87 60.25,5.88 57.74,5.93 55.22,5.99 52.41,6.25 49.60,6.51 46.18,6.69 42.77,6.87 40.12,7.00 37.47,7.14 34.09,6.78 30.70,6.41 28.53,6.25 26.36,6.09 23.24,5.75 20.11,5.40 16.83,5.26 13.56,5.11 11.30,5.07 9.04,5.03 6.59,5.02 4.14,5.00 2.18,3.92 0.21,2.84 -0.12,2.83 -0.46,2.81 -0.79,2.71 -1.12,2.62 -1.42,2.44 -1.72,2.27 -1.97,2.03 -2.21,1.79 -2.40,1.50 -2.58,1.21 -2.69,0.88 -2.79,0.56 -2.82,0.21 -2.85,-0.12 -2.79,-0.46 -2.73,-0.80 -2.60,-1.12 -2.46,-1.43 -2.25,-1.71 -2.05,-1.98 -1.78,-2.20 -1.51,-2.41 -1.20,-2.56 -0.89,-2.71 -0.55,-2.77 -0.21,-2.84 -0.21,-2.84 L -0.21,-2.84 Z"/></g><g transform="translate(203.5 38) rotate(0 -3.25 -8.5)" stroke="none"><path fill="#f08c00" d="M -0.74,0.04 Q -0.74,0.04 -1.19,-2.23 -1.65,-4.51 -2.00,-7.17 -2.34,-9.82 -2.49,-11.12 -2.64,-12.42 -2.83,-13.00 -3.01,-13.58 -3.61,-13.89 -4.20,-14.21 -5.23,-13.83 -6.26,-13.45 -7.05,-13.14 -7.83,-12.82 -8.32,-12.68 -8.80,-12.53 -8.95,-12.50 -9.09,-12.46 -9.25,-12.45 -9.40,-12.45 -9.55,-12.48 -9.69,-12.51 -9.83,-12.58 -9.97,-12.65 -10.08,-12.75 -10.20,-12.85 -10.29,-12.97 -10.38,-13.09 -10.43,-13.23 -10.49,-13.37 -10.51,-13.52 -10.53,-13.67 -10.52,-13.82 -10.50,-13.97 -10.45,-14.12 -10.40,-14.26 -10.32,-14.39 -10.23,-14.51 -10.12,-14.62 -10.01,-14.72 -9.88,-14.79 -9.75,-14.87 -9.06,-14.88 -8.38,-14.90 -6.78,-15.47 -5.17,-16.05 -3.63,-16.43 -2.08,-16.82 0.48,-17.19 3.05,-17.56 3.15,-17.57 3.26,-17.58 3.36,-17.55 3.46,-17.53 3.55,-17.47 3.64,-17.41 3.71,-17.33 3.78,-17.25 3.81,-17.15 3.85,-17.05 3.85,-16.94 3.86,-16.84 3.83,-16.73 3.79,-16.63 3.73,-16.55 3.67,-16.46 3.59,-16.40 3.50,-16.33 3.40,-16.30 3.30,-16.27 3.19,-16.27 3.08,-16.28 2.98,-16.31 2.88,-16.35 2.80,-16.42 2.72,-16.48 2.66,-16.57 2.60,-16.66 2.58,-16.76 2.55,-16.87 2.56,-16.97 2.57,-17.08 2.61,-17.18 2.65,-17.27 2.72,-17.35 2.79,-17.43 2.89,-17.49 2.98,-17.54 3.08,-17.56 3.19,-17.58 3.29,-17.56 3.40,-17.55 3.49,-17.50 3.59,-17.46 3.66,-17.38 3.74,-17.31 3.79,-17.21 3.83,-17.12 3.85,-17.01 3.86,-16.91 3.84,-16.80 3.82,-16.70 3.77,-16.60 3.72,-16.51 3.64,-16.44 3.56,-16.37 3.46,-16.33 3.37,-16.29 3.37,-16.29 3.37,-16.29 0.98,-15.17 -1.40,-14.05 -2.89,-13.69 -4.38,-13.32 -6.59,-12.93 -8.80,-12.53 -8.95,-12.50 -9.09,-12.46 -9.25,-12.45 -9.40,-12.45 -9.55,-12.48 -9.69,-12.51 -9.83,-12.58 -9.97,-12.65 -10.08,-12.75 -10.20,-12.85 -10.29,-12.97 -10.37,-13.09 -10.43,-13.23 -10.49,-13.37 -10.51,-13.52 -10.53,-13.67 -10.52,-13.82 -10.50,-13.97 -10.45,-14.12 -10.40,-14.26 -10.32,-14.39 -10.23,-14.51 -10.12,-14.62 -10.01,-14.72 -9.88,-14.79 -9.75,-14.87 -9.26,-15.00 -8.77,-15.14 -7.93,-15.48 -7.10,-15.82 -5.68,-16.30 -4.26,-16.79 -3.05,-16.68 -1.84,-16.58 -1.10,-15.47 -0.36,-14.37 -0.14,-13.56 0.08,-12.75 0.23,-11.46 0.37,-10.18 0.72,-7.43 1.07,-4.68 0.91,-2.36 0.74,-0.04 0.74,0.04 0.73,0.13 0.70,0.21 0.68,0.30 0.63,0.38 0.58,0.45 0.52,0.52 0.46,0.58 0.38,0.63 0.30,0.68 0.22,0.70 0.13,0.73 0.04,0.74 -0.04,0.74 -0.13,0.72 -0.22,0.71 -0.30,0.67 -0.38,0.64 -0.45,0.58 -0.52,0.52 -0.58,0.45 -0.63,0.38 -0.67,0.30 -0.71,0.22 -0.72,0.13 -0.74,0.04 -0.74,0.04 L -0.74,0.04 Z"/></g><g transform="translate(213.5 40.5) rotate(0 -0.5 -5.75)" stroke="none"><path fill="#f08c00" d="M -1.01,0 Q -1.01,0 -1.25,-0.71 -1.49,-1.43 -1.63,-2.35 -1.77,-3.27 -1.83,-4.49 -1.90,-5.71 -1.75,-8.30 -1.60,-10.90 -1.60,-11.00 -1.59,-11.11 -1.55,-11.21 -1.50,-11.31 -1.43,-11.38 -1.36,-11.46 -1.27,-11.52 -1.18,-11.57 -1.07,-11.59 -0.97,-11.61 -0.86,-11.60 -0.76,-11.58 -0.66,-11.53 -0.57,-11.49 -0.49,-11.41 -0.42,-11.34 -0.37,-11.24 -0.32,-11.15 -0.31,-11.04 -0.29,-10.94 -0.31,-10.83 -0.33,-10.73 -0.38,-10.64 -0.44,-10.54 -0.52,-10.47 -0.59,-10.40 -0.69,-10.36 -0.79,-10.32 -0.90,-10.31 -1.00,-10.30 -1.10,-10.32 -1.21,-10.35 -1.30,-10.41 -1.39,-10.46 -1.45,-10.55 -1.52,-10.63 -1.56,-10.73 -1.59,-10.83 -1.60,-10.93 -1.60,-11.04 -1.57,-11.14 -1.54,-11.24 -1.48,-11.33 -1.41,-11.42 -1.33,-11.48 -1.24,-11.54 -1.14,-11.57 -1.04,-11.60 -0.93,-11.60 -0.83,-11.60 -0.73,-11.56 -0.63,-11.53 -0.54,-11.46 -0.46,-11.39 -0.40,-11.30 -0.35,-11.21 -0.32,-11.11 -0.30,-11.01 -0.30,-11.01 -0.30,-11.01 0.39,-8.44 1.08,-5.87 1.14,-4.78 1.19,-3.69 1.34,-2.56 1.49,-1.43 1.25,-0.71 1.01,0 0.99,0.12 0.98,0.24 0.94,0.35 0.89,0.47 0.82,0.57 0.75,0.67 0.66,0.75 0.57,0.83 0.46,0.89 0.35,0.94 0.24,0.97 0.12,1.00 -0.00,1.00 -0.12,1.00 -0.24,0.97 -0.35,0.94 -0.46,0.89 -0.57,0.83 -0.66,0.75 -0.75,0.67 -0.82,0.57 -0.89,0.47 -0.94,0.35 -0.98,0.24 -0.99,0.12 -1.01,-0.00 -1.01,-0.00 L -1.01,0 Z"/></g><g transform="translate(228 18.5) rotate(0 -1.25 8.25)" stroke="none"><path fill="#1e1e1e" d="M 0.74,0.29 Q 0.74,0.29 0.72,1.12 0.70,1.95 0.12,3.04 -0.46,4.14 -1.03,4.94 -1.60,5.74 -2.63,6.72 -3.66,7.70 -4.11,7.99 -4.57,8.28 -3.41,8.88 -2.26,9.48 -1.14,10.11 -0.03,10.73 0.98,11.50 2.00,12.27 3.29,14.21 4.57,16.14 4.59,16.25 4.60,16.35 4.58,16.46 4.56,16.56 4.51,16.65 4.46,16.75 4.38,16.82 4.30,16.89 4.21,16.93 4.11,16.97 4.00,16.98 3.90,16.99 3.79,16.97 3.69,16.94 3.60,16.89 3.51,16.83 3.44,16.75 3.38,16.66 3.34,16.56 3.30,16.47 3.30,16.36 3.29,16.25 3.33,16.15 3.36,16.05 3.42,15.96 3.48,15.88 3.56,15.81 3.65,15.75 3.75,15.72 3.85,15.69 3.96,15.69 4.07,15.69 4.17,15.73 4.27,15.76 4.35,15.83 4.43,15.90 4.49,15.99 4.55,16.07 4.57,16.18 4.60,16.28 4.59,16.39 4.58,16.49 4.54,16.59 4.50,16.69 4.43,16.77 4.36,16.85 4.27,16.90 4.18,16.95 4.07,16.97 3.97,16.99 3.86,16.98 3.76,16.97 3.66,16.92 3.57,16.87 3.49,16.80 3.41,16.72 3.37,16.63 3.32,16.53 3.32,16.53 3.32,16.53 1.77,15.56 0.22,14.59 -0.62,13.92 -1.48,13.25 -2.74,12.52 -4.00,11.78 -4.78,11.18 -5.55,10.58 -6.18,9.88 -6.81,9.18 -6.81,8.18 -6.81,7.18 -6.18,6.43 -5.55,5.68 -4.70,4.90 -3.84,4.11 -3.37,3.47 -2.89,2.82 -2.37,1.87 -1.85,0.92 -1.30,0.31 -0.74,-0.29 -0.69,-0.38 -0.65,-0.46 -0.58,-0.53 -0.52,-0.61 -0.44,-0.66 -0.36,-0.71 -0.26,-0.75 -0.17,-0.78 -0.08,-0.79 0.01,-0.80 0.11,-0.79 0.20,-0.77 0.29,-0.74 0.38,-0.70 0.46,-0.64 0.54,-0.59 0.60,-0.51 0.66,-0.44 0.71,-0.35 0.75,-0.27 0.77,-0.17 0.79,-0.08 0.79,0.01 0.79,0.11 0.77,0.20 0.74,0.29 0.74,0.29 L 0.74,0.29 Z"/></g><g transform="translate(246 33) rotate(0 -5 -10)" stroke="none"><path fill="#e03131" d="M -0.96,0.24 Q -0.96,0.24 -1.30,-0.28 -1.64,-0.81 -1.77,-1.60 -1.89,-2.40 -2.13,-3.25 -2.36,-4.10 -2.55,-5.46 -2.73,-6.81 -2.81,-8.01 -2.89,-9.20 -3.07,-10.66 -3.24,-12.11 -3.32,-13.36 -3.40,-14.61 -3.57,-15.47 -3.73,-16.32 -3.81,-17.07 -3.90,-17.81 -4.99,-17.68 -6.09,-17.55 -6.77,-17.55 -7.46,-17.54 -8.32,-17.33 -9.18,-17.13 -9.85,-17.08 -10.53,-17.03 -10.96,-16.91 -11.39,-16.80 -11.55,-16.73 -11.71,-16.66 -11.89,-16.63 -12.07,-16.61 -12.25,-16.62 -12.42,-16.64 -12.59,-16.69 -12.76,-16.75 -12.91,-16.85 -13.06,-16.94 -13.19,-17.07 -13.31,-17.20 -13.40,-17.36 -13.49,-17.51 -13.54,-17.68 -13.59,-17.85 -13.59,-18.03 -13.60,-18.21 -13.56,-18.39 -13.53,-18.56 -13.45,-18.72 -13.37,-18.88 -13.26,-19.02 -13.15,-19.16 -13.00,-19.27 -12.86,-19.37 -12.22,-19.42 -11.59,-19.46 -10.61,-19.73 -9.63,-20.00 -8.54,-20.27 -7.45,-20.53 -6.25,-20.79 -5.05,-21.05 -4.05,-21.17 -3.05,-21.29 -2.33,-21.34 -1.61,-21.39 0.42,-20.80 2.46,-20.20 2.56,-20.15 2.65,-20.10 2.72,-20.02 2.79,-19.94 2.84,-19.85 2.88,-19.75 2.89,-19.64 2.90,-19.54 2.88,-19.43 2.85,-19.33 2.80,-19.24 2.74,-19.15 2.66,-19.08 2.58,-19.02 2.48,-18.98 2.38,-18.94 2.27,-18.94 2.17,-18.93 2.06,-18.96 1.96,-18.99 1.87,-19.05 1.79,-19.11 1.72,-19.20 1.66,-19.28 1.63,-19.39 1.60,-19.49 1.60,-19.59 1.60,-19.70 1.64,-19.80 1.67,-19.90 1.74,-19.98 1.80,-20.07 1.89,-20.12 1.98,-20.18 2.08,-20.21 2.18,-20.24 2.29,-20.23 2.40,-20.22 2.49,-20.18 2.59,-20.14 2.67,-20.07 2.75,-20.00 2.81,-19.91 2.86,-19.82 2.88,-19.71 2.90,-19.61 2.89,-19.50 2.88,-19.40 2.83,-19.30 2.78,-19.21 2.71,-19.13 2.64,-19.05 2.54,-19.01 2.45,-18.96 2.34,-18.94 2.24,-18.93 2.13,-18.95 2.03,-18.96 2.03,-18.96 2.03,-18.96 0.30,-18.71 -1.41,-18.46 -2.06,-18.42 -2.71,-18.38 -3.57,-18.28 -4.44,-18.19 -5.61,-17.94 -6.78,-17.69 -7.88,-17.43 -8.99,-17.17 -10.19,-16.98 -11.39,-16.80 -11.55,-16.73 -11.71,-16.66 -11.89,-16.63 -12.07,-16.61 -12.25,-16.62 -12.42,-16.63 -12.59,-16.69 -12.76,-16.75 -12.91,-16.85 -13.06,-16.94 -13.19,-17.07 -13.31,-17.20 -13.40,-17.35 -13.49,-17.51 -13.54,-17.68 -13.59,-17.85 -13.59,-18.03 -13.60,-18.21 -13.56,-18.39 -13.53,-18.56 -13.45,-18.72 -13.37,-18.88 -13.26,-19.02 -13.15,-19.16 -13.00,-19.27 -12.86,-19.37 -12.60,-19.44 -12.34,-19.51 -11.25,-19.76 -10.17,-20.01 -9.59,-20.08 -9.01,-20.14 -8.27,-20.31 -7.53,-20.49 -6.85,-20.50 -6.18,-20.52 -5.33,-20.55 -4.49,-20.58 -3.68,-20.60 -2.86,-20.63 -2.15,-20.15 -1.44,-19.68 -1.15,-18.91 -0.87,-18.14 -0.81,-17.51 -0.74,-16.87 -0.56,-15.84 -0.37,-14.80 -0.30,-13.63 -0.23,-12.46 -0.06,-10.93 0.11,-9.39 0.17,-8.29 0.24,-7.19 0.42,-5.54 0.60,-3.88 0.79,-3.28 0.97,-2.67 1.02,-2.08 1.07,-1.48 1.01,-0.86 0.96,-0.24 0.97,-0.12 0.99,-0.00 0.97,0.11 0.96,0.23 0.92,0.34 0.87,0.45 0.81,0.55 0.74,0.65 0.65,0.73 0.56,0.81 0.46,0.87 0.35,0.92 0.23,0.95 0.12,0.98 0.00,0.98 -0.11,0.98 -0.23,0.95 -0.34,0.92 -0.45,0.87 -0.56,0.81 -0.65,0.73 -0.74,0.66 -0.80,0.56 -0.87,0.46 -0.91,0.35 -0.96,0.24 -0.96,0.24 L -0.96,0.24 Z"/></g><g transform="translate(252 27) rotate(0 3.75 4.25)" stroke="none"><path fill="#e03131" d="M 0.15,-0.91 Q 0.15,-0.91 1.05,-0.97 1.95,-1.03 2.59,-0.79 3.24,-0.55 3.84,-0.25 4.43,0.04 4.91,0.72 5.39,1.40 5.39,2.33 5.39,3.26 5.02,4.14 4.64,5.03 3.87,6.13 3.10,7.24 2.70,7.74 2.30,8.24 3.12,7.88 3.95,7.52 5.79,7.92 7.64,8.33 7.74,8.35 7.84,8.37 7.94,8.42 8.03,8.47 8.10,8.55 8.17,8.63 8.22,8.73 8.26,8.82 8.27,8.93 8.28,9.04 8.26,9.14 8.23,9.24 8.17,9.33 8.12,9.42 8.04,9.49 7.95,9.56 7.85,9.59 7.75,9.63 7.65,9.64 7.54,9.64 7.44,9.61 7.34,9.58 7.25,9.52 7.17,9.46 7.10,9.37 7.04,9.29 7.01,9.19 6.97,9.08 6.98,8.98 6.98,8.87 7.01,8.77 7.05,8.67 7.12,8.59 7.18,8.50 7.27,8.45 7.36,8.39 7.46,8.36 7.56,8.33 7.67,8.34 7.78,8.35 7.87,8.39 7.97,8.43 8.05,8.50 8.13,8.57 8.19,8.66 8.24,8.76 8.26,8.86 8.28,8.96 8.27,9.07 8.25,9.18 8.21,9.27 8.16,9.37 8.09,9.44 8.01,9.52 7.92,9.57 7.82,9.61 7.72,9.63 7.61,9.65 7.61,9.65 7.61,9.65 5.68,9.98 3.75,10.31 2.84,10.23 1.93,10.15 1.21,9.75 0.49,9.36 0.25,8.50 0.00,7.64 0.49,6.70 0.98,5.76 1.62,4.85 2.26,3.94 2.66,3.11 3.07,2.27 2.28,1.94 1.49,1.60 0.67,1.26 -0.15,0.91 -0.25,0.88 -0.36,0.84 -0.46,0.79 -0.55,0.73 -0.63,0.65 -0.71,0.58 -0.77,0.48 -0.83,0.39 -0.87,0.28 -0.90,0.18 -0.91,0.07 -0.92,-0.04 -0.90,-0.15 -0.88,-0.26 -0.84,-0.36 -0.79,-0.46 -0.73,-0.55 -0.66,-0.64 -0.57,-0.71 -0.49,-0.78 -0.39,-0.83 -0.28,-0.87 -0.17,-0.90 -0.07,-0.92 0.04,-0.91 0.15,-0.91 0.15,-0.91 L 0.15,-0.91 Z"/></g><g transform="translate(188 20) rotate(0 3 11)" stroke="none"><path fill="#1e1e1e" d="M 0.74,0.29 Q 0.74,0.29 0.66,1.09 0.59,1.89 0.50,2.63 0.42,3.37 0.22,4.61 0.03,5.85 0.23,7.65 0.44,9.45 1.07,11.15 1.70,12.85 2.39,14.29 3.08,15.74 3.79,17.06 4.51,18.39 5.84,19.60 7.17,20.81 7.27,20.84 7.38,20.86 7.47,20.92 7.55,20.98 7.62,21.06 7.69,21.14 7.73,21.24 7.76,21.34 7.77,21.45 7.77,21.55 7.74,21.65 7.71,21.76 7.64,21.84 7.58,21.93 7.50,21.99 7.41,22.05 7.31,22.08 7.21,22.12 7.10,22.11 7.00,22.11 6.90,22.07 6.80,22.04 6.71,21.97 6.63,21.90 6.57,21.82 6.52,21.73 6.49,21.62 6.46,21.52 6.47,21.41 6.48,21.31 6.52,21.21 6.56,21.11 6.63,21.03 6.71,20.95 6.80,20.90 6.89,20.85 6.99,20.83 7.10,20.81 7.20,20.82 7.31,20.84 7.40,20.88 7.50,20.93 7.57,21.01 7.65,21.08 7.70,21.18 7.74,21.27 7.76,21.38 7.77,21.48 7.75,21.59 7.73,21.69 7.68,21.78 7.63,21.88 7.55,21.95 7.47,22.02 7.37,22.06 7.28,22.10 7.17,22.11 7.07,22.12 7.07,22.12 7.07,22.12 4.69,20.85 2.31,19.59 1.56,18.20 0.81,16.82 0.07,15.26 -0.66,13.70 -1.35,11.72 -2.04,9.73 -2.25,7.61 -2.45,5.48 -2.25,4.25 -2.06,3.02 -1.90,2.00 -1.74,0.98 -1.24,0.34 -0.74,-0.29 -0.69,-0.38 -0.65,-0.46 -0.58,-0.53 -0.52,-0.61 -0.44,-0.66 -0.36,-0.71 -0.26,-0.75 -0.17,-0.78 -0.08,-0.79 0.01,-0.80 0.11,-0.79 0.20,-0.77 0.29,-0.74 0.38,-0.70 0.46,-0.64 0.54,-0.59 0.60,-0.51 0.66,-0.44 0.71,-0.35 0.75,-0.27 0.77,-0.17 0.79,-0.08 0.79,0.01 0.79,0.11 0.77,0.20 0.74,0.29 0.74,0.29 L 0.74,0.29 Z"/></g><g transform="translate(261.5 10) rotate(0 3.75 13.25)" stroke="none"><path fill="#1e1e1e" d="M 0.59,-0.79 Q 0.59,-0.79 1.85,-0.07 3.11,0.65 4.01,1.69 4.91,2.73 5.74,4.07 6.57,5.42 7.24,7.38 7.92,9.35 8.21,11.41 8.50,13.47 8.05,16.04 7.61,18.61 5.92,21.96 4.23,25.30 4.17,25.39 4.11,25.48 4.03,25.55 3.95,25.61 3.85,25.65 3.75,25.69 3.64,25.69 3.53,25.69 3.43,25.66 3.33,25.63 3.24,25.57 3.16,25.50 3.10,25.42 3.03,25.33 3.00,25.23 2.97,25.13 2.97,25.02 2.98,24.92 3.01,24.82 3.05,24.72 3.12,24.63 3.18,24.55 3.27,24.49 3.36,24.44 3.47,24.41 3.57,24.39 3.68,24.40 3.78,24.40 3.88,24.45 3.98,24.49 4.06,24.56 4.13,24.63 4.19,24.72 4.24,24.82 4.26,24.92 4.28,25.02 4.26,25.13 4.25,25.23 4.20,25.33 4.16,25.43 4.08,25.50 4.00,25.58 3.91,25.62 3.81,25.67 3.71,25.68 3.60,25.70 3.50,25.68 3.40,25.66 3.30,25.60 3.21,25.55 3.14,25.47 3.07,25.39 3.03,25.30 2.99,25.20 2.98,25.09 2.97,24.99 2.99,24.88 3.02,24.78 3.02,24.78 3.02,24.78 4.18,21.53 5.33,18.28 5.53,16.05 5.73,13.82 5.49,12.02 5.26,10.23 4.72,8.53 4.17,6.84 3.48,5.66 2.79,4.48 2.13,3.63 1.48,2.79 0.44,1.79 -0.59,0.79 -0.68,0.71 -0.77,0.63 -0.83,0.52 -0.90,0.42 -0.93,0.31 -0.97,0.20 -0.98,0.08 -0.99,-0.03 -0.97,-0.15 -0.95,-0.27 -0.91,-0.38 -0.86,-0.49 -0.79,-0.59 -0.71,-0.69 -0.62,-0.76 -0.53,-0.84 -0.42,-0.89 -0.31,-0.94 -0.19,-0.97 -0.08,-0.99 0.03,-0.98 0.15,-0.98 0.27,-0.95 0.39,-0.91 0.49,-0.85 0.59,-0.79 0.59,-0.79 L 0.59,-0.79 Z"/></g><g transform="translate(114.5 48) rotate(0 -1 -10)" stroke="none"><path fill="#1e1e1e" d="M -0.81,0.13 Q -0.81,0.13 -1.59,-2.39 -2.37,-4.92 -2.57,-7.23 -2.77,-9.54 -3.00,-12.37 -3.22,-15.20 -2.73,-16.03 -2.23,-16.87 -2.23,-16.95 -2.22,-17.03 -2.20,-17.11 -2.18,-17.18 -2.14,-17.25 -2.10,-17.32 -2.04,-17.38 -1.99,-17.43 -1.92,-17.47 -1.85,-17.52 -1.78,-17.54 -1.70,-17.57 -1.63,-17.57 -1.55,-17.58 -1.47,-17.57 -1.39,-17.55 -1.32,-17.52 -1.24,-17.49 -1.18,-17.44 -1.12,-17.40 -1.07,-17.33 -1.02,-17.27 -0.99,-17.20 -0.95,-17.13 -0.94,-17.05 -0.92,-16.97 -0.92,-16.90 -0.92,-16.83 -0.96,-16.73 -0.99,-16.63 -1.05,-16.54 -1.11,-16.46 -1.20,-16.39 -1.29,-16.33 -1.39,-16.30 -1.49,-16.27 -1.60,-16.28 -1.70,-16.28 -1.80,-16.32 -1.90,-16.35 -1.98,-16.42 -2.07,-16.49 -2.12,-16.58 -2.18,-16.67 -2.20,-16.77 -2.23,-16.87 -2.22,-16.98 -2.21,-17.08 -2.17,-17.18 -2.13,-17.28 -2.05,-17.36 -1.98,-17.44 -1.89,-17.49 -1.80,-17.54 -1.69,-17.56 -1.59,-17.58 -1.48,-17.56 -1.38,-17.55 -1.28,-17.50 -1.19,-17.45 -1.11,-17.38 -1.04,-17.30 -0.99,-17.21 -0.95,-17.11 -0.93,-17.01 -0.92,-16.90 -0.94,-16.80 -0.96,-16.69 -1.01,-16.60 -1.07,-16.51 -1.14,-16.44 -1.22,-16.37 -1.32,-16.33 -1.42,-16.28 -1.53,-16.28 -1.63,-16.27 -1.73,-16.29 -1.84,-16.32 -1.93,-16.38 -2.02,-16.44 -2.08,-16.52 -2.15,-16.60 -2.18,-16.70 -2.22,-16.80 -2.22,-16.84 -2.23,-16.87 -2.23,-16.95 -2.22,-17.03 -2.20,-17.11 -2.18,-17.18 -2.14,-17.25 -2.10,-17.32 -2.04,-17.38 -1.99,-17.43 -1.92,-17.47 -1.85,-17.52 -1.78,-17.54 -1.70,-17.57 -1.63,-17.57 -1.55,-17.58 -1.47,-17.57 -1.39,-17.55 -1.32,-17.52 -1.25,-17.49 -1.18,-17.44 -1.12,-17.40 -1.07,-17.33 -1.02,-17.27 -0.99,-17.20 -0.95,-17.13 -0.94,-17.05 -0.92,-16.97 -0.52,-16.21 -0.11,-15.44 0.10,-12.62 0.31,-9.80 0.48,-7.61 0.65,-5.42 0.73,-2.78 0.81,-0.13 0.81,-0.03 0.82,0.06 0.80,0.16 0.78,0.25 0.73,0.34 0.69,0.43 0.63,0.51 0.57,0.59 0.49,0.65 0.41,0.71 0.32,0.75 0.23,0.78 0.13,0.80 0.03,0.82 -0.06,0.81 -0.16,0.80 -0.25,0.77 -0.34,0.74 -0.43,0.69 -0.51,0.63 -0.58,0.56 -0.65,0.49 -0.70,0.41 -0.75,0.32 -0.78,0.23 -0.81,0.13 -0.81,0.13 L -0.81,0.13 Z"/></g><g transform="translate(112.5 37.5) rotate(0 8.75 0.75)" stroke="none"><path fill="#1e1e1e" d="M 0.31,-0.82 Q 0.31,-0.82 1.55,-0.65 2.79,-0.47 3.86,-0.33 4.93,-0.19 6.23,-0.12 7.54,-0.06 9.11,-0.03 10.67,-0.00 11.92,0.01 13.16,0.02 15.34,0.43 17.52,0.84 17.63,0.85 17.73,0.87 17.82,0.92 17.92,0.97 17.99,1.05 18.06,1.13 18.11,1.22 18.15,1.32 18.16,1.43 18.17,1.53 18.15,1.63 18.13,1.74 18.07,1.83 18.02,1.92 17.94,1.99 17.86,2.06 17.76,2.10 17.66,2.14 17.55,2.14 17.45,2.15 17.34,2.12 17.24,2.09 17.15,2.03 17.07,1.97 17.00,1.88 16.94,1.80 16.90,1.70 16.87,1.60 16.87,1.49 16.87,1.38 16.91,1.28 16.94,1.18 17.00,1.10 17.07,1.02 17.16,0.96 17.25,0.90 17.35,0.87 17.45,0.84 17.56,0.85 17.66,0.85 17.76,0.89 17.86,0.93 17.94,1.00 18.02,1.07 18.08,1.16 18.13,1.25 18.15,1.36 18.17,1.46 18.16,1.57 18.15,1.67 18.11,1.77 18.06,1.86 17.99,1.94 17.91,2.02 17.82,2.07 17.73,2.12 17.62,2.13 17.52,2.15 17.52,2.15 17.52,2.15 15.32,2.54 13.13,2.93 11.87,2.91 10.61,2.90 9.00,2.86 7.38,2.83 5.94,2.74 4.49,2.65 3.15,2.42 1.80,2.20 0.74,1.51 -0.31,0.82 -0.40,0.77 -0.50,0.73 -0.58,0.65 -0.66,0.58 -0.72,0.50 -0.78,0.41 -0.82,0.31 -0.85,0.21 -0.87,0.10 -0.88,0.00 -0.87,-0.10 -0.86,-0.20 -0.82,-0.30 -0.78,-0.40 -0.72,-0.49 -0.66,-0.58 -0.58,-0.65 -0.50,-0.72 -0.41,-0.77 -0.31,-0.82 -0.21,-0.85 -0.10,-0.87 -0.00,-0.87 0.10,-0.87 0.20,-0.85 0.31,-0.82 0.31,-0.82 L 0.31,-0.82 Z"/></g><g transform="translate(122.5 30.5) rotate(0 4 7.5)" stroke="none"><path fill="#1e1e1e" d="M 0.15,-0.91 Q 0.15,-0.91 1.06,-1.04 1.97,-1.18 3.40,-0.82 4.84,-0.46 5.87,0.02 6.89,0.52 7.60,1.14 8.31,1.76 8.71,2.68 9.12,3.60 9.11,5.00 9.10,6.40 8.77,7.75 8.44,9.11 7.84,10.58 7.25,12.05 6.20,13.43 5.14,14.82 5.13,14.92 5.12,15.03 5.08,15.13 5.03,15.22 4.96,15.30 4.89,15.38 4.79,15.43 4.70,15.48 4.60,15.50 4.49,15.51 4.39,15.50 4.28,15.48 4.19,15.43 4.09,15.38 4.02,15.31 3.95,15.23 3.90,15.13 3.86,15.04 3.84,14.93 3.83,14.83 3.85,14.72 3.87,14.62 3.93,14.53 3.98,14.44 4.06,14.37 4.14,14.30 4.24,14.26 4.34,14.22 4.45,14.21 4.55,14.20 4.66,14.23 4.76,14.26 4.85,14.32 4.93,14.38 5.00,14.46 5.06,14.55 5.10,14.65 5.13,14.75 5.13,14.85 5.14,14.96 5.10,15.06 5.07,15.16 5.01,15.25 4.94,15.33 4.85,15.39 4.77,15.45 4.66,15.48 4.56,15.51 4.46,15.51 4.35,15.50 4.25,15.46 4.15,15.42 4.07,15.35 3.99,15.29 3.93,15.20 3.88,15.11 3.85,15.00 3.83,14.90 3.83,14.90 3.83,14.90 4.12,12.89 4.40,10.88 4.93,9.61 5.47,8.34 5.75,7.29 6.04,6.25 6.13,5.38 6.23,4.52 5.87,3.85 5.52,3.18 4.81,2.81 4.09,2.43 2.78,2.09 1.47,1.75 0.66,1.33 -0.15,0.91 -0.25,0.88 -0.36,0.84 -0.46,0.79 -0.55,0.73 -0.63,0.65 -0.71,0.58 -0.77,0.48 -0.83,0.39 -0.87,0.28 -0.90,0.18 -0.91,0.07 -0.92,-0.04 -0.90,-0.15 -0.88,-0.26 -0.84,-0.36 -0.79,-0.46 -0.73,-0.55 -0.66,-0.64 -0.57,-0.71 -0.49,-0.78 -0.38,-0.83 -0.28,-0.87 -0.17,-0.89 -0.07,-0.92 0.04,-0.91 0.15,-0.91 0.15,-0.91 L 0.15,-0.91 Z"/></g><g transform="translate(137.5 33.5) rotate(0 4 5.75)" stroke="none"><path fill="#1e1e1e" d="M 0.85,-0.32 Q 0.85,-0.32 1.52,0.74 2.18,1.80 2.64,2.82 3.10,3.85 3.72,5.14 4.35,6.44 4.88,7.38 5.42,8.33 5.75,9.00 6.08,9.67 6.43,9.88 6.79,10.09 6.86,10.25 6.92,10.41 6.94,10.58 6.96,10.75 6.94,10.92 6.92,11.09 6.86,11.25 6.81,11.41 6.71,11.55 6.61,11.69 6.49,11.81 6.36,11.92 6.21,12.00 6.06,12.08 5.89,12.13 5.73,12.17 5.56,12.17 5.39,12.17 5.22,12.13 5.05,12.09 4.90,12.01 4.75,11.94 4.62,11.82 4.49,11.71 4.39,11.57 4.29,11.43 4.53,10.18 4.77,8.92 4.84,8.11 4.90,7.30 5.10,5.72 5.29,4.15 6.27,2.32 7.26,0.49 7.32,0.40 7.39,0.32 7.47,0.26 7.56,0.20 7.66,0.17 7.76,0.14 7.87,0.14 7.98,0.15 8.08,0.18 8.18,0.22 8.26,0.29 8.34,0.36 8.40,0.45 8.45,0.54 8.48,0.64 8.50,0.74 8.49,0.85 8.48,0.96 8.44,1.05 8.39,1.15 8.32,1.23 8.25,1.31 8.16,1.36 8.06,1.41 7.96,1.43 7.85,1.45 7.75,1.43 7.64,1.41 7.55,1.37 7.45,1.32 7.38,1.24 7.31,1.16 7.26,1.07 7.21,0.97 7.20,0.87 7.19,0.76 7.21,0.66 7.23,0.55 7.28,0.46 7.34,0.37 7.42,0.30 7.50,0.23 7.60,0.19 7.69,0.15 7.80,0.14 7.91,0.13 8.01,0.16 8.11,0.19 8.20,0.25 8.29,0.31 8.35,0.39 8.42,0.47 8.46,0.57 8.49,0.67 8.49,0.78 8.49,0.89 8.46,0.99 8.43,1.09 8.43,1.09 8.43,1.09 8.28,2.79 8.13,4.50 7.94,6.06 7.74,7.63 7.27,8.86 6.79,10.09 6.86,10.25 6.92,10.41 6.94,10.58 6.96,10.75 6.94,10.92 6.92,11.09 6.86,11.25 6.81,11.41 6.71,11.55 6.61,11.69 6.49,11.81 6.36,11.92 6.21,12.00 6.06,12.08 5.89,12.13 5.73,12.17 5.56,12.17 5.39,12.17 5.22,12.13 5.05,12.09 4.90,12.01 4.75,11.94 4.62,11.82 4.49,11.71 4.39,11.57 4.29,11.43 4.04,11.33 3.79,11.22 3.36,10.48 2.93,9.73 2.35,8.70 1.78,7.67 1.14,6.33 0.50,5.00 0.02,3.90 -0.46,2.79 -0.65,1.55 -0.85,0.32 -0.87,0.21 -0.90,0.10 -0.90,-0.00 -0.90,-0.11 -0.87,-0.21 -0.85,-0.32 -0.79,-0.42 -0.74,-0.52 -0.67,-0.60 -0.60,-0.68 -0.51,-0.74 -0.42,-0.80 -0.31,-0.84 -0.21,-0.88 -0.10,-0.89 0.00,-0.91 0.11,-0.89 0.22,-0.88 0.32,-0.84 0.42,-0.80 0.51,-0.74 0.60,-0.68 0.67,-0.59 0.75,-0.51 0.80,-0.41 0.85,-0.32 0.85,-0.32 L 0.85,-0.32 Z"/></g><g transform="translate(153 51.5) rotate(0 -0.5 -5)" stroke="none"><path fill="#1e1e1e" d="M -0.92,0.26 Q -0.92,0.26 -1.47,-0.66 -2.02,-1.60 -2.16,-2.55 -2.31,-3.51 -2.29,-4.82 -2.28,-6.12 -1.96,-7.71 -1.64,-9.29 -1.62,-9.40 -1.61,-9.50 -1.56,-9.60 -1.51,-9.69 -1.44,-9.77 -1.36,-9.84 -1.26,-9.89 -1.17,-9.94 -1.06,-9.95 -0.96,-9.96 -0.85,-9.94 -0.75,-9.92 -0.66,-9.87 -0.57,-9.81 -0.50,-9.74 -0.43,-9.66 -0.38,-9.56 -0.34,-9.46 -0.33,-9.35 -0.33,-9.25 -0.35,-9.15 -0.38,-9.04 -0.44,-8.95 -0.50,-8.86 -0.58,-8.80 -0.66,-8.73 -0.76,-8.70 -0.86,-8.66 -0.97,-8.66 -1.07,-8.66 -1.18,-8.69 -1.28,-8.72 -1.36,-8.78 -1.45,-8.84 -1.51,-8.93 -1.57,-9.02 -1.60,-9.12 -1.63,-9.22 -1.63,-9.33 -1.63,-9.43 -1.59,-9.53 -1.55,-9.63 -1.48,-9.72 -1.42,-9.80 -1.33,-9.85 -1.24,-9.91 -1.13,-9.94 -1.03,-9.96 -0.92,-9.95 -0.82,-9.94 -0.72,-9.90 -0.62,-9.86 -0.54,-9.79 -0.47,-9.71 -0.41,-9.62 -0.36,-9.53 -0.34,-9.42 -0.32,-9.32 -0.32,-9.32 -0.32,-9.32 0.05,-7.78 0.44,-6.24 0.55,-5.09 0.67,-3.94 0.77,-3.18 0.87,-2.42 0.89,-1.34 0.92,-0.26 0.94,-0.14 0.96,-0.03 0.95,0.08 0.94,0.19 0.90,0.30 0.86,0.41 0.80,0.51 0.74,0.61 0.65,0.69 0.57,0.77 0.47,0.82 0.37,0.88 0.26,0.91 0.15,0.94 0.03,0.95 -0.08,0.95 -0.19,0.93 -0.30,0.91 -0.41,0.86 -0.51,0.81 -0.60,0.73 -0.69,0.66 -0.76,0.57 -0.83,0.47 -0.87,0.37 -0.92,0.26 -0.92,0.26 L -0.92,0.26 Z"/></g><g transform="translate(69.5 157.5) rotate(0 51 -4.25)" stroke="none"><path fill="#f08c00" d="M -0.53,-3.59 Q -0.53,-3.59 2.20,-4.87 4.95,-6.15 7.35,-6.39 9.76,-6.64 12.65,-6.82 15.54,-6.99 17.79,-7.05 20.04,-7.10 23.11,-7.11 26.18,-7.12 28.59,-7.12 30.99,-7.13 33.39,-7.15 35.79,-7.17 38.18,-6.94 40.57,-6.72 43.00,-6.48 45.43,-6.24 47.84,-5.99 50.25,-5.75 52.93,-5.51 55.60,-5.27 58.20,-5.07 60.80,-4.87 63.49,-4.20 66.18,-3.53 68.35,-2.86 70.52,-2.19 72.78,-2.45 75.05,-2.70 77.18,-2.74 79.30,-2.77 81.63,-2.78 83.96,-2.79 86.25,-3.13 88.54,-3.47 90.08,-4.99 91.62,-6.51 92.86,-9.05 94.09,-11.58 96.77,-11.97 99.44,-12.36 99.57,-12.64 99.71,-12.93 99.90,-13.18 100.10,-13.43 100.35,-13.62 100.60,-13.81 100.89,-13.94 101.18,-14.07 101.49,-14.12 101.80,-14.18 102.12,-14.16 102.44,-14.14 102.74,-14.04 103.04,-13.94 103.31,-13.78 103.58,-13.61 103.80,-13.38 104.02,-13.16 104.18,-12.89 104.35,-12.61 104.44,-12.31 104.53,-12.01 104.55,-11.69 104.56,-11.38 104.50,-11.07 104.44,-10.75 104.41,-11.65 104.37,-12.55 104.47,-12.14 104.56,-11.73 104.52,-11.30 104.48,-10.88 104.31,-10.49 104.13,-10.11 103.84,-9.79 103.55,-9.48 103.18,-9.28 102.81,-9.08 102.39,-9.00 101.97,-8.93 101.55,-8.99 101.13,-9.06 100.75,-9.25 100.38,-9.45 100.08,-9.75 99.78,-10.06 99.60,-10.44 99.42,-10.83 99.37,-11.25 99.32,-11.67 99.41,-12.09 99.49,-12.50 99.71,-12.87 99.92,-13.23 100.24,-13.51 100.56,-13.79 100.96,-13.95 101.35,-14.11 101.77,-14.14 102.20,-14.17 102.61,-14.06 103.02,-13.95 103.37,-13.72 103.73,-13.48 103.99,-13.15 104.25,-12.81 104.39,-12.41 104.53,-12.01 104.53,-11.58 104.54,-11.16 104.41,-10.75 104.28,-10.35 104.02,-10.01 103.77,-9.67 103.42,-9.43 103.07,-9.18 102.66,-9.07 102.25,-8.95 101.83,-8.97 101.41,-8.98 101.01,-9.14 100.61,-9.29 100.29,-9.56 99.96,-9.83 99.70,-11.09 99.44,-12.36 99.57,-12.64 99.71,-12.93 99.90,-13.18 100.10,-13.43 100.35,-13.62 100.60,-13.81 100.89,-13.94 101.18,-14.07 101.49,-14.12 101.80,-14.18 102.12,-14.16 102.44,-14.14 102.74,-14.04 103.04,-13.94 103.31,-13.78 103.58,-13.61 103.80,-13.39 104.02,-13.16 104.18,-12.89 104.35,-12.62 104.44,-12.31 104.53,-12.01 104.55,-11.69 104.56,-11.38 104.50,-11.07 104.44,-10.75 104.38,-7.93 104.31,-5.10 102.79,-2.46 101.28,0.18 99.43,2.13 97.58,4.09 94.88,5.74 92.19,7.40 89.40,8.09 86.61,8.79 84.41,8.79 82.21,8.78 79.89,8.78 77.57,8.77 75.22,9.01 72.87,9.26 70.55,9.13 68.22,9.00 65.46,8.08 62.70,7.15 60.35,6.69 58.00,6.22 55.50,5.98 52.99,5.73 50.77,5.70 48.55,5.68 46.43,5.44 44.31,5.21 41.84,4.93 39.36,4.65 36.66,4.40 33.95,4.14 31.79,4.13 29.64,4.12 26.69,4.12 23.75,4.12 20.99,4.12 18.23,4.12 15.88,4.10 13.53,4.08 10.03,4.25 6.54,4.42 3.54,4.00 0.53,3.59 0.10,3.60 -0.33,3.61 -0.76,3.52 -1.19,3.43 -1.58,3.23 -1.97,3.04 -2.31,2.76 -2.64,2.48 -2.90,2.13 -3.16,1.77 -3.33,1.37 -3.50,0.96 -3.56,0.53 -3.63,0.10 -3.58,-0.33 -3.54,-0.77 -3.40,-1.18 -3.26,-1.59 -3.02,-1.96 -2.78,-2.33 -2.46,-2.63 -2.14,-2.92 -1.76,-3.14 -1.38,-3.35 -0.96,-3.47 -0.53,-3.59 -0.53,-3.59 L -0.53,-3.59 Z"/></g><g transform="translate(169 146) rotate(0 62.25 -7.75)" stroke="none"><path fill="#e03131" d="M -2.09,-2.79 Q -2.09,-2.79 -0.34,-5.25 1.40,-7.70 3.65,-9.43 5.89,-11.17 8.20,-12.99 10.51,-14.81 12.16,-16.23 13.81,-17.66 16.12,-18.99 18.44,-20.32 20.64,-21.52 22.84,-22.71 25.22,-23.53 27.59,-24.35 29.76,-25.25 31.92,-26.16 34.41,-26.43 36.91,-26.69 39.77,-26.27 42.63,-25.85 44.65,-24.22 46.67,-22.59 48.41,-20.88 50.15,-19.17 51.38,-17.23 52.61,-15.30 53.88,-13.31 55.15,-11.32 56.77,-9.25 58.39,-7.18 60.21,-5.47 62.03,-3.76 64.32,-3.11 66.62,-2.45 69.12,-1.96 71.63,-1.47 74.23,-1.27 76.83,-1.07 79.56,-0.82 82.29,-0.58 84.64,-0.60 86.99,-0.63 89.06,-1.15 91.12,-1.68 93.30,-1.88 95.48,-2.09 97.74,-2.34 100.00,-2.59 102.59,-2.66 105.19,-2.72 107.36,-2.75 109.53,-2.78 111.89,-3.06 114.25,-3.33 116.94,-3.41 119.63,-3.48 121.61,-1.55 123.59,0.37 123.91,0.41 124.22,0.44 124.52,0.55 124.82,0.67 125.08,0.84 125.34,1.02 125.55,1.26 125.76,1.50 125.91,1.78 126.06,2.06 126.13,2.36 126.21,2.67 126.21,2.99 126.21,3.30 126.14,3.61 126.06,3.92 125.91,4.20 125.77,4.48 125.56,4.72 125.35,4.96 125.09,5.14 124.83,5.32 124.53,5.43 124.24,5.54 123.92,5.58 123.61,5.62 123.19,5.55 122.76,5.48 122.39,5.28 122.01,5.09 121.72,4.78 121.43,4.47 121.25,4.08 121.07,3.70 121.03,3.27 120.98,2.85 121.07,2.44 121.16,2.02 121.38,1.66 121.60,1.29 121.92,1.02 122.25,0.74 122.64,0.59 123.04,0.43 123.46,0.41 123.89,0.38 124.30,0.50 124.71,0.61 125.06,0.85 125.41,1.09 125.67,1.43 125.92,1.77 126.06,2.17 126.19,2.57 126.19,3.00 126.19,3.42 126.06,3.82 125.92,4.23 125.67,4.56 125.41,4.90 125.06,5.14 124.70,5.38 124.29,5.49 123.89,5.61 123.46,5.58 123.04,5.56 122.64,5.40 122.25,5.25 121.92,4.97 121.60,4.69 121.38,4.33 121.16,3.97 121.07,3.55 120.98,3.14 121.03,2.71 121.07,2.29 121.25,1.91 121.43,1.52 121.72,1.21 122.01,0.90 122.39,0.70 122.76,0.51 123.18,0.44 123.60,0.37 123.60,0.37 123.59,0.37 123.91,0.41 124.22,0.44 124.52,0.55 124.82,0.67 125.08,0.84 125.34,1.02 125.55,1.26 125.76,1.50 125.91,1.78 126.06,2.06 126.13,2.36 126.21,2.67 126.21,2.99 126.21,3.30 126.14,3.61 126.06,3.92 125.91,4.20 125.77,4.48 125.56,4.72 125.35,4.96 125.09,5.14 124.83,5.32 124.53,5.43 124.24,5.54 123.92,5.58 123.61,5.62 121.65,7.56 119.69,9.49 116.95,9.48 114.21,9.47 111.87,9.63 109.54,9.78 107.40,9.76 105.26,9.74 103.02,9.76 100.78,9.79 98.45,10.00 96.12,10.21 93.98,10.49 91.83,10.76 89.39,11.19 86.95,11.62 84.42,11.55 81.89,11.48 79.68,11.33 77.47,11.18 75.11,10.79 72.75,10.40 70.63,10.18 68.51,9.96 66.32,9.58 64.13,9.20 60.89,8.18 57.64,7.16 55.42,5.68 53.19,4.19 51.04,2.03 48.89,-0.12 47.35,-2.04 45.82,-3.96 44.35,-6.25 42.87,-8.54 41.54,-10.78 40.20,-13.03 38.15,-14.14 36.10,-15.24 33.86,-14.59 31.62,-13.93 28.91,-13.04 26.20,-12.16 24.07,-11.09 21.94,-10.03 19.69,-8.32 17.45,-6.61 14.92,-4.65 12.39,-2.68 10.09,-0.94 7.79,0.80 4.94,1.80 2.09,2.79 1.73,3.00 1.36,3.21 0.96,3.33 0.55,3.45 0.13,3.47 -0.28,3.48 -0.69,3.40 -1.11,3.31 -1.49,3.13 -1.87,2.95 -2.19,2.68 -2.52,2.42 -2.77,2.08 -3.03,1.74 -3.19,1.35 -3.36,0.96 -3.42,0.55 -3.49,0.13 -3.46,-0.28 -3.42,-0.70 -3.29,-1.10 -3.15,-1.50 -2.93,-1.85 -2.70,-2.21 -2.40,-2.50 -2.09,-2.79 -2.09,-2.79 L -2.09,-2.79 Z"/></g><g transform="translate(182.5 222.5) rotate(0 56.25 -16.25)" stroke="none"><path fill="#e03131" d="M 0.23,-3.07 Q 0.23,-3.07 2.16,-3.70 4.09,-4.32 6.96,-4.34 9.84,-4.36 12.40,-4.26 14.95,-4.16 17.17,-4.17 19.39,-4.18 22.16,-4.24 24.94,-4.30 28.01,-4.62 31.09,-4.95 33.92,-5.23 36.76,-5.51 39.05,-5.64 41.34,-5.76 43.13,-7.50 44.92,-9.23 46.39,-11.80 47.86,-14.37 49.16,-16.61 50.47,-18.84 51.90,-21.63 53.33,-24.42 54.76,-27.07 56.19,-29.72 57.66,-31.59 59.13,-33.45 60.89,-34.79 62.64,-36.13 64.83,-37.02 67.02,-37.91 70.11,-38.49 73.21,-39.07 75.55,-39.06 77.89,-39.05 80.12,-38.10 82.35,-37.14 84.38,-35.41 86.42,-33.68 88.04,-30.97 89.67,-28.26 90.72,-25.64 91.76,-23.02 93.08,-19.42 94.40,-15.83 95.66,-12.92 96.92,-10.02 98.96,-9.29 100.99,-8.56 103.80,-9.26 106.60,-9.95 108.79,-8.48 110.98,-7.01 111.28,-7.11 111.58,-7.20 111.90,-7.22 112.21,-7.24 112.53,-7.18 112.84,-7.13 113.13,-7.00 113.41,-6.87 113.66,-6.67 113.91,-6.48 114.11,-6.23 114.30,-5.98 114.43,-5.69 114.56,-5.40 114.62,-5.09 114.68,-4.78 114.66,-4.46 114.64,-4.15 114.55,-3.85 114.45,-3.54 114.29,-3.27 114.13,-3.00 113.90,-2.78 113.68,-2.55 113.41,-2.39 113.14,-2.23 113.52,-2.49 113.91,-2.76 113.56,-2.51 113.22,-2.26 112.81,-2.14 112.41,-2.02 111.98,-2.03 111.56,-2.04 111.16,-2.19 110.76,-2.34 110.43,-2.60 110.10,-2.87 109.87,-3.23 109.64,-3.59 109.54,-4.00 109.44,-4.41 109.47,-4.84 109.51,-5.26 109.68,-5.65 109.85,-6.04 110.13,-6.36 110.42,-6.67 110.79,-6.88 111.16,-7.09 111.58,-7.17 111.99,-7.25 112.41,-7.19 112.84,-7.13 113.22,-6.94 113.60,-6.75 113.90,-6.45 114.19,-6.15 114.38,-5.77 114.57,-5.38 114.63,-4.96 114.68,-4.54 114.60,-4.12 114.52,-3.71 114.31,-3.34 114.10,-2.97 113.78,-2.69 113.47,-2.40 113.07,-2.24 112.68,-2.07 112.26,-2.04 111.84,-2.00 111.42,-2.11 111.01,-2.21 110.66,-2.44 110.30,-2.67 110.03,-3.00 109.77,-3.33 109.62,-3.73 109.48,-4.13 109.47,-4.56 109.46,-4.98 109.58,-5.39 109.71,-5.79 110.34,-6.40 110.98,-7.01 111.28,-7.11 111.58,-7.20 111.90,-7.22 112.21,-7.24 112.52,-7.18 112.84,-7.13 113.13,-7.00 113.41,-6.87 113.66,-6.67 113.91,-6.48 114.11,-6.23 114.30,-5.98 114.43,-5.69 114.56,-5.40 114.62,-5.09 114.68,-4.78 114.66,-4.46 114.64,-4.15 114.55,-3.85 114.45,-3.54 114.29,-3.27 114.13,-3.00 113.90,-2.78 113.68,-2.55 113.41,-2.39 113.14,-2.23 112.61,-0.58 112.09,1.06 110.02,1.77 107.96,2.49 104.07,2.97 100.19,3.44 97.54,3.00 94.89,2.56 92.58,1.89 90.28,1.22 87.97,-2.10 85.65,-5.44 84.39,-8.37 83.12,-11.30 82.22,-13.56 81.32,-15.82 80.55,-18.34 79.79,-20.85 78.68,-23.14 77.58,-25.43 75.38,-26.53 73.17,-27.62 70.55,-27.00 67.92,-26.38 66.54,-24.71 65.15,-23.04 63.78,-20.30 62.42,-17.57 61.33,-15.38 60.24,-13.20 58.63,-10.35 57.02,-7.50 55.74,-5.36 54.46,-3.22 53.17,-1.28 51.88,0.64 50.07,2.15 48.25,3.66 45.87,4.43 43.50,5.19 40.34,5.39 37.18,5.59 34.99,5.79 32.80,6.00 30.65,5.95 28.50,5.90 26.05,6.10 23.59,6.29 20.71,6.22 17.84,6.16 15.32,6.04 12.80,5.93 10.38,5.60 7.96,5.27 5.67,5.08 3.38,4.90 1.57,3.98 -0.23,3.07 -0.60,3.00 -0.96,2.93 -1.30,2.77 -1.63,2.61 -1.92,2.37 -2.21,2.14 -2.44,1.84 -2.66,1.55 -2.81,1.21 -2.96,0.86 -3.02,0.50 -3.08,0.13 -3.05,-0.23 -3.02,-0.60 -2.90,-0.95 -2.79,-1.31 -2.59,-1.62 -2.39,-1.94 -2.12,-2.20 -1.86,-2.45 -1.54,-2.64 -1.21,-2.83 -0.86,-2.93 -0.50,-3.04 -0.13,-3.05 0.23,-3.07 0.23,-3.07 L 0.23,-3.07 Z"/></g><g transform="translate(77.5 225) rotate(0 54.5 7.25)" stroke="none"><path fill="#f08c00" d="M -0.18,-2.79 Q -0.18,-2.79 1.89,-4.11 3.96,-5.43 7.49,-5.81 11.02,-6.19 13.26,-6.29 15.50,-6.38 17.81,-6.76 20.13,-7.14 22.74,-7.31 25.35,-7.49 27.85,-7.50 30.35,-7.52 32.81,-7.29 35.28,-7.05 37.76,-6.81 40.25,-6.56 43.75,-5.66 47.26,-4.75 49.32,-2.31 51.38,0.13 52.94,2.50 54.50,4.88 56.22,6.62 57.94,8.36 59.74,9.91 61.53,11.46 63.63,12.19 65.73,12.91 67.93,12.27 70.13,11.63 72.53,10.36 74.93,9.10 76.45,7.41 77.97,5.73 78.42,3.50 78.87,1.27 80.20,-0.90 81.53,-3.08 84.05,-5.36 86.57,-7.63 88.84,-8.48 91.10,-9.33 93.23,-9.70 95.35,-10.08 98.15,-10.15 100.96,-10.23 103.20,-10.26 105.44,-10.30 108.43,-6.67 111.42,-3.03 111.49,-2.61 111.55,-2.19 111.48,-1.77 111.41,-1.35 111.21,-0.98 111.01,-0.60 110.70,-0.31 110.39,-0.02 110.01,0.15 109.62,0.32 109.20,0.37 108.78,0.41 108.36,0.32 107.95,0.23 107.58,0.01 107.22,-0.20 106.95,-0.53 106.67,-0.85 106.52,-1.25 106.36,-1.64 106.34,-2.07 106.32,-2.49 106.43,-2.90 106.55,-3.31 106.79,-3.66 107.03,-4.01 107.37,-4.27 107.70,-4.53 108.11,-4.66 108.51,-4.79 108.94,-4.79 109.36,-4.79 109.76,-4.65 110.17,-4.52 110.50,-4.26 110.84,-4.00 111.08,-3.65 111.31,-3.29 111.43,-2.88 111.54,-2.48 111.51,-2.05 111.49,-1.63 111.33,-1.23 111.17,-0.84 110.90,-0.52 110.62,-0.19 110.25,0.02 109.89,0.23 109.47,0.32 109.06,0.41 108.64,0.37 108.21,0.32 107.83,0.14 107.44,-0.03 107.14,-0.33 106.83,-0.62 106.63,-0.99 106.43,-1.37 106.43,-1.37 106.43,-1.37 105.94,0.46 105.45,2.30 103.21,2.27 100.98,2.23 98.55,2.20 96.12,2.17 93.98,2.72 91.83,3.27 90.80,5.34 89.77,7.41 88.99,9.56 88.20,11.72 86.41,13.92 84.61,16.12 82.81,17.39 81.00,18.67 78.74,19.86 76.48,21.05 74.06,21.86 71.64,22.67 69.05,23.37 66.45,24.08 64.31,24.07 62.17,24.06 59.76,23.31 57.35,22.56 54.95,20.63 52.55,18.71 50.79,17.16 49.02,15.60 47.51,14.02 46.00,12.43 44.75,10.70 43.50,8.96 42.33,6.76 41.15,4.55 38.86,4.49 36.56,4.42 34.29,4.17 32.02,3.92 29.87,3.72 27.73,3.52 25.49,3.55 23.25,3.58 20.81,3.83 18.37,4.09 14.95,4.27 11.52,4.45 8.08,4.65 4.65,4.85 2.42,3.82 0.18,2.79 -0.15,2.77 -0.48,2.75 -0.81,2.65 -1.13,2.55 -1.42,2.38 -1.71,2.21 -1.95,1.97 -2.19,1.73 -2.36,1.45 -2.54,1.16 -2.64,0.84 -2.75,0.52 -2.77,0.18 -2.79,-0.15 -2.73,-0.48 -2.67,-0.81 -2.54,-1.12 -2.40,-1.43 -2.19,-1.70 -1.99,-1.96 -1.72,-2.17 -1.46,-2.38 -1.15,-2.52 -0.84,-2.66 -0.51,-2.73 -0.18,-2.79 -0.18,-2.79 L -0.18,-2.79 Z"/></g><g transform="translate(39 80) rotate(0 -3 73.75)" stroke="none"><path fill="#1e1e1e" d="M 0.79,0 Q 0.79,0 1.02,0.71 1.24,1.43 1.28,3.89 1.31,6.36 1.34,11.14 1.37,15.92 1.38,19.54 1.38,23.15 1.53,27.54 1.69,31.93 1.75,35.68 1.81,39.44 1.84,42.90 1.87,46.37 1.88,50.29 1.89,54.20 1.89,57.16 1.90,60.12 2.04,63.21 2.19,66.31 2.54,68.87 2.88,71.43 3.03,73.74 3.19,76.06 3.39,78.59 3.60,81.12 3.69,83.24 3.78,85.35 3.82,87.84 3.86,90.32 3.73,93.57 3.60,96.81 3.54,99.46 3.49,102.10 3.46,103.94 3.44,105.78 3.13,107.82 2.82,109.85 2.70,111.34 2.58,112.83 2.37,114.25 2.16,115.66 1.93,117.66 1.70,119.66 1.59,121.34 1.49,123.03 1.29,124.93 1.10,126.84 1.02,128.90 0.94,130.95 0.76,132.61 0.58,134.26 0.51,135.49 0.43,136.71 0.24,138.02 0.06,139.32 -0.01,140.11 -0.08,140.90 -0.11,141.65 -0.14,142.40 -0.16,143.00 -0.17,143.61 -0.18,144.32 -0.18,145.04 -0.44,145.68 -0.69,146.33 -1.19,146.72 -1.70,147.11 -2.50,147.02 -3.30,146.92 -4.20,146.15 -5.09,145.38 -6.06,144.40 -7.04,143.43 -8.06,142.26 -9.08,141.09 -10.06,140.05 -11.04,139.01 -11.58,138.40 -12.12,137.78 -12.21,137.65 -12.31,137.52 -12.37,137.37 -12.43,137.23 -12.45,137.07 -12.48,136.91 -12.46,136.75 -12.45,136.59 -12.40,136.44 -12.35,136.29 -12.26,136.16 -12.17,136.03 -12.06,135.92 -11.94,135.81 -11.80,135.73 -11.66,135.65 -11.51,135.61 -11.36,135.56 -11.20,135.56 -11.04,135.56 -10.88,135.59 -10.73,135.62 -10.58,135.69 -10.44,135.76 -10.32,135.86 -10.19,135.97 -9.36,136.78 -8.53,137.59 -7.39,138.74 -6.25,139.88 -4.78,141.20 -3.31,142.52 -2.24,143.54 -1.16,144.55 -0.57,145.12 0.02,145.70 0.45,145.17 0.88,144.64 1.44,143.70 1.99,142.77 3.56,140.53 5.13,138.29 5.19,138.20 5.25,138.11 5.34,138.05 5.42,137.99 5.52,137.95 5.62,137.92 5.73,137.92 5.83,137.92 5.94,137.96 6.04,137.99 6.12,138.06 6.20,138.12 6.26,138.21 6.32,138.30 6.35,138.40 6.38,138.50 6.37,138.61 6.36,138.72 6.32,138.81 6.28,138.91 6.21,138.99 6.14,139.07 6.05,139.13 5.96,139.18 5.86,139.20 5.75,139.23 5.65,139.21 5.54,139.20 5.45,139.16 5.35,139.11 5.27,139.04 5.20,138.96 5.15,138.87 5.10,138.77 5.08,138.67 5.07,138.56 5.08,138.46 5.10,138.35 5.15,138.26 5.20,138.17 5.28,138.09 5.36,138.02 5.46,137.98 5.55,137.94 5.66,137.92 5.76,137.91 5.87,137.94 5.97,137.96 6.06,138.02 6.15,138.07 6.22,138.15 6.29,138.24 6.33,138.34 6.37,138.43 6.37,138.54 6.37,138.65 6.35,138.75 6.32,138.85 6.32,138.85 6.32,138.85 5.29,141.49 4.26,144.13 3.64,145.16 3.01,146.20 2.07,147.22 1.12,148.24 0.18,148.24 -0.75,148.24 -1.26,147.92 -1.78,147.61 -2.38,147.04 -2.97,146.47 -4.03,145.48 -5.09,144.49 -6.60,143.12 -8.12,141.75 -9.26,140.61 -10.40,139.47 -11.26,138.62 -12.12,137.78 -12.21,137.65 -12.31,137.52 -12.37,137.37 -12.43,137.23 -12.45,137.07 -12.48,136.91 -12.46,136.75 -12.45,136.59 -12.40,136.44 -12.35,136.29 -12.26,136.16 -12.17,136.03 -12.06,135.92 -11.94,135.81 -11.80,135.73 -11.66,135.65 -11.51,135.61 -11.36,135.56 -11.20,135.56 -11.04,135.56 -10.88,135.59 -10.73,135.62 -10.58,135.69 -10.44,135.76 -10.32,135.86 -10.19,135.97 -9.60,136.53 -9.01,137.10 -8.00,138.18 -6.98,139.26 -6.02,140.36 -5.07,141.46 -4.09,142.45 -3.11,143.43 -2.96,144.22 -2.80,145.02 -2.79,144.28 -2.78,143.55 -2.77,142.92 -2.75,142.29 -2.72,141.48 -2.69,140.66 -2.61,139.81 -2.54,138.96 -2.37,137.76 -2.21,136.55 -2.13,135.26 -2.06,133.97 -1.88,132.41 -1.71,130.85 -1.63,128.72 -1.55,126.58 -1.38,124.73 -1.21,122.87 -1.12,121.11 -1.02,119.35 -0.80,117.31 -0.57,115.27 -0.39,113.93 -0.21,112.60 -0.08,111.01 0.04,109.42 0.33,107.58 0.62,105.74 0.64,103.89 0.67,102.04 0.72,99.37 0.77,96.70 0.90,93.53 1.02,90.37 0.99,87.92 0.95,85.47 0.87,83.41 0.78,81.35 0.57,78.79 0.36,76.24 0.22,74.02 0.08,71.81 -0.27,69.12 -0.62,66.44 -0.77,63.28 -0.91,60.13 -0.92,57.17 -0.92,54.21 -0.93,50.30 -0.94,46.39 -0.97,42.94 -0.99,39.48 -1.05,35.75 -1.11,32.02 -1.25,27.59 -1.38,23.15 -1.38,19.54 -1.37,15.92 -1.34,11.14 -1.31,6.36 -1.28,3.89 -1.24,1.43 -1.02,0.71 -0.79,0 -0.78,-0.09 -0.77,-0.19 -0.73,-0.28 -0.70,-0.37 -0.65,-0.44 -0.59,-0.52 -0.52,-0.59 -0.45,-0.65 -0.36,-0.70 -0.28,-0.74 -0.18,-0.76 -0.09,-0.79 0.00,-0.79 0.09,-0.79 0.18,-0.76 0.28,-0.74 0.36,-0.70 0.45,-0.65 0.52,-0.59 0.59,-0.52 0.65,-0.44 0.70,-0.37 0.74,-0.28 0.77,-0.19 0.78,-0.09 0.79,0.00 0.79,0.00 L 0.79,0 Z"/></g><g transform="translate(10 134) rotate(0 5 0.25)" stroke="none"><path fill="#1e1e1e" d="M 0.13,-0.96 Q 0.13,-0.96 1.17,-1.02 2.20,-1.08 3.43,-1.03 4.65,-0.98 5.62,-0.95 6.58,-0.93 8.13,-0.54 9.68,-0.15 9.79,-0.14 9.89,-0.12 9.99,-0.07 10.08,-0.02 10.15,0.05 10.23,0.13 10.27,0.23 10.31,0.32 10.32,0.43 10.33,0.53 10.31,0.64 10.29,0.74 10.23,0.83 10.17,0.92 10.09,0.99 10.01,1.06 9.91,1.10 9.81,1.13 9.71,1.14 9.60,1.14 9.50,1.11 9.40,1.09 9.31,1.02 9.22,0.96 9.16,0.88 9.10,0.79 9.06,0.69 9.03,0.59 9.03,0.49 9.03,0.38 9.07,0.28 9.10,0.18 9.17,0.10 9.23,0.01 9.32,-0.04 9.41,-0.10 9.51,-0.12 9.61,-0.15 9.72,-0.14 9.83,-0.14 9.92,-0.10 10.02,-0.06 10.10,0.00 10.18,0.07 10.24,0.16 10.29,0.25 10.31,0.36 10.33,0.46 10.32,0.57 10.31,0.67 10.26,0.77 10.22,0.87 10.14,0.94 10.07,1.02 9.98,1.07 9.88,1.12 9.78,1.13 9.67,1.15 9.67,1.15 9.67,1.15 8.09,1.50 6.51,1.85 5.52,1.82 4.52,1.79 3.17,1.72 1.81,1.65 0.83,1.31 -0.13,0.96 -0.25,0.93 -0.36,0.90 -0.46,0.84 -0.57,0.79 -0.65,0.71 -0.74,0.63 -0.80,0.53 -0.87,0.43 -0.91,0.32 -0.95,0.21 -0.96,0.09 -0.97,-0.02 -0.95,-0.13 -0.94,-0.25 -0.89,-0.36 -0.85,-0.47 -0.78,-0.56 -0.71,-0.66 -0.62,-0.73 -0.53,-0.81 -0.43,-0.86 -0.32,-0.91 -0.21,-0.94 -0.09,-0.97 0.02,-0.96 0.13,-0.96 0.13,-0.96 L 0.13,-0.96 Z"/></g><g transform="translate(14.5 125) rotate(0 3.5 11.25)" stroke="none"><path fill="#1e1e1e" d="M 0.71,0 Q 0.71,0 1.05,1.29 1.38,2.58 1.24,4.20 1.10,5.82 1.05,7.88 0.99,9.93 1.11,11.77 1.23,13.60 1.55,15.17 1.87,16.74 2.27,18.02 2.66,19.29 4.62,19.74 6.59,20.20 6.69,20.23 6.79,20.26 6.87,20.32 6.96,20.39 7.02,20.47 7.08,20.56 7.11,20.66 7.14,20.77 7.14,20.87 7.13,20.98 7.10,21.08 7.06,21.18 6.99,21.26 6.92,21.34 6.83,21.40 6.74,21.45 6.64,21.48 6.54,21.50 6.43,21.49 6.32,21.48 6.23,21.44 6.13,21.40 6.05,21.32 5.97,21.25 5.92,21.16 5.87,21.07 5.85,20.96 5.83,20.86 5.85,20.75 5.86,20.65 5.91,20.55 5.96,20.46 6.04,20.38 6.11,20.31 6.21,20.26 6.31,20.22 6.41,20.20 6.52,20.19 6.62,20.21 6.72,20.23 6.82,20.29 6.91,20.34 6.98,20.42 7.05,20.50 7.09,20.60 7.13,20.70 7.14,20.80 7.14,20.91 7.12,21.01 7.09,21.11 7.03,21.20 6.97,21.29 6.89,21.36 6.81,21.42 6.71,21.46 6.61,21.49 6.50,21.49 6.39,21.50 6.39,21.50 6.39,21.50 3.80,21.27 1.20,21.05 0.16,19.18 -0.87,17.31 -1.22,15.55 -1.58,13.78 -1.69,11.81 -1.81,9.85 -1.75,7.71 -1.68,5.57 -1.53,4.07 -1.38,2.58 -1.05,1.29 -0.71,0 -0.70,-0.08 -0.69,-0.17 -0.66,-0.25 -0.63,-0.33 -0.58,-0.40 -0.53,-0.47 -0.47,-0.53 -0.40,-0.58 -0.33,-0.62 -0.25,-0.66 -0.16,-0.68 -0.08,-0.71 0.00,-0.71 0.08,-0.71 0.17,-0.68 0.25,-0.66 0.33,-0.62 0.40,-0.58 0.47,-0.53 0.53,-0.47 0.58,-0.40 0.63,-0.33 0.66,-0.25 0.69,-0.17 0.70,-0.08 0.71,0.00 0.71,0.00 L 0.71,0 Z"/></g><g transform="translate(206 112.5) rotate(0 -0.5 -5.25)" stroke="none"><path fill="#1e1e1e" d="M -0.77,0.11 Q -0.77,0.11 -1.30,-0.84 -1.83,-1.79 -1.90,-2.85 -1.97,-3.92 -1.56,-7.03 -1.15,-10.14 -1.09,-10.23 -1.03,-10.32 -0.94,-10.38 -0.86,-10.44 -0.76,-10.47 -0.65,-10.50 -0.55,-10.50 -0.44,-10.50 -0.34,-10.46 -0.24,-10.42 -0.16,-10.36 -0.08,-10.29 -0.02,-10.20 0.03,-10.11 0.05,-10.01 0.08,-9.90 0.07,-9.80 0.06,-9.69 0.02,-9.60 -0.01,-9.50 -0.08,-9.42 -0.15,-9.34 -0.25,-9.29 -0.34,-9.24 -0.44,-9.22 -0.55,-9.20 -0.65,-9.21 -0.76,-9.22 -0.85,-9.27 -0.95,-9.32 -1.02,-9.39 -1.10,-9.47 -1.15,-9.56 -1.19,-9.66 -1.21,-9.76 -1.22,-9.87 -1.20,-9.97 -1.18,-10.08 -1.13,-10.17 -1.08,-10.26 -1.00,-10.33 -0.92,-10.41 -0.82,-10.45 -0.72,-10.49 -0.62,-10.50 -0.51,-10.51 -0.41,-10.48 -0.31,-10.45 -0.22,-10.40 -0.13,-10.34 -0.06,-10.26 0.00,-10.17 0.03,-10.08 0.07,-9.98 0.07,-9.87 0.07,-9.76 0.04,-9.66 0.01,-9.56 0.01,-9.56 0.01,-9.56 0.58,-6.83 1.15,-4.11 1.20,-3.17 1.26,-2.23 1.01,-1.17 0.77,-0.11 0.77,-0.01 0.77,0.07 0.75,0.17 0.73,0.26 0.69,0.34 0.65,0.43 0.59,0.50 0.53,0.57 0.45,0.63 0.37,0.68 0.29,0.72 0.20,0.75 0.10,0.76 0.01,0.78 -0.07,0.77 -0.17,0.76 -0.26,0.73 -0.34,0.70 -0.42,0.64 -0.50,0.59 -0.57,0.52 -0.63,0.45 -0.68,0.37 -0.72,0.29 -0.75,0.20 -0.77,0.11 -0.77,0.11 L -0.77,0.11 Z"/></g><g transform="translate(205 107.5) rotate(0 5.75 1.25)" stroke="none"><path fill="#1e1e1e" d="M 0,-0.91 Q 0,-0.91 1.00,-1.19 2.01,-1.47 3.25,-1.33 4.49,-1.20 5.48,-0.98 6.47,-0.77 7.21,-0.70 7.95,-0.63 8.62,-0.41 9.29,-0.19 10.67,0.78 12.05,1.75 12.13,1.82 12.21,1.89 12.26,1.99 12.31,2.08 12.33,2.18 12.35,2.29 12.34,2.39 12.33,2.50 12.28,2.59 12.23,2.69 12.16,2.76 12.08,2.84 11.99,2.89 11.89,2.93 11.79,2.95 11.68,2.96 11.58,2.94 11.47,2.92 11.38,2.87 11.29,2.82 11.22,2.74 11.14,2.66 11.10,2.56 11.06,2.47 11.05,2.36 11.04,2.25 11.07,2.15 11.09,2.05 11.15,1.96 11.21,1.87 11.29,1.80 11.37,1.73 11.47,1.70 11.57,1.66 11.68,1.66 11.79,1.65 11.89,1.69 11.99,1.72 12.07,1.78 12.16,1.84 12.22,1.93 12.29,2.01 12.32,2.11 12.35,2.22 12.35,2.32 12.34,2.43 12.31,2.53 12.27,2.63 12.20,2.71 12.14,2.79 12.05,2.85 11.96,2.91 11.85,2.93 11.75,2.96 11.65,2.95 11.54,2.94 11.44,2.90 11.34,2.86 11.34,2.86 11.34,2.86 9.48,2.61 7.61,2.37 6.71,2.27 5.81,2.17 4.96,1.97 4.11,1.77 3.06,1.62 2.01,1.47 1.00,1.19 0,0.91 -0.10,0.89 -0.21,0.88 -0.32,0.84 -0.42,0.80 -0.51,0.74 -0.60,0.68 -0.67,0.60 -0.75,0.51 -0.80,0.42 -0.85,0.32 -0.88,0.21 -0.90,0.11 -0.90,-0.00 -0.90,-0.11 -0.88,-0.21 -0.85,-0.32 -0.80,-0.42 -0.75,-0.51 -0.67,-0.60 -0.60,-0.68 -0.51,-0.74 -0.42,-0.80 -0.32,-0.84 -0.21,-0.88 -0.10,-0.89 0.00,-0.91 0.00,-0.91 L 0,-0.91 Z"/></g><g transform="translate(213.5 100) rotate(0 3.25 8.5)" stroke="none"><path fill="#1e1e1e" d="M 0.66,-0.79 Q 0.66,-0.79 1.65,-0.23 2.65,0.32 3.42,0.88 4.18,1.45 4.77,1.81 5.35,2.17 5.82,2.53 6.29,2.88 6.77,3.53 7.26,4.18 7.37,5.04 7.47,5.90 6.39,8.12 5.30,10.34 4.59,11.84 3.88,13.35 2.77,14.63 1.66,15.92 1.64,16.02 1.61,16.12 1.55,16.21 1.49,16.30 1.40,16.36 1.32,16.43 1.22,16.46 1.12,16.50 1.01,16.50 0.91,16.50 0.80,16.46 0.70,16.43 0.62,16.36 0.53,16.30 0.47,16.21 0.42,16.12 0.39,16.02 0.36,15.92 0.36,15.81 0.37,15.71 0.41,15.61 0.45,15.51 0.52,15.43 0.59,15.35 0.68,15.29 0.77,15.24 0.87,15.22 0.97,15.19 1.08,15.20 1.19,15.21 1.28,15.26 1.38,15.30 1.46,15.38 1.53,15.45 1.58,15.54 1.63,15.64 1.65,15.74 1.67,15.85 1.65,15.95 1.63,16.06 1.58,16.15 1.53,16.24 1.46,16.32 1.38,16.39 1.28,16.44 1.19,16.48 1.08,16.49 0.98,16.50 0.87,16.48 0.77,16.46 0.68,16.40 0.59,16.35 0.52,16.27 0.45,16.19 0.41,16.09 0.37,15.99 0.36,15.88 0.36,15.78 0.36,15.78 0.36,15.78 0.79,13.94 1.22,12.10 1.95,10.53 2.68,8.96 3.73,7.27 4.79,5.57 4.29,5.11 3.79,4.65 3.12,4.22 2.45,3.79 1.62,3.17 0.79,2.55 0.06,1.67 -0.66,0.79 -0.74,0.70 -0.83,0.61 -0.89,0.50 -0.95,0.39 -0.98,0.27 -1.02,0.15 -1.02,0.03 -1.02,-0.09 -1.00,-0.21 -0.97,-0.33 -0.92,-0.44 -0.86,-0.56 -0.78,-0.65 -0.70,-0.75 -0.60,-0.82 -0.50,-0.89 -0.39,-0.94 -0.27,-0.99 -0.15,-1.01 -0.03,-1.03 0.09,-1.02 0.21,-1.00 0.33,-0.96 0.45,-0.92 0.55,-0.86 0.66,-0.79 0.66,-0.79 L 0.66,-0.79 Z"/></g><g transform="translate(231 103) rotate(0 5.5 7.25)" stroke="none"><path fill="#1e1e1e" d="M 0.82,-0.47 Q 0.82,-0.47 1.63,0.40 2.43,1.28 3.01,2.65 3.59,4.02 4.50,5.64 5.41,7.26 6.12,8.74 6.83,10.22 7.39,11.22 7.94,12.22 8.33,12.67 8.72,13.11 8.79,13.28 8.86,13.45 8.88,13.63 8.91,13.80 8.89,13.98 8.88,14.16 8.82,14.33 8.76,14.50 8.66,14.65 8.56,14.80 8.43,14.92 8.30,15.05 8.14,15.13 7.98,15.22 7.81,15.27 7.63,15.32 7.45,15.32 7.27,15.32 7.10,15.29 6.92,15.25 6.76,15.17 6.60,15.09 6.46,14.97 6.33,14.86 6.22,14.71 6.11,14.56 6.19,13.35 6.27,12.13 6.32,11.12 6.37,10.10 6.70,7.96 7.02,5.82 8.70,3.69 10.38,1.55 10.48,1.52 10.58,1.50 10.69,1.50 10.80,1.51 10.90,1.55 10.99,1.59 11.07,1.66 11.15,1.73 11.21,1.82 11.26,1.91 11.28,2.02 11.31,2.12 11.29,2.23 11.28,2.33 11.24,2.43 11.19,2.52 11.12,2.60 11.04,2.68 10.95,2.73 10.85,2.78 10.75,2.79 10.64,2.81 10.54,2.79 10.43,2.77 10.34,2.72 10.25,2.67 10.17,2.59 10.10,2.51 10.06,2.42 10.02,2.32 10.00,2.21 9.99,2.11 10.02,2.01 10.04,1.90 10.10,1.81 10.15,1.72 10.23,1.65 10.32,1.58 10.42,1.55 10.51,1.51 10.62,1.50 10.73,1.50 10.83,1.53 10.93,1.56 11.02,1.62 11.11,1.68 11.17,1.76 11.23,1.85 11.27,1.95 11.30,2.05 11.30,2.16 11.30,2.26 11.26,2.36 11.23,2.46 11.16,2.55 11.10,2.63 11.01,2.69 10.92,2.75 10.92,2.75 10.92,2.75 10.47,4.52 10.03,6.28 9.72,8.29 9.41,10.29 9.07,11.70 8.72,13.11 8.79,13.28 8.86,13.45 8.88,13.63 8.91,13.80 8.89,13.98 8.88,14.16 8.82,14.33 8.76,14.50 8.66,14.65 8.56,14.80 8.43,14.92 8.30,15.05 8.14,15.13 7.98,15.22 7.81,15.27 7.63,15.32 7.45,15.32 7.27,15.32 7.10,15.29 6.92,15.25 6.76,15.17 6.60,15.09 6.46,14.97 6.33,14.86 6.22,14.71 6.11,14.56 5.72,14.13 5.33,13.69 4.73,12.60 4.12,11.51 3.45,10.11 2.79,8.71 1.81,6.94 0.83,5.16 0.34,3.95 -0.13,2.74 -0.48,1.60 -0.82,0.47 -0.87,0.36 -0.91,0.26 -0.93,0.14 -0.95,0.03 -0.94,-0.08 -0.93,-0.19 -0.89,-0.30 -0.85,-0.41 -0.79,-0.50 -0.73,-0.60 -0.65,-0.68 -0.56,-0.76 -0.46,-0.81 -0.36,-0.87 -0.25,-0.90 -0.14,-0.93 -0.03,-0.94 0.08,-0.94 0.19,-0.92 0.30,-0.90 0.40,-0.85 0.51,-0.80 0.60,-0.72 0.68,-0.65 0.75,-0.56 0.82,-0.47 0.82,-0.47 L 0.82,-0.47 Z"/></g><g transform="translate(245.5 114.5) rotate(0 4.5 4.75)" stroke="none"><path fill="#1e1e1e" d="M 0.33,-1.00 Q 0.33,-1.00 1.26,-0.80 2.19,-0.60 3.09,0.24 3.99,1.08 4.39,1.98 4.78,2.89 4.48,4.06 4.17,5.24 3.71,6.10 3.25,6.95 2.73,7.65 2.21,8.35 1.87,8.76 1.53,9.17 1.43,9.28 1.32,9.40 1.19,9.48 1.05,9.56 0.91,9.61 0.76,9.66 0.60,9.67 0.45,9.69 0.29,9.66 0.14,9.64 0.00,9.57 -0.14,9.51 -0.26,9.42 -0.39,9.33 -0.48,9.20 -0.58,9.08 -0.65,8.94 -0.72,8.80 -0.75,8.65 -0.78,8.50 -0.77,8.34 -0.77,8.18 -0.72,8.04 -0.68,7.89 -0.60,7.75 -0.52,7.62 0.58,7.61 1.70,7.60 2.98,7.61 4.26,7.62 6.42,8.19 8.59,8.75 8.69,8.79 8.79,8.83 8.87,8.89 8.96,8.96 9.01,9.05 9.07,9.13 9.10,9.24 9.13,9.34 9.12,9.45 9.11,9.55 9.07,9.65 9.03,9.75 8.96,9.83 8.89,9.91 8.80,9.96 8.71,10.01 8.60,10.04 8.50,10.06 8.39,10.04 8.29,10.03 8.19,9.99 8.10,9.94 8.02,9.86 7.94,9.79 7.89,9.70 7.85,9.60 7.83,9.50 7.82,9.39 7.83,9.29 7.85,9.18 7.90,9.09 7.95,9.00 8.03,8.92 8.11,8.85 8.21,8.81 8.31,8.77 8.41,8.76 8.52,8.75 8.62,8.77 8.72,8.79 8.81,8.85 8.90,8.91 8.97,8.99 9.04,9.07 9.08,9.17 9.12,9.27 9.12,9.38 9.12,9.48 9.09,9.58 9.06,9.69 9.00,9.77 8.94,9.86 8.86,9.92 8.77,9.99 8.67,10.02 8.57,10.05 8.46,10.05 8.36,10.05 8.36,10.05 8.36,10.05 6.26,10.16 4.16,10.28 3.24,10.24 2.33,10.21 1.38,10.04 0.44,9.88 0.99,9.53 1.53,9.17 1.43,9.28 1.32,9.40 1.19,9.48 1.05,9.56 0.91,9.61 0.76,9.66 0.60,9.67 0.45,9.69 0.29,9.66 0.14,9.64 0.00,9.57 -0.14,9.51 -0.26,9.42 -0.39,9.33 -0.48,9.20 -0.58,9.08 -0.65,8.94 -0.72,8.80 -0.75,8.65 -0.78,8.50 -0.77,8.34 -0.77,8.18 -0.72,8.04 -0.68,7.89 -0.60,7.75 -0.52,7.62 -0.18,7.21 0.16,6.80 0.57,6.27 0.98,5.73 1.36,5.02 1.74,4.31 1.90,3.58 2.06,2.84 1.66,2.30 1.25,1.75 0.45,1.37 -0.33,1.00 -0.45,0.94 -0.56,0.89 -0.66,0.81 -0.76,0.73 -0.83,0.63 -0.91,0.52 -0.96,0.41 -1.01,0.29 -1.03,0.16 -1.05,0.04 -1.04,-0.08 -1.03,-0.21 -0.99,-0.33 -0.95,-0.45 -0.88,-0.56 -0.82,-0.66 -0.72,-0.75 -0.63,-0.84 -0.52,-0.90 -0.41,-0.97 -0.29,-1.00 -0.17,-1.04 -0.04,-1.05 0.08,-1.05 0.20,-1.02 0.33,-1.00 0.33,-1.00 L 0.33,-1.00 Z"/></g><g transform="translate(261.5 99.5) rotate(0 4.25 12.5)" stroke="none"><path fill="#1e1e1e" d="M 0.74,-0.74 Q 0.74,-0.74 1.90,0.10 3.07,0.94 4.03,1.76 5.00,2.58 5.72,3.24 6.45,3.91 7.06,4.24 7.67,4.57 8.30,5.18 8.92,5.79 9.27,6.53 9.62,7.27 9.60,8.94 9.58,10.60 8.16,13.72 6.73,16.83 5.66,18.89 4.59,20.95 3.52,22.69 2.45,24.43 2.40,24.52 2.34,24.61 2.26,24.67 2.17,24.74 2.07,24.78 1.97,24.81 1.87,24.82 1.76,24.82 1.66,24.79 1.56,24.76 1.47,24.69 1.39,24.63 1.32,24.55 1.26,24.46 1.23,24.36 1.20,24.26 1.20,24.15 1.21,24.04 1.24,23.94 1.28,23.84 1.34,23.76 1.41,23.68 1.50,23.62 1.59,23.56 1.69,23.54 1.80,23.51 1.90,23.52 2.01,23.53 2.11,23.57 2.20,23.61 2.28,23.68 2.36,23.76 2.41,23.85 2.47,23.94 2.49,24.04 2.51,24.15 2.49,24.25 2.48,24.36 2.43,24.45 2.38,24.55 2.31,24.63 2.23,24.70 2.14,24.75 2.04,24.79 1.94,24.81 1.83,24.82 1.73,24.80 1.62,24.78 1.53,24.73 1.44,24.68 1.37,24.60 1.30,24.52 1.26,24.42 1.21,24.33 1.20,24.22 1.20,24.11 1.22,24.01 1.25,23.91 1.25,23.91 1.25,23.91 1.79,21.89 2.33,19.87 3.24,17.76 4.16,15.65 5.38,13.02 6.59,10.38 6.70,9.33 6.80,8.28 6.47,7.73 6.15,7.17 5.29,6.66 4.43,6.15 3.73,5.51 3.03,4.87 1.99,3.97 0.94,3.07 0.10,1.90 -0.74,0.74 -0.81,0.64 -0.89,0.54 -0.94,0.42 -1.00,0.31 -1.02,0.18 -1.04,0.06 -1.03,-0.06 -1.03,-0.18 -0.99,-0.30 -0.95,-0.43 -0.89,-0.53 -0.82,-0.64 -0.73,-0.73 -0.64,-0.82 -0.53,-0.89 -0.43,-0.95 -0.30,-0.99 -0.18,-1.03 -0.06,-1.03 0.06,-1.04 0.18,-1.02 0.31,-1.00 0.42,-0.94 0.54,-0.89 0.64,-0.81 0.74,-0.74 0.74,-0.74 L 0.74,-0.74 Z"/></g><g transform="translate(280 103) rotate(0 4.75 4.75)" stroke="none"><path fill="#1e1e1e" d="M 0.78,-0.39 Q 0.78,-0.39 1.56,0.65 2.35,1.69 3.04,3.04 3.73,4.38 4.42,5.47 5.11,6.56 5.85,7.77 6.59,8.99 6.90,9.65 7.20,10.31 7.27,10.46 7.34,10.61 7.37,10.77 7.40,10.94 7.39,11.10 7.38,11.27 7.33,11.42 7.28,11.58 7.20,11.72 7.11,11.86 7.00,11.98 6.88,12.10 6.74,12.19 6.60,12.27 6.44,12.32 6.28,12.37 6.12,12.38 5.96,12.39 5.79,12.36 5.63,12.33 5.48,12.27 5.33,12.20 5.20,12.10 5.07,12.00 4.96,11.87 4.86,11.74 5.25,10.82 5.65,9.91 5.75,8.09 5.86,6.28 6.14,4.30 6.43,2.32 7.56,-0.00 8.70,-2.33 8.76,-2.42 8.82,-2.51 8.90,-2.57 8.99,-2.64 9.09,-2.67 9.19,-2.71 9.29,-2.71 9.40,-2.71 9.50,-2.68 9.60,-2.65 9.69,-2.58 9.77,-2.52 9.83,-2.43 9.89,-2.35 9.92,-2.24 9.95,-2.14 9.95,-2.04 9.95,-1.93 9.91,-1.83 9.87,-1.73 9.80,-1.65 9.73,-1.57 9.64,-1.51 9.55,-1.46 9.45,-1.43 9.35,-1.41 9.24,-1.42 9.14,-1.43 9.04,-1.47 8.94,-1.51 8.86,-1.58 8.79,-1.66 8.73,-1.75 8.68,-1.84 8.66,-1.95 8.65,-2.05 8.66,-2.16 8.68,-2.26 8.73,-2.36 8.77,-2.45 8.85,-2.53 8.93,-2.60 9.02,-2.65 9.12,-2.69 9.22,-2.70 9.33,-2.72 9.43,-2.70 9.54,-2.68 9.63,-2.62 9.72,-2.57 9.79,-2.49 9.86,-2.41 9.90,-2.31 9.94,-2.21 9.95,-2.11 9.96,-2.00 9.93,-1.90 9.90,-1.79 9.90,-1.79 9.90,-1.79 9.40,0.40 8.89,2.60 8.73,4.64 8.56,6.67 8.37,8.01 8.19,9.36 7.86,10.45 7.53,11.53 7.36,10.92 7.20,10.31 7.27,10.46 7.34,10.61 7.37,10.77 7.40,10.94 7.39,11.10 7.38,11.27 7.33,11.42 7.28,11.58 7.20,11.72 7.11,11.86 7.00,11.98 6.88,12.10 6.74,12.19 6.60,12.27 6.44,12.32 6.28,12.37 6.12,12.38 5.96,12.39 5.79,12.36 5.63,12.33 5.48,12.27 5.33,12.20 5.20,12.10 5.07,12.00 4.96,11.87 4.86,11.74 4.54,11.09 4.22,10.43 3.49,9.23 2.76,8.03 2.01,6.82 1.26,5.62 0.60,4.26 -0.05,2.90 -0.41,1.64 -0.78,0.39 -0.81,0.29 -0.85,0.19 -0.86,0.08 -0.87,-0.01 -0.85,-0.12 -0.84,-0.22 -0.80,-0.32 -0.76,-0.42 -0.70,-0.50 -0.64,-0.59 -0.56,-0.66 -0.48,-0.72 -0.38,-0.77 -0.29,-0.82 -0.19,-0.84 -0.08,-0.86 0.01,-0.86 0.12,-0.86 0.22,-0.83 0.32,-0.81 0.41,-0.75 0.51,-0.70 0.58,-0.63 0.66,-0.56 0.72,-0.47 0.78,-0.39 0.78,-0.39 L 0.78,-0.39 Z"/></g><g transform="translate(297.5 124.5) rotate(0 -0.5 -5)" stroke="none"><path fill="#1e1e1e" d="M -1.03,0.12 Q -1.03,0.12 -1.39,-0.99 -1.74,-2.11 -1.81,-3.23 -1.87,-4.34 -1.71,-6.80 -1.55,-9.26 -1.55,-9.37 -1.54,-9.47 -1.51,-9.57 -1.47,-9.67 -1.41,-9.76 -1.34,-9.84 -1.26,-9.90 -1.17,-9.96 -1.06,-9.99 -0.96,-10.01 -0.86,-10.01 -0.75,-10.00 -0.65,-9.96 -0.55,-9.92 -0.47,-9.85 -0.39,-9.78 -0.34,-9.69 -0.29,-9.60 -0.26,-9.49 -0.24,-9.39 -0.25,-9.28 -0.27,-9.18 -0.31,-9.08 -0.36,-8.99 -0.43,-8.91 -0.51,-8.83 -0.60,-8.78 -0.69,-8.73 -0.80,-8.72 -0.90,-8.70 -1.01,-8.72 -1.11,-8.74 -1.21,-8.79 -1.30,-8.84 -1.37,-8.92 -1.45,-9.00 -1.49,-9.09 -1.53,-9.19 -1.54,-9.30 -1.55,-9.40 -1.53,-9.51 -1.51,-9.61 -1.45,-9.70 -1.39,-9.79 -1.31,-9.86 -1.23,-9.93 -1.13,-9.96 -1.03,-10.00 -0.93,-10.01 -0.82,-10.01 -0.72,-9.98 -0.62,-9.95 -0.53,-9.89 -0.44,-9.83 -0.38,-9.75 -0.31,-9.66 -0.28,-9.56 -0.25,-9.46 -0.25,-9.46 -0.25,-9.46 0.40,-6.98 1.05,-4.51 1.11,-3.49 1.17,-2.48 1.10,-1.30 1.03,-0.12 1.03,-0.00 1.03,0.12 1.00,0.24 0.97,0.36 0.91,0.47 0.86,0.58 0.77,0.68 0.69,0.77 0.59,0.85 0.48,0.92 0.37,0.96 0.25,1.01 0.12,1.02 0.00,1.04 -0.12,1.02 -0.24,1.01 -0.36,0.97 -0.48,0.92 -0.58,0.85 -0.68,0.78 -0.77,0.68 -0.85,0.59 -0.91,0.48 -0.97,0.37 -1.00,0.25 -1.03,0.12 -1.03,0.12 L -1.03,0.12 Z"/></g><g transform="translate(147 269.5) rotate(0 -1 -6.5)" stroke="none"><path fill="#1e1e1e" d="M -0.82,0 Q -0.82,0 -1.16,-0.86 -1.51,-1.72 -1.65,-3.16 -1.79,-4.61 -1.99,-5.78 -2.18,-6.94 -2.35,-8.02 -2.53,-9.09 -2.51,-10.64 -2.48,-12.19 -2.49,-12.30 -2.50,-12.41 -2.47,-12.51 -2.44,-12.61 -2.38,-12.70 -2.33,-12.79 -2.24,-12.85 -2.16,-12.92 -2.06,-12.95 -1.96,-12.99 -1.85,-12.99 -1.74,-12.99 -1.64,-12.96 -1.54,-12.93 -1.46,-12.86 -1.37,-12.80 -1.31,-12.71 -1.25,-12.62 -1.22,-12.52 -1.19,-12.42 -1.20,-12.31 -1.20,-12.21 -1.24,-12.11 -1.28,-12.01 -1.34,-11.93 -1.41,-11.85 -1.50,-11.79 -1.59,-11.73 -1.70,-11.71 -1.80,-11.69 -1.91,-11.70 -2.01,-11.71 -2.11,-11.75 -2.21,-11.79 -2.28,-11.87 -2.36,-11.94 -2.41,-12.03 -2.46,-12.12 -2.48,-12.23 -2.50,-12.33 -2.48,-12.44 -2.47,-12.54 -2.42,-12.64 -2.37,-12.73 -2.29,-12.81 -2.22,-12.88 -2.12,-12.93 -2.03,-12.97 -1.92,-12.99 -1.82,-13.00 -1.71,-12.98 -1.61,-12.95 -1.52,-12.90 -1.42,-12.85 -1.35,-12.77 -1.28,-12.69 -1.24,-12.59 -1.20,-12.49 -1.20,-12.49 -1.20,-12.49 -0.49,-11.08 0.21,-9.67 0.50,-8.56 0.79,-7.44 1.00,-6.17 1.22,-4.90 1.36,-3.31 1.51,-1.72 1.16,-0.86 0.82,0 0.81,0.09 0.79,0.19 0.76,0.28 0.72,0.38 0.67,0.46 0.61,0.54 0.54,0.61 0.46,0.67 0.37,0.72 0.29,0.76 0.19,0.79 0.09,0.81 -0.00,0.81 -0.09,0.81 -0.19,0.79 -0.29,0.76 -0.37,0.72 -0.46,0.67 -0.54,0.61 -0.61,0.54 -0.67,0.46 -0.72,0.38 -0.76,0.28 -0.79,0.19 -0.81,0.09 -0.82,-0.00 -0.82,-0.00 L -0.82,0 Z"/></g><g transform="translate(145 263.5) rotate(0 -7.75 -0.25)" stroke="none"><path fill="#1e1e1e" d="M -0.10,0.70 Q -0.10,0.70 -1.16,0.96 -2.22,1.22 -3.03,1.16 -3.84,1.11 -4.73,0.92 -5.63,0.74 -6.72,0.69 -7.81,0.63 -8.59,0.60 -9.37,0.57 -10.27,0.56 -11.17,0.55 -11.84,0.54 -12.51,0.54 -13.08,0.53 -13.65,0.53 -14.53,0.44 -15.40,0.35 -15.98,-0.48 -16.55,-1.32 -16.07,-2.70 -15.60,-4.07 -15.07,-5.00 -14.54,-5.93 -14.05,-6.86 -13.55,-7.78 -13.19,-8.33 -12.83,-8.87 -12.73,-9.02 -12.62,-9.17 -12.49,-9.28 -12.36,-9.40 -12.20,-9.48 -12.04,-9.57 -11.87,-9.61 -11.70,-9.65 -11.52,-9.65 -11.34,-9.65 -11.17,-9.61 -11.00,-9.56 -10.84,-9.48 -10.68,-9.40 -10.55,-9.28 -10.42,-9.16 -10.32,-9.01 -10.22,-8.87 -10.15,-8.70 -10.09,-8.53 -10.07,-8.36 -10.05,-8.18 -10.07,-8.00 -10.09,-7.83 -10.16,-7.66 -10.22,-7.49 -10.74,-6.38 -11.26,-5.27 -11.67,-4.34 -12.09,-3.40 -12.39,-2.47 -12.70,-1.54 -12.99,-0.68 -13.28,0.16 -13.29,0.83 -13.29,1.49 -13.03,1.96 -12.76,2.43 -12.49,2.98 -12.21,3.53 -11.47,4.19 -10.73,4.85 -8.90,6.28 -7.08,7.71 -6.99,7.77 -6.91,7.84 -6.85,7.93 -6.79,8.01 -6.76,8.12 -6.73,8.22 -6.74,8.32 -6.74,8.43 -6.78,8.53 -6.82,8.63 -6.89,8.71 -6.96,8.79 -7.05,8.84 -7.14,8.90 -7.24,8.92 -7.35,8.95 -7.45,8.93 -7.56,8.92 -7.65,8.88 -7.75,8.83 -7.83,8.76 -7.91,8.69 -7.96,8.59 -8.01,8.50 -8.02,8.40 -8.04,8.29 -8.02,8.19 -8.01,8.08 -7.96,7.99 -7.91,7.89 -7.83,7.82 -7.75,7.75 -7.66,7.70 -7.56,7.66 -7.46,7.65 -7.35,7.63 -7.25,7.66 -7.14,7.68 -7.05,7.73 -6.96,7.79 -6.89,7.87 -6.82,7.95 -6.78,8.05 -6.74,8.15 -6.74,8.25 -6.73,8.36 -6.76,8.46 -6.79,8.56 -6.85,8.65 -6.91,8.74 -6.99,8.80 -7.08,8.87 -7.18,8.90 -7.28,8.94 -7.38,8.94 -7.49,8.94 -7.59,8.90 -7.69,8.87 -7.69,8.87 -7.69,8.87 -9.58,8.24 -11.48,7.61 -12.05,7.21 -12.63,6.81 -13.08,6.36 -13.53,5.92 -14.07,5.36 -14.61,4.80 -14.90,4.23 -15.19,3.66 -15.58,2.84 -15.97,2.01 -16.06,1.25 -16.15,0.48 -16.01,-0.10 -15.88,-0.69 -15.60,-1.54 -15.32,-2.40 -14.97,-3.46 -14.62,-4.51 -14.17,-5.56 -13.71,-6.60 -13.43,-7.10 -13.15,-7.60 -12.99,-8.24 -12.83,-8.87 -12.73,-9.02 -12.62,-9.17 -12.49,-9.28 -12.36,-9.40 -12.20,-9.48 -12.04,-9.57 -11.87,-9.61 -11.70,-9.65 -11.52,-9.65 -11.34,-9.65 -11.17,-9.61 -11.00,-9.56 -10.84,-9.48 -10.68,-9.40 -10.55,-9.28 -10.42,-9.16 -10.32,-9.01 -10.22,-8.87 -10.15,-8.70 -10.09,-8.53 -10.07,-8.36 -10.05,-8.18 -10.07,-8.00 -10.09,-7.83 -10.16,-7.66 -10.22,-7.49 -10.57,-6.94 -10.93,-6.39 -11.44,-5.42 -11.95,-4.44 -12.44,-3.60 -12.92,-2.77 -13.49,-2.00 -14.06,-1.24 -13.85,-1.88 -13.64,-2.52 -13.06,-2.52 -12.48,-2.52 -11.80,-2.52 -11.12,-2.51 -10.19,-2.50 -9.26,-2.48 -8.44,-2.45 -7.63,-2.42 -6.31,-2.33 -5.00,-2.24 -4.31,-2.08 -3.61,-1.93 -2.70,-1.86 -1.79,-1.79 -0.84,-1.25 0.10,-0.70 0.18,-0.68 0.26,-0.66 0.34,-0.61 0.41,-0.57 0.48,-0.51 0.54,-0.46 0.59,-0.38 0.63,-0.31 0.66,-0.23 0.69,-0.15 0.70,-0.07 0.71,0.01 0.70,0.10 0.68,0.18 0.65,0.26 0.62,0.34 0.57,0.41 0.52,0.48 0.45,0.53 0.39,0.59 0.31,0.63 0.23,0.67 0.15,0.69 0.07,0.70 -0.01,0.70 -0.10,0.70 -0.10,0.70 L -0.10,0.70 Z"/></g><g transform="translate(143.5 275.5) rotate(0 4.75 3.25)" stroke="none"><path fill="#1e1e1e" d="M 0.76,-0.30 Q 0.76,-0.30 1.27,0.32 1.77,0.95 2.56,2.15 3.34,3.36 3.83,4.03 4.31,4.70 4.73,3.87 5.15,3.04 7.28,1.18 9.41,-0.67 9.52,-0.64 9.62,-0.61 9.70,-0.54 9.79,-0.48 9.85,-0.40 9.91,-0.31 9.95,-0.21 9.98,-0.11 9.97,-0.00 9.97,0.10 9.94,0.19 9.90,0.29 9.83,0.38 9.77,0.46 9.68,0.52 9.59,0.58 9.48,0.60 9.38,0.63 9.27,0.62 9.17,0.61 9.07,0.57 8.97,0.53 8.89,0.46 8.82,0.38 8.76,0.29 8.71,0.20 8.69,0.10 8.67,-0.00 8.68,-0.10 8.70,-0.21 8.75,-0.30 8.79,-0.40 8.87,-0.48 8.94,-0.55 9.04,-0.60 9.13,-0.65 9.24,-0.66 9.34,-0.67 9.45,-0.65 9.55,-0.63 9.64,-0.58 9.74,-0.53 9.81,-0.45 9.88,-0.37 9.92,-0.27 9.96,-0.18 9.97,-0.07 9.98,0.02 9.96,0.13 9.93,0.23 9.87,0.32 9.82,0.41 9.73,0.48 9.65,0.54 9.55,0.58 9.45,0.62 9.34,0.62 9.24,0.62 9.24,0.62 9.24,0.62 8.35,2.49 7.47,4.35 6.96,5.23 6.45,6.11 5.73,6.77 5.02,7.44 4.10,7.36 3.18,7.28 2.69,6.75 2.20,6.21 1.68,5.48 1.16,4.76 0.27,3.34 -0.62,1.92 -0.69,1.11 -0.76,0.30 -0.79,0.21 -0.82,0.11 -0.82,0.01 -0.82,-0.08 -0.80,-0.18 -0.77,-0.27 -0.73,-0.36 -0.69,-0.45 -0.62,-0.53 -0.56,-0.61 -0.47,-0.66 -0.39,-0.72 -0.30,-0.76 -0.21,-0.80 -0.11,-0.81 -0.01,-0.82 0.08,-0.81 0.18,-0.80 0.27,-0.77 0.37,-0.74 0.45,-0.68 0.53,-0.62 0.60,-0.55 0.67,-0.48 0.72,-0.39 0.76,-0.30 0.76,-0.30 L 0.76,-0.30 Z"/></g><g transform="translate(159 286.5) rotate(0 -0.75 -4.5)" stroke="none"><path fill="#1e1e1e" d="M -0.92,0.26 Q -0.92,0.26 -1.46,-0.66 -2.01,-1.60 -2.29,-2.78 -2.57,-3.96 -2.34,-6.20 -2.12,-8.44 -2.11,-8.55 -2.10,-8.65 -2.05,-8.75 -2.01,-8.85 -1.94,-8.92 -1.86,-9.00 -1.77,-9.05 -1.68,-9.10 -1.57,-9.12 -1.47,-9.14 -1.36,-9.12 -1.26,-9.10 -1.16,-9.05 -1.07,-9.00 -1.00,-8.93 -0.92,-8.85 -0.88,-8.75 -0.83,-8.66 -0.82,-8.55 -0.81,-8.45 -0.83,-8.34 -0.85,-8.24 -0.91,-8.15 -0.96,-8.06 -1.04,-7.99 -1.12,-7.92 -1.22,-7.88 -1.32,-7.84 -1.43,-7.83 -1.53,-7.83 -1.64,-7.85 -1.74,-7.88 -1.83,-7.94 -1.91,-8.00 -1.98,-8.08 -2.04,-8.17 -2.08,-8.27 -2.11,-8.37 -2.11,-8.48 -2.11,-8.58 -2.08,-8.68 -2.05,-8.78 -1.98,-8.87 -1.92,-8.95 -1.83,-9.01 -1.74,-9.07 -1.64,-9.10 -1.54,-9.13 -1.43,-9.13 -1.33,-9.12 -1.23,-9.08 -1.13,-9.04 -1.05,-8.97 -0.97,-8.91 -0.91,-8.82 -0.86,-8.72 -0.83,-8.62 -0.81,-8.52 -0.81,-8.52 -0.81,-8.52 -0.22,-6.58 0.35,-4.64 0.61,-3.53 0.86,-2.42 0.89,-1.34 0.92,-0.26 0.93,-0.14 0.95,-0.03 0.94,0.07 0.93,0.19 0.90,0.30 0.86,0.41 0.80,0.51 0.73,0.60 0.65,0.68 0.57,0.76 0.47,0.82 0.37,0.88 0.26,0.91 0.15,0.94 0.03,0.94 -0.08,0.95 -0.19,0.93 -0.30,0.90 -0.41,0.85 -0.51,0.80 -0.60,0.73 -0.69,0.66 -0.76,0.56 -0.83,0.47 -0.87,0.36 -0.92,0.26 -0.92,0.26 L -0.92,0.26 Z"/></g><g transform="translate(252.5 247) rotate(0 1.25 5.25)" stroke="none"><path fill="#1e1e1e" d="M 0.82,0 Q 0.82,0 1.08,0.85 1.33,1.71 1.60,2.63 1.86,3.55 2.33,4.97 2.81,6.40 3.09,8.22 3.38,10.04 3.40,10.15 3.41,10.25 3.39,10.36 3.38,10.46 3.32,10.56 3.27,10.65 3.19,10.72 3.12,10.79 3.02,10.84 2.92,10.88 2.81,10.89 2.71,10.90 2.61,10.87 2.50,10.85 2.41,10.79 2.32,10.73 2.26,10.65 2.19,10.57 2.15,10.47 2.11,10.37 2.11,10.26 2.11,10.16 2.14,10.06 2.17,9.95 2.23,9.87 2.29,9.78 2.37,9.72 2.46,9.66 2.56,9.62 2.66,9.59 2.77,9.59 2.88,9.60 2.98,9.63 3.08,9.67 3.16,9.73 3.24,9.80 3.30,9.89 3.36,9.98 3.38,10.08 3.41,10.18 3.40,10.29 3.40,10.40 3.35,10.49 3.31,10.59 3.24,10.67 3.17,10.75 3.08,10.80 2.99,10.86 2.88,10.88 2.78,10.90 2.67,10.88 2.57,10.87 2.47,10.82 2.38,10.78 2.30,10.70 2.23,10.63 2.18,10.53 2.13,10.44 2.13,10.44 2.13,10.44 1.34,8.85 0.55,7.25 -0.08,5.74 -0.71,4.23 -1.02,2.98 -1.33,1.73 -1.08,0.86 -0.82,0 -0.81,-0.09 -0.80,-0.19 -0.76,-0.29 -0.73,-0.38 -0.67,-0.46 -0.61,-0.54 -0.54,-0.61 -0.46,-0.68 -0.38,-0.72 -0.29,-0.77 -0.19,-0.79 -0.09,-0.82 0.00,-0.82 0.09,-0.82 0.19,-0.79 0.29,-0.77 0.38,-0.72 0.46,-0.68 0.54,-0.61 0.61,-0.54 0.67,-0.46 0.73,-0.38 0.76,-0.29 0.80,-0.19 0.81,-0.09 0.82,0.00 0.82,0.00 L 0.82,0 Z"/></g><g transform="translate(254 250.5) rotate(0 10.75 -1.5)" stroke="none"><path fill="#1e1e1e" d="M -0.10,-0.92 Q -0.10,-0.92 1.16,-1.28 2.43,-1.65 3.59,-1.74 4.75,-1.83 7.23,-2.04 9.71,-2.24 12.30,-2.61 14.89,-2.97 16.32,-3.12 17.75,-3.28 19.32,-3.36 20.90,-3.45 21.00,-3.48 21.11,-3.50 21.21,-3.50 21.32,-3.49 21.42,-3.45 21.51,-3.41 21.59,-3.34 21.67,-3.27 21.73,-3.18 21.78,-3.08 21.80,-2.98 21.82,-2.88 21.81,-2.77 21.80,-2.66 21.75,-2.57 21.71,-2.47 21.63,-2.40 21.56,-2.32 21.46,-2.27 21.37,-2.22 21.26,-2.21 21.16,-2.19 21.05,-2.21 20.95,-2.23 20.86,-2.28 20.76,-2.33 20.69,-2.41 20.62,-2.49 20.58,-2.58 20.53,-2.68 20.52,-2.79 20.51,-2.89 20.54,-3.00 20.56,-3.10 20.62,-3.19 20.67,-3.28 20.76,-3.35 20.84,-3.42 20.94,-3.45 21.04,-3.49 21.14,-3.50 21.25,-3.50 21.35,-3.47 21.45,-3.44 21.54,-3.38 21.63,-3.32 21.69,-3.23 21.75,-3.15 21.78,-3.05 21.82,-2.95 21.82,-2.84 21.81,-2.73 21.78,-2.63 21.74,-2.53 21.68,-2.45 21.61,-2.37 21.52,-2.31 21.44,-2.25 21.44,-2.25 21.44,-2.25 19.76,-1.25 18.08,-0.26 16.69,-0.11 15.30,0.03 12.61,0.39 9.92,0.75 7.41,0.88 4.91,1.01 3.82,1.04 2.73,1.08 1.42,1.00 0.10,0.92 -0.00,0.91 -0.12,0.91 -0.22,0.89 -0.33,0.86 -0.43,0.80 -0.53,0.75 -0.61,0.68 -0.69,0.60 -0.76,0.51 -0.82,0.42 -0.86,0.31 -0.90,0.21 -0.91,0.10 -0.92,-0.00 -0.91,-0.12 -0.89,-0.23 -0.85,-0.33 -0.81,-0.43 -0.75,-0.53 -0.68,-0.62 -0.60,-0.69 -0.51,-0.76 -0.41,-0.81 -0.31,-0.86 -0.21,-0.89 -0.10,-0.92 -0.10,-0.92 L -0.10,-0.92 Z"/></g><g transform="translate(269.5 242.5) rotate(0 3.25 6)" stroke="none"><path fill="#1e1e1e" d="M 0.12,-0.77 Q 0.12,-0.77 1.04,-0.97 1.96,-1.17 2.57,-1.12 3.17,-1.07 3.83,-1.05 4.50,-1.03 5.05,-0.97 5.59,-0.91 6.33,-0.39 7.06,0.13 7.39,1.16 7.71,2.19 7.63,3.27 7.56,4.35 7.18,5.68 6.81,7.02 5.80,9.32 4.79,11.62 4.74,11.71 4.70,11.81 4.62,11.88 4.55,11.96 4.46,12.01 4.36,12.06 4.26,12.07 4.15,12.09 4.05,12.07 3.94,12.05 3.85,12.00 3.76,11.95 3.68,11.87 3.61,11.79 3.57,11.69 3.53,11.60 3.52,11.49 3.51,11.39 3.53,11.28 3.55,11.18 3.61,11.09 3.67,11.00 3.75,10.93 3.83,10.86 3.93,10.83 4.03,10.79 4.13,10.78 4.24,10.78 4.34,10.81 4.44,10.84 4.53,10.90 4.62,10.96 4.68,11.05 4.74,11.13 4.78,11.23 4.81,11.33 4.81,11.44 4.81,11.55 4.77,11.65 4.74,11.75 4.67,11.83 4.61,11.91 4.52,11.97 4.43,12.03 4.32,12.06 4.22,12.08 4.12,12.08 4.01,12.07 3.91,12.03 3.81,11.99 3.73,11.92 3.65,11.85 3.60,11.76 3.55,11.66 3.53,11.56 3.50,11.46 3.52,11.35 3.53,11.25 3.53,11.25 3.53,11.25 3.83,8.78 4.14,6.32 4.41,5.19 4.68,4.06 4.54,3.01 4.39,1.95 3.64,1.92 2.89,1.89 2.18,1.82 1.48,1.75 0.67,1.26 -0.12,0.77 -0.22,0.75 -0.31,0.72 -0.39,0.67 -0.47,0.62 -0.54,0.56 -0.61,0.49 -0.66,0.41 -0.71,0.33 -0.74,0.24 -0.77,0.15 -0.78,0.05 -0.78,-0.03 -0.77,-0.12 -0.75,-0.22 -0.71,-0.31 -0.68,-0.39 -0.62,-0.47 -0.56,-0.54 -0.49,-0.60 -0.41,-0.66 -0.33,-0.70 -0.24,-0.74 -0.15,-0.76 -0.06,-0.78 0.03,-0.78 0.12,-0.77 0.12,-0.77 L 0.12,-0.77 Z"/></g><g transform="translate(281 238.5) rotate(0 6 5)" stroke="none"><path fill="#1e1e1e" d="M 0.80,-0.58 Q 0.80,-0.58 2.11,0.87 3.43,2.33 4.37,3.75 5.31,5.16 5.88,6.25 6.45,7.33 6.92,7.97 7.39,8.61 6.83,8.85 6.27,9.09 6.46,8.53 6.66,7.97 7.09,6.97 7.52,5.97 8.18,4.54 8.83,3.10 10.01,1.15 11.19,-0.80 11.25,-0.89 11.31,-0.97 11.39,-1.04 11.47,-1.11 11.57,-1.14 11.67,-1.18 11.78,-1.18 11.89,-1.19 11.99,-1.15 12.09,-1.12 12.18,-1.06 12.26,-1.00 12.32,-0.91 12.38,-0.82 12.42,-0.72 12.45,-0.62 12.44,-0.52 12.44,-0.41 12.40,-0.31 12.37,-0.21 12.30,-0.13 12.23,-0.04 12.14,0.00 12.05,0.06 11.95,0.08 11.85,0.11 11.74,0.10 11.64,0.09 11.54,0.05 11.44,0.01 11.36,-0.05 11.28,-0.12 11.23,-0.22 11.18,-0.31 11.16,-0.41 11.14,-0.52 11.15,-0.62 11.17,-0.73 11.22,-0.82 11.26,-0.92 11.34,-0.99 11.41,-1.07 11.51,-1.12 11.60,-1.16 11.71,-1.18 11.82,-1.19 11.92,-1.17 12.02,-1.15 12.12,-1.10 12.21,-1.05 12.28,-0.97 12.35,-0.89 12.39,-0.79 12.43,-0.69 12.44,-0.59 12.45,-0.48 12.42,-0.38 12.40,-0.27 12.40,-0.27 12.40,-0.27 11.86,1.94 11.31,4.17 10.72,5.64 10.13,7.10 9.66,8.18 9.19,9.26 8.13,10.42 7.07,11.57 6.08,10.91 5.08,10.25 4.52,9.44 3.96,8.64 3.46,7.68 2.96,6.72 2.06,5.35 1.16,3.98 0.18,2.28 -0.80,0.58 -0.86,0.47 -0.91,0.37 -0.95,0.25 -0.98,0.14 -0.98,0.02 -0.98,-0.09 -0.96,-0.21 -0.93,-0.32 -0.88,-0.43 -0.83,-0.54 -0.75,-0.63 -0.67,-0.72 -0.57,-0.79 -0.48,-0.86 -0.37,-0.91 -0.26,-0.95 -0.14,-0.97 -0.02,-0.99 0.09,-0.98 0.21,-0.96 0.32,-0.92 0.43,-0.89 0.53,-0.82 0.63,-0.75 0.72,-0.67 0.80,-0.58 0.80,-0.58 L 0.80,-0.58 Z"/></g><g transform="translate(296 247) rotate(0 4.5 5.5)" stroke="none"><path fill="#1e1e1e" d="M 0.51,-0.82 Q 0.51,-0.82 1.79,-0.23 3.07,0.35 3.71,1.54 4.35,2.72 4.26,3.96 4.17,5.20 3.63,6.45 3.09,7.71 2.76,8.48 2.44,9.24 3.31,9.39 4.18,9.53 6.42,9.69 8.67,9.85 8.77,9.86 8.88,9.88 8.98,9.92 9.07,9.97 9.15,10.04 9.22,10.12 9.27,10.21 9.32,10.31 9.33,10.41 9.35,10.52 9.33,10.62 9.31,10.73 9.26,10.82 9.21,10.91 9.13,10.98 9.05,11.06 8.95,11.10 8.86,11.14 8.75,11.15 8.65,11.16 8.54,11.14 8.44,11.11 8.35,11.06 8.26,11.00 8.19,10.92 8.12,10.83 8.09,10.73 8.05,10.64 8.05,10.53 8.04,10.42 8.07,10.32 8.10,10.22 8.16,10.13 8.22,10.05 8.31,9.98 8.40,9.92 8.50,9.89 8.60,9.86 8.70,9.86 8.81,9.86 8.91,9.90 9.01,9.93 9.09,10.00 9.18,10.06 9.24,10.15 9.29,10.24 9.32,10.34 9.35,10.45 9.34,10.55 9.33,10.66 9.29,10.76 9.25,10.85 9.18,10.93 9.11,11.01 9.02,11.07 8.93,11.12 8.82,11.14 8.72,11.16 8.72,11.16 8.72,11.16 6.31,11.65 3.90,12.14 2.63,11.87 1.35,11.61 0.89,11.00 0.42,10.38 0.49,9.43 0.56,8.49 0.92,7.72 1.27,6.96 1.66,5.97 2.05,4.99 2.12,4.33 2.19,3.66 1.86,3.09 1.52,2.51 0.50,1.67 -0.51,0.82 -0.60,0.75 -0.69,0.67 -0.76,0.58 -0.83,0.49 -0.88,0.38 -0.93,0.27 -0.95,0.15 -0.97,0.04 -0.96,-0.07 -0.95,-0.18 -0.91,-0.30 -0.87,-0.41 -0.81,-0.51 -0.75,-0.61 -0.67,-0.69 -0.58,-0.77 -0.48,-0.83 -0.38,-0.89 -0.27,-0.92 -0.16,-0.95 -0.04,-0.96 0.07,-0.96 0.18,-0.94 0.30,-0.92 0.40,-0.87 0.51,-0.82 0.51,-0.82 L 0.51,-0.82 Z"/></g></svg>